<?xml version="1.0" encoding="UTF-8" standalone="no"?>
<svg width="64px" height="64px" viewBox="0 0 64 64" version="1.1" xmlns="http://www.w3.org/2000/svg" xmlns:xlink="http://www.w3.org/1999/xlink">
    <!-- Generator: Sketch 39 (31667) - http://www.bohemiancoding.com/sketch -->
    <title>favicon-pin</title>
    <desc>Created with Sketch.</desc>
    <defs></defs>
    <g id="Page-1" stroke="none" stroke-width="1" fill="none" fill-rule="evenodd">
        <g id="favicon-pin">
            <g id="mobfarm" transform="translate(5.000000, 0.000000)">
                <g id="Group" transform="translate(4.078994, 12.368850)"></g>
                <path d="M14.9344928,18.5509703 C12.8750975,18.5509703 11.1998068,20.1993822 11.1998068,22.2255692 C11.1998068,24.2517563 12.8750975,25.9001681 14.9344928,25.9001681 C16.993888,25.9001681 18.6693165,24.2517563 18.6693165,22.2255692 C18.6693165,20.1993822 16.9937502,18.5509703 14.9344928,18.5509703 L14.9344928,18.5509703 Z" id="Shape" fill="#056BB1"></path>
                <path d="M40.1513383,18.5509703 C38.0919431,18.5509703 36.4165146,20.1993822 36.4165146,22.2255692 C36.4165146,24.2517563 38.0920809,25.9001681 40.1513383,25.9001681 C42.2107336,25.9001681 43.8861621,24.2517563 43.8861621,22.2255692 C43.8861621,20.1993822 42.2105958,18.5509703 40.1513383,18.5509703 L40.1513383,18.5509703 Z" id="Shape" fill="#056BB1"></path>
                <path d="M32.8552162,48.5045544 C41.7767356,46.5438282 48.8631114,39.8034494 51.2150705,31.1541464 C53.2010497,28.8328456 54.4011106,25.8383907 54.4011106,22.5718733 C54.4011106,17.6532662 51.6827575,13.3512526 47.6503544,11.0390613 C43.2096049,4.76571634 35.8332881,0.659625774 27.4814388,0.659625774 C19.2906372,0.659625774 12.0393497,4.60990244 7.57362199,10.6794385 C3.17496297,12.8843547 0.152592667,17.3854186 0.152592667,22.5718733 C0.152592667,26.1496106 1.59263806,29.4002203 3.92817503,31.7979324 C6.36307305,39.8502208 12.9338753,46.1459997 21.2149298,48.2910921 L21.2149298,63.9830203 L32.8552162,63.9830203 L32.8552162,48.5045544 Z M14.5959903,33.1063617 C20.3862577,33.1063617 25.0801968,28.4881134 25.0801968,22.7912154 C25.0801968,17.0943174 20.3862577,12.4760691 14.5959903,12.4760691 C8.80572299,12.4760691 4.11178386,17.0943174 4.11178386,22.7912154 C4.11178386,28.4881134 8.80572299,33.1063617 14.5959903,33.1063617 Z M40.1513383,33.1063617 C45.9416057,33.1063617 50.6355448,28.4881134 50.6355448,22.7912154 C50.6355448,17.0943174 45.9416057,12.4760691 40.1513383,12.4760691 C34.361071,12.4760691 29.6671319,17.0943174 29.6671319,22.7912154 C29.6671319,28.4881134 34.361071,33.1063617 40.1513383,33.1063617 Z" id="Combined-Shape" fill="#056BB1"></path>
            </g>
        </g>
    </g>
</svg>