<?xml version="1.0" encoding="UTF-8" standalone="no"?>
<svg width="128px" height="128px" viewBox="0 0 128 128" version="1.1" xmlns="http://www.w3.org/2000/svg" xmlns:xlink="http://www.w3.org/1999/xlink">
    <!-- Generator: Sketch 3.8.3 (29802) - http://www.bohemiancoding.com/sketch -->
    <title>desman</title>
    <desc>Created with Sketch.</desc>
    <defs></defs>
    <g id="Icon" stroke="none" stroke-width="1" fill="none" fill-rule="evenodd">
        <g id="desman" stroke="#0066AB" stroke-width="4">
            <g id="Desman" transform="translate(20.000000, 4.000000)">
                <path d="M50.7294502,86.2896678 C72.7134521,83.8829627 88,65.5444041 88,43.2786885 C88,19.3765289 68.300529,0 44,0 C19.699471,0 0,19.3765289 0,43.2786885 C0,65.6052254 15.2713651,83.9637555 37.3421135,86.2896678" id="Oval-1" stroke-linecap="round"></path>
                <path d="M50.7563949,86.557377 C52.6039286,93.3071492 55.0614094,103.295175 56.4911795,108.518691 M31.241015,108.749694 C33.366919,100.982926 37.1580203,86.8700523 37.1580203,86.8700523" id="Triangle-1" stroke-linecap="round"></path>
                <path d="M49.1732904,117.604681 C50.2662053,119.057824 52.0212404,120 54,120 C57.3137085,120 60,117.357746 60,114.098361 C60,111.730598 58.5823857,109.688509 56.5364483,108.748445" id="Oval-2" stroke-linecap="round"></path>
                <path d="M38.9361101,117.265222 L38.9361101,117.265222 C40.0011286,118.909402 41.8710802,120 44,120 C46.0827346,120 47.9176154,118.956208 48.9934449,117.371442" id="Oval-2" stroke-linecap="round"></path>
                <path d="M31.1624869,108.897086 C29.2798568,109.892829 28,111.848582 28,114.098361 C28,117.357746 30.6862915,120 34,120 C36.1631618,120 38.0589579,118.874037 39.114653,117.185458" id="Path" stroke-linecap="round"></path>
                <path d="M26.0521209,58.0389209 C27.1854759,61.1017414 28.9456712,63.2834132 29.983627,62.9118214 C31.0215828,62.5402296 30.9442464,59.7560883 29.8108913,56.6932679 C28.6775363,53.6304475 26.917341,51.4487757 25.8793852,51.8203675 C24.8414294,52.1919593 24.9187658,54.9761005 26.0521209,58.0389209 L26.0521209,58.0389209 Z" id="Oval-1"></path>
                <path d="M59.8108913,58.0389209 C58.6775363,61.1017414 56.917341,63.2834132 55.8793852,62.9118214 C54.8414294,62.5402296 54.9187658,59.7560883 56.0521209,56.6932679 C57.1854759,53.6304475 58.9456712,51.4487757 59.983627,51.8203675 C61.0215828,52.1919593 60.9442464,54.9761005 59.8108913,58.0389209 L59.8108913,58.0389209 Z" id="Oval-1"></path>
            </g>
        </g>
    </g>
</svg>