<?xml version="1.0" encoding="iso-8859-1"?><!-- Generator: Adobe Illustrator 16.0.0, SVG Export Plug-In . SVG Version: 6.00 Build 0) --><!DOCTYPE svg PUBLIC "-//W3C//DTD SVG 1.1//EN" "http://www.w3.org/Graphics/SVG/1.1/DTD/svg11.dtd"><svg version="1.1" id="svg2" xmlns:rdf="http://www.w3.org/1999/02/22-rdf-syntax-ns#" xmlns:dc="http://purl.org/dc/elements/1.1/" xmlns:svg="http://www.w3.org/2000/svg" xmlns:cc="http://creativecommons.org/ns#" xmlns="http://www.w3.org/2000/svg" xmlns:xlink="http://www.w3.org/1999/xlink" x="0px" y="0px" width="850px" height="790.592px" viewBox="25 24.999 850 790.592" style="enable-background:new 25 24.999 850 790.592;" xml:space="preserve"><g id="BNackground" transform="translate(0,670.59)" style="display:none;"></g><g id="g3022" transform="matrix(8.1469128,0,0,8.1469128,-242.48759,-272.19257)"><polygon id="polygon8" style="fill:#007EE5;" points="63.524,36.479 32.833,56.518 54.054,73.512 85,54.403	"/><polygon id="polygon10" style="fill:#007EE5;" points="32.833,90.507 63.524,110.546 85,92.62 54.054,73.512	"/><polygon id="polygon12" style="fill:#007EE5;" points="85,92.62 106.476,110.546 137.167,90.507 115.946,73.512	"/><polygon id="polygon14" style="fill:#007EE5;" points="137.167,56.518 106.476,36.479 85,54.403 115.946,73.512	"/><polygon id="polygon16" style="fill:#007EE5;" points="85.063,96.477 63.524,114.35 54.307,108.332 54.307,115.078 85.063,133.521	115.819,115.078 115.819,108.332 106.602,114.35	"/></g></svg>