<?xml version="1.0" encoding="UTF-8" standalone="no"?>
<svg width="262px" height="162px" viewBox="0 0 262 162" version="1.1" xmlns="http://www.w3.org/2000/svg" xmlns:xlink="http://www.w3.org/1999/xlink">
    <!-- Generator: Sketch 3.8.3 (29802) - http://www.bohemiancoding.com/sketch -->
    <title>rifugio</title>
    <desc>Created with Sketch.</desc>
    <defs></defs>
    <g id="Page-1" stroke="none" stroke-width="1" fill="none" fill-rule="evenodd">
        <g id="rifugio">
            <g id="maglietta">
                <g id="Pelmo">
                    <g fill="#DA3331">
                        <path d="M249.2695,99.2145 L248.6445,97.9415 L248.1045,97.1945 L246.6195,96.8165 L245.3365,96.3535 C245.3365,96.3535 244.4315,95.4395 244.3035,95.5215 C244.1805,95.6035 243.4815,94.4825 243.4815,94.4825 L242.4555,92.5325 L241.6275,92.1555 L240.7245,91.3645 L239.8525,91.3605 L238.6625,89.4505 L238.1635,89.3235 L237.1405,87.1265 L236.5175,87.0815 L236.1105,86.0855 L235.4945,85.3375 L234.1275,84.9155 L234.1315,84.2415 L232.7605,82.0815 L231.8275,81.1405 L231.2695,81.7435 L230.9955,82.4585 L230.4985,82.4565 L228.1365,79.6325 L227.3615,79.5175 L226.0865,80.8355 L225.4265,80.6675 L224.8235,79.2285 L224.0025,77.5135 L223.0105,78.2825 L222.3965,79.4415 L220.9635,78.2165 L220.4725,77.2775 L219.8625,77.3295 L219.6455,76.2805 L218.9865,75.9995 L218.2745,74.2305 L217.9555,73.0695 L217.0695,72.4565 L216.7475,71.4625 L215.5295,72.1205 L215.5355,70.8515 L214.3835,69.9055 L213.1135,69.4585 L210.8535,68.4005 L208.6985,68.5015 L207.4365,67.2805 L204.6765,66.6055 L202.8615,65.0525 L202.2065,63.8315 L199.2865,62.3845 L198.3705,58.0735 L197.0525,55.8045 L195.6765,55.4665 L195.0205,53.6445 L194.3085,53.1985 L193.8085,52.8105 L192.1015,52.6365 L190.1145,51.9645 L188.0155,52.3965 L186.6315,53.3275 L184.9185,53.5405 L184.9155,54.0955 L182.8185,54.5255 L180.8265,55.5095 L179.2835,55.0605 L177.4595,55.4935 L175.1855,57.4705 L172.8005,60.3315 L171.0245,62.3645 L169.9145,63.6835 L164.6015,66.4215 L163.6015,67.4665 L159.8435,68.9915 L157.7385,69.9215 L156.7955,70.0835 L156.4635,70.9095 L155.4635,72.3415 L154.1905,72.7205 L153.4195,72.7185 L153.0845,73.5445 L151.9765,74.2575 L150.7045,75.1895 L150.6985,75.9625 L148.5395,77.7735 L147.8755,77.8805 L147.2115,78.0995 L146.9315,78.8165 L146.9235,79.9745 L145.8705,81.4055 L145.6405,83.6675 L145.5205,85.9315 L145.8315,89.5735 L144.8365,90.6755 L143.7955,89.4545 L142.9185,87.6835 L142.9335,84.6485 L142.9385,83.3805 L142.9455,82.3295 L142.2295,81.0565 L141.9145,78.4605 L142.2465,78.1875 L142.2555,75.7575 L141.4865,74.6505 L140.4445,73.9295 L139.7785,73.9255 L138.5795,71.3255 L136.4425,67.0095 L136.0665,64.6345 L135.0815,63.3595 L134.7115,60.0465 L133.8365,57.5585 L132.3535,56.0035 L130.6535,53.9005 L129.6095,52.7345 L127.9675,49.5255 L127.3585,49.4115 L126.0465,47.2515 L125.4955,47.0285 L122.8655,42.7675 L122.3185,41.3275 L120.9985,40.4415 L119.1255,39.2165 L118.0255,38.8805 L116.3185,37.8235 L113.7785,37.8125 L111.5175,36.8085 L108.0455,36.5695 L105.6705,35.7865 L103.1355,34.6715 L100.6535,34.6595 L98.3875,35.3125 L97.3845,36.7165 L96.8055,37.7885 L94.6535,37.1165 L93.1655,37.7715 L90.2395,41.9005 L90.2345,42.8925 L89.3215,43.7165 L88.1535,45.7805 L88.1455,47.4395 L86.3235,48.0075 L84.9065,49.4095 L83.0865,49.4015 L81.8435,49.3965 L81.0965,49.8045 L80.4265,50.9625 L78.5205,51.9465 L77.6085,51.9435 L77.6045,52.6895 L75.2035,53.2575 L73.7885,53.9155 L72.2935,56.2535 L68.8925,57.5345 L67.1505,57.5255 L65.4155,56.1105 L64.2645,54.9195 L63.5205,54.9155 L62.6275,57.0095 L60.0965,54.9005 L58.5475,54.8925 L57.5475,56.6555 L56.4485,56.3185 L53.5825,54.8685 L52.6945,55.8595 L50.1535,56.4005 L48.3845,55.8395 L40.3275,55.8025 L37.9005,55.7905 L35.9105,56.6655 L34.2475,57.7615 L33.4675,59.3025 L32.8895,64.8985 L32.2165,67.1385 L29.7785,69.3335 L26.4515,72.6325 L26.4385,75.3515 L24.9865,78.3645 L23.5355,81.6695 L21.5305,85.6365 L19.5305,88.1655 L18.7605,88.1635 L17.4465,85.6185 L15.0075,88.2555 L11.6935,88.2415 L10.4685,89.8905 L8.7035,91.0975 L8.6975,92.2005 L8.0265,93.3025 L6.5645,98.5955 L3.2955,105.4395 L3.1945,106.6635 C3.0075,107.8165 2.1255,110.6695 1.8935,111.9375 C2.2605,110.8475 2.8875,108.4805 2.9075,109.4785 L0.6535,119.8595 C3.5255,106.0605 3.5115,115.1465 4.2465,112.9785 L3.7885,114.8805 C4.0255,119.4875 4.6755,109.0305 5.4195,108.9765 C5.5845,109.9625 4.9995,113.3125 4.4065,116.8625 C3.9185,119.7595 3.4265,122.7905 3.3185,124.7765 C4.4455,124.6535 7.7475,117.0175 7.4455,125.3475 C8.7345,123.6815 10.4765,120.1425 12.2115,115.5525 C13.0575,115.7085 10.1535,126.4255 11.9005,121.7845 C10.1065,130.2785 9.2605,140.2185 7.4235,143.5055 C9.6725,134.2265 7.1015,149.7755 8.7315,143.9255 C8.4765,146.2785 7.2955,150.2805 7.5825,151.0505 C8.8535,146.2105 9.7115,138.3705 9.5025,135.7805 C10.6275,126.6245 11.2695,135.3745 12.4815,124.3195 C13.3535,126.5485 14.5745,127.7395 16.2435,125.9915 C15.6905,126.5665 14.3435,133.2125 14.1045,136.5605 C15.9025,130.2045 17.6535,126.6385 18.4145,128.6535 C19.6635,121.7695 19.2865,121.8105 20.6355,115.1505 C21.0025,114.0875 21.8225,111.1225 22.0075,111.6525 C20.8495,118.8025 18.8035,129.6105 19.7345,130.0715 C17.4145,141.1715 18.3265,128.3495 16.7425,139.4195 C14.6705,148.2225 12.7955,148.4275 13.4025,142.9115 C10.7775,152.2475 13.8785,144.1595 12.0045,153.4115 C12.9335,152.8105 14.1945,148.0235 15.6855,146.8105 C16.5745,142.0775 16.2935,141.2805 17.5615,137.5585 C20.4765,127.8625 17.6305,144.7965 17.8315,145.2475 C17.4595,146.3645 17.1835,146.6445 16.8265,147.6835 C16.9335,151.1095 18.3795,144.7145 19.0475,145.3625 C16.9105,158.1095 17.5615,146.5755 15.8425,154.3395 L14.7195,163.5095 C15.6625,164.9545 16.9595,153.1535 17.5575,156.6985 L16.5665,161.2595 L17.8495,158.5175 C18.7395,153.7735 19.8935,146.6205 19.0615,147.4875 C21.7545,135.2845 19.9865,145.8255 21.4555,143.6285 C23.0785,136.7005 20.9025,144.1875 22.1505,137.3025 C23.2115,130.9875 23.7375,137.4295 23.2165,142.1465 C22.8495,143.2375 22.0265,144.0485 22.8365,140.0505 C20.4615,147.0855 20.6145,154.6145 18.9805,159.4435 C19.0335,164.5975 21.2435,151.1595 21.8315,152.6055 C20.3495,155.9445 22.6945,146.8905 23.0515,143.7005 C27.9195,125.0735 21.3975,157.6285 23.3365,154.5665 C25.2815,142.4585 29.2435,135.4955 29.2435,135.4955 L26.7045,145.1615 C26.1985,150.9025 26.0665,156.6145 25.6355,160.5625 C27.0045,157.0645 26.8755,152.6265 28.0605,150.7495 C26.9915,154.9375 26.8275,158.6305 27.2075,158.5915 C27.0785,155.2555 29.3435,146.9585 30.1725,145.0175 C30.9155,144.9745 30.0565,152.8275 29.5995,154.7165 L27.6085,161.6425 C29.2425,155.7395 27.2565,164.8335 28.2645,162.3725 C29.2245,158.0875 30.9405,150.4335 32.1355,145.1035 C32.9565,143.1855 32.1725,149.2475 32.5265,148.2085 L30.8875,153.0365 C32.1805,151.3455 28.7775,165.6365 30.3365,162.6445 L31.7695,156.2885 C31.7695,157.3375 31.3365,160.2345 30.7095,162.6015 C31.7025,158.0695 32.0795,159.1035 32.6275,157.4955 L31.9145,161.7225 C32.8275,159.0215 35.0755,149.7145 34.0355,158.1145 C35.5245,147.8805 33.5605,157.9295 33.7075,153.2125 C34.6635,145.6265 35.6975,146.3125 36.0575,145.2225 C34.0075,156.0955 36.9235,146.4025 37.3875,146.6265 C36.9515,150.5855 36.8785,152.3785 36.6255,154.7455 L38.1415,147.5915 C35.7475,161.5875 39.7165,144.5445 39.4685,148.9955 C38.3845,153.2635 37.4025,158.8195 37.4235,160.9055 C38.8235,150.3645 40.6755,148.0875 41.8185,141.0175 C42.1405,144.8555 39.1415,154.2165 38.0845,161.5935 C40.0705,153.6015 38.2255,167.0235 40.4765,156.6835 C40.3475,153.3495 41.8135,150.0645 42.8095,145.5035 C43.5645,146.4975 41.8135,150.0645 41.7635,153.9155 C42.4105,152.5445 44.3845,144.6075 44.3525,141.5115 C44.4685,143.8375 46.9025,133.9845 46.3125,140.4955 C45.3495,147.0735 44.6555,143.2655 44.1395,147.9825 C45.2645,148.9055 46.7865,140.7205 45.7485,150.1555 L47.0245,146.3905 C46.3005,149.5955 45.0465,155.4035 44.6985,158.5645 C46.3085,150.6445 46.3725,156.8195 46.8135,154.9855 C48.1625,148.3375 46.0045,156.8215 47.0645,151.6105 C47.9945,149.9075 50.3185,138.7945 50.4595,143.1635 C49.0885,147.7655 48.9565,152.3745 48.0455,156.1505 C47.9775,159.0195 49.6505,148.2285 49.6015,152.0795 L48.7935,156.0685 C50.9595,157.6675 54.0525,157.5645 59.1355,141.5115 C58.2695,148.3295 58.9265,149.0585 59.2525,153.9585 C59.1365,151.6345 60.5115,147.0055 60.9635,146.2345 L60.0955,154.1145 C59.9555,158.7905 62.2285,151.5425 63.6765,147.2885 C63.5075,148.8275 63.1585,150.9295 62.8035,153.0285 C62.4805,158.2355 64.2525,148.7735 64.8085,147.0975 L64.1975,152.6795 L65.2695,147.3605 C66.4675,144.3555 67.0405,145.8395 65.3395,154.6015 C65.8875,152.9915 66.4365,151.3555 66.5965,148.7635 C66.2695,153.9845 67.9625,154.2985 69.6195,151.5565 C69.5025,149.2455 70.0405,146.5875 71.0115,141.0835 C72.8935,131.7785 70.9415,142.8785 72.3875,137.5325 C71.7595,140.9875 71.6105,144.6145 70.6015,147.0625 C69.8795,159.2865 73.7215,150.0795 75.1445,152.8235 C75.7865,151.4545 75.9615,149.8595 76.5945,147.4665 C76.0265,157.1245 79.3035,147.4705 79.8135,151.8125 C80.2475,147.8645 82.6725,136.9765 83.4155,136.9075 C85.5995,129.4075 81.7475,147.6715 81.5915,152.4155 C82.5965,148.9055 83.4275,148.0665 83.6135,148.5955 L83.3445,149.9115 C84.5305,145.8825 85.6355,143.6485 85.4765,147.3415 L85.3035,147.8315 C85.5845,148.6305 85.1635,153.5855 85.7195,153.0135 C87.2435,145.8195 87.4765,150.4685 88.9145,144.1125 C88.8215,144.9115 88.6405,145.4435 88.4725,147.0115 L89.6305,140.9375 L89.8475,144.5645 C89.2195,146.9295 88.6805,149.5875 88.1355,151.1965 C88.2735,155.5665 89.4865,145.5995 90.5825,142.3825 C92.0355,138.0995 90.8845,144.1185 90.7195,146.7515 C89.8925,149.7555 90.5175,145.2245 90.1485,146.3275 C88.8845,151.1145 90.1685,148.3725 89.5435,151.8435 C89.6395,152.0815 91.0745,144.6525 91.2695,146.2045 C91.5475,146.9745 92.8575,145.2285 91.5115,151.8745 C92.5075,148.4195 92.7905,149.1875 93.6015,146.2495 C93.4985,144.9585 93.2075,143.1425 93.9145,138.9155 C94.3725,138.1165 95.2985,136.4395 94.8535,139.3645 L94.3085,140.9745 C94.8535,139.3645 95.3535,141.5795 96.0355,135.3335 L95.0825,143.9855 C96.2525,138.9605 96.8235,139.3825 97.5525,138.3185 C96.3215,145.1225 94.5125,152.5815 95.1765,154.3725 L97.2695,147.6445 C97.8235,147.0835 97.6575,148.6245 96.8495,152.6265 C97.6355,156.7005 101.8315,134.1855 101.8845,140.4155 C99.9005,148.4055 100.1855,149.1755 100.3005,151.4845 C100.5695,150.1555 101.1095,147.4975 101.3845,147.2305 C101.9105,143.5345 100.0355,152.7865 100.6355,147.2985 C101.4285,142.2885 101.7345,144.0405 102.2735,142.4725 C100.0945,160.0795 104.9455,147.3515 105.1185,155.8765 C106.7955,146.1485 106.3965,153.1895 107.3975,149.6795 C105.4235,159.7945 108.6805,148.0405 108.0025,154.2865 L109.5885,144.2905 C109.5525,150.2305 114.0455,129.5445 112.4725,141.6245 C112.4985,144.7455 110.9455,148.8185 110.3925,150.4525 C109.1765,161.4825 114.1555,141.9895 112.5795,154.1105 C113.3875,150.1225 114.3615,143.5035 115.7285,140.0055 C115.4905,144.4155 115.6195,149.9275 115.1805,151.7245 C116.0045,149.8355 116.7195,146.6555 116.5645,150.3235 C116.0355,152.9155 115.7595,153.2085 115.3835,154.3535 C115.7035,157.1015 117.1485,152.8595 118.5295,149.3085 C117.5645,156.9485 119.6795,153.3665 119.8135,157.7495 C122.0665,148.4725 120.6015,161.8255 122.9155,149.6775 C122.6585,150.9525 122.4765,152.5735 122.3975,153.3045 C123.3845,149.8745 125.1045,142.1365 125.6485,141.6305 L124.0405,149.5525 C122.0745,159.6145 124.9115,151.7555 124.1145,156.7655 C124.9915,149.9215 124.5875,156.9625 125.7395,150.9155 L126.7245,148.4485 C127.9285,146.5055 127.5475,144.5195 128.7635,143.5855 C129.4185,143.2375 127.2525,152.8495 127.2435,151.7985 C126.8425,157.7655 128.8235,150.8765 129.5755,150.7675 C127.7865,159.2225 131.7375,144.3005 131.0435,149.5485 C133.1405,143.8965 126.8935,157.2515 129.0515,149.7885 C128.1255,155.1465 129.7685,151.0525 129.4025,154.8455 L128.1105,161.0625 C128.4105,161.4215 130.6945,154.4765 131.1585,151.8065 C131.6095,157.9545 135.4065,152.2715 136.6985,148.9805 C136.2095,149.3185 135.1855,154.1755 135.9685,151.3145 C136.6705,150.1735 138.1935,144.9395 137.4955,148.9765 C138.4265,146.5285 137.1235,153.4025 137.7215,154.1205 C137.4915,155.4565 138.9865,147.8725 138.6275,148.6895 C138.0795,158.5445 142.5885,142.9115 142.8495,149.7575 C143.1405,147.2345 140.2255,160.5275 141.1195,155.7695 C142.8725,152.7285 144.4235,150.4485 146.9025,142.7965 C146.2745,145.6055 145.8135,148.2775 145.2595,149.8165 C146.0455,149.8515 147.2345,148.4035 148.6595,142.6815 C148.6755,139.6775 147.9955,146.0735 147.6985,145.7025 C148.1685,140.0815 150.2145,134.5135 150.4425,136.1145 L150.2115,137.4505 C151.0105,137.4335 151.6765,134.0115 152.4635,134.0465 C152.2565,137.7325 151.7345,135.7455 151.2025,139.6615 C149.5355,149.6835 151.7905,146.2785 151.7285,147.4935 C152.3135,145.3415 152.8775,143.7495 153.3495,141.0365 C154.4385,138.4805 152.5465,146.9135 153.0475,146.5115 C153.0475,146.5115 157.2395,136.4875 155.9275,140.3125 C157.4065,139.2775 160.2565,127.8045 162.1765,121.7185 C162.2475,123.4275 164.1935,119.6775 164.6855,119.3275 C163.9225,124.5915 164.3925,118.9435 163.5395,123.0605 L163.0295,129.3355 C162.0455,130.0095 161.3975,138.7435 160.2395,142.5015 C161.5405,139.1855 162.4155,143.2905 163.1135,145.1145 C164.5405,133.5325 165.4635,139.8805 167.2935,129.7355 C168.8055,128.0855 166.3575,138.0605 166.3845,140.3825 C168.3395,136.6055 168.9635,139.6875 170.2835,138.7305 C170.2835,138.7305 170.0435,140.1185 169.8535,140.8025 C171.4425,137.8685 172.5265,141.2125 175.2425,132.1985 C174.8135,134.2435 174.5405,136.2475 173.9815,137.8125 C174.4025,141.6405 176.5955,124.7825 176.7255,131.1345 L175.4985,136.1485 C177.1805,131.3985 176.1945,140.8705 178.5175,133.3005 C178.0355,136.0795 177.6805,136.8965 177.2835,138.3395 C178.4995,136.3025 179.2245,137.5685 181.1755,130.8665 C180.6805,134.1425 180.0515,136.9465 179.3035,139.2085 C179.3845,143.2785 181.8385,130.3825 181.9635,133.8395 C182.1015,134.2925 181.7065,138.6615 181.5355,138.8215 C182.7295,134.4095 183.8185,134.7755 184.5475,133.1055 C184.0455,136.4175 184.1415,137.5235 183.9465,141.1425 C188.0355,141.7185 191.8585,144.2595 197.5525,135.9745 C196.3445,146.2865 195.4315,142.1895 194.5665,149.2825 C196.1505,140.5285 195.7095,146.9135 197.4735,144.1935 L197.2905,145.4825 C198.1635,143.6855 197.4155,149.3665 198.4815,146.7495 L198.8845,144.4525 C200.5355,138.8555 198.1235,156.0075 200.5115,144.8625 L199.8185,151.1895 C202.2465,141.3215 200.1705,154.5095 202.4315,146.3215 L202.0175,148.0795 C202.1975,152.6095 206.0555,137.6125 204.9685,145.6165 C206.0795,144.2635 207.3975,142.4955 208.9815,134.7885 C208.6235,137.7555 207.6415,142.4295 207.0355,145.0075 C210.8705,141.6875 213.9865,144.3185 218.7295,134.2165 C218.5615,135.8965 218.1445,137.1965 217.7435,138.8885 C221.1445,130.1935 219.5125,149.1985 224.0075,131.9645 L225.8235,124.7005 C225.7075,127.6165 224.7315,132.7325 224.5845,135.2965 C225.8085,130.5585 226.4115,134.2575 227.8055,127.8255 C227.4455,130.8065 227.0225,131.6385 226.6275,133.8005 C227.1575,135.4135 230.0405,124.9435 230.3655,127.4135 L229.5305,130.5855 C231.1835,143.7965 234.5175,154.3985 240.7545,138.8215 C242.1535,136.2125 239.3845,148.4295 239.9425,147.6225 C245.7475,134.9565 245.8895,156.7475 252.7985,136.4685 C256.1805,131.5895 261.2145,108.5775 261.2145,108.5775 C256.1145,113.6265 253.7345,110.0915 251.0915,103.1015 L250.3425,102.0605 L249.7585,100.3515 L249.2695,99.2145 Z" id="Fill-15"></path>
                        <path d="M216.1924,1.1012 C214.6714,1.5112 210.9554,3.9212 213.7474,2.0992 C216.2194,0.9042 218.0944,0.0312 216.1924,1.1012" id="Fill-17"></path>
                        <path d="M217.0518,1.0934 C213.6748,2.8644 211.9088,3.9994 207.2958,6.1204 C210.4818,4.4954 213.9978,2.6014 217.0518,1.0934" id="Fill-19"></path>
                        <path d="M184.6436,23.9586 C185.6636,23.4566 183.3036,24.7266 182.7646,25.0176 C182.4676,25.0856 179.5776,26.4626 181.3166,25.5246 C181.5916,25.4686 183.2096,24.6426 184.6436,23.9586" id="Fill-23"></path>
                        <path d="M183.291,26.3219 C180.259,27.8199 177.721,28.7339 177.27,28.7499 L183.291,26.3219 Z" id="Fill-25"></path>
                        <path d="M171.4287,33.8531 C168.9267,35.2441 167.5107,35.9171 167.5387,35.7201 C169.1147,34.9151 169.9507,34.5561 171.4287,33.8531" id="Fill-27"></path>
                        <path d="M178.3672,30.4781 C178.5032,30.5401 176.7532,31.4841 175.0332,32.4101 C177.6392,31.0971 173.2782,32.9881 178.3672,30.4781" id="Fill-29"></path>
                        <path d="M170.9316,37.6188 C171.2066,37.5618 173.7936,36.4388 170.4676,38.1868 C172.7766,36.9428 166.4546,39.8048 170.9316,37.6188" id="Fill-31"></path>
                        <path d="M176.1504,36.5797 C175.9674,36.7227 175.4284,37.0157 176.2834,36.6437 C174.9444,37.4117 172.6934,38.4427 172.3674,38.5287 L176.1504,36.5797 Z" id="Fill-33"></path>
                        <polygon id="Fill-35" points="199.8799 53.4762 198.3099 54.0932 201.3219 52.6052"></polygon>
                        <path d="M205.1064,63.4781 C207.0824,62.6561 202.3254,64.9941 201.8914,65.2401 C201.4954,65.2871 205.6354,63.4171 205.1064,63.4781" id="Fill-37"></path>
                    </g>
                    <g id="Letters" transform="translate(25.000000, 98.000000)">
                        <path d="M1.8906,3.524 L1.8906,8.88 L4.6066,8.905 C5.6596,8.905 6.4376,8.803 6.9426,8.603 C7.4466,8.405 7.8356,8.086 8.1266,7.643 C8.4026,7.206 8.5476,6.715 8.5476,6.171 C8.5476,5.644 8.4026,5.162 8.1146,4.729 C7.8306,4.299 7.4516,3.989 6.9906,3.805 C6.5266,3.619 5.7536,3.524 4.6676,3.524 L1.8906,3.524 Z M0.3186,1.982 L3.4556,1.982 C5.2056,1.982 6.3936,2.053 7.0156,2.197 C7.9496,2.411 8.7096,2.869 9.2966,3.574 C9.8826,4.28 10.1756,5.148 10.1756,6.176 C10.1756,7.036 9.9736,7.79 9.5696,8.439 C9.1656,9.091 8.5876,9.584 7.8356,9.915 C7.0876,10.249 6.0526,10.417 4.7296,10.425 L10.3986,17.743 L8.4536,17.743 L2.7826,10.425 L1.8906,10.425 L1.8906,17.743 L0.3186,17.743 L0.3186,1.982 Z" id="Fill-39" fill="#FFFFFF"></path>
                        <path d="M1.8906,3.524 L1.8906,8.88 L4.6066,8.905 C5.6596,8.905 6.4376,8.803 6.9426,8.603 C7.4466,8.405 7.8356,8.086 8.1266,7.643 C8.4026,7.206 8.5476,6.715 8.5476,6.171 C8.5476,5.644 8.4026,5.162 8.1146,4.729 C7.8306,4.299 7.4516,3.989 6.9906,3.805 C6.5266,3.619 5.7536,3.524 4.6676,3.524 L1.8906,3.524 L1.8906,3.524 Z M0.3186,1.982 L3.4556,1.982 C5.2056,1.982 6.3936,2.053 7.0156,2.197 C7.9496,2.411 8.7096,2.869 9.2966,3.574 C9.8826,4.28 10.1756,5.148 10.1756,6.176 C10.1756,7.036 9.9736,7.79 9.5696,8.439 C9.1656,9.091 8.5876,9.584 7.8356,9.915 C7.0876,10.249 6.0526,10.417 4.7296,10.425 L10.3986,17.743 L8.4536,17.743 L2.7826,10.425 L1.8906,10.425 L1.8906,17.743 L0.3186,17.743 L0.3186,1.982 L0.3186,1.982 Z" id="Stroke-41" stroke="#FFFFFF"></path>
                        <path d="M13.079,17.743 L14.579,17.743 L14.579,6.086 L13.079,6.086 L13.079,17.743 Z M13.823,1.285 C14.168,1.285 14.456,1.405 14.698,1.649 C14.94,1.892 15.062,2.185 15.062,2.528 C15.062,2.863 14.94,3.152 14.698,3.396 C14.456,3.637 14.168,3.76 13.823,3.76 C13.49,3.76 13.198,3.637 12.959,3.396 C12.716,3.152 12.596,2.863 12.596,2.528 C12.596,2.185 12.716,1.892 12.959,1.649 C13.198,1.405 13.49,1.285 13.823,1.285 L13.823,1.285 Z" id="Fill-43" fill="#FFFFFF"></path>
                        <path d="M13.079,17.743 L14.579,17.743 L14.579,6.086 L13.079,6.086 L13.079,17.743 Z M13.823,1.285 C14.168,1.285 14.456,1.405 14.698,1.649 C14.94,1.892 15.062,2.185 15.062,2.528 C15.062,2.863 14.94,3.152 14.698,3.396 C14.456,3.637 14.168,3.76 13.823,3.76 C13.49,3.76 13.198,3.637 12.959,3.396 C12.716,3.152 12.596,2.863 12.596,2.528 C12.596,2.185 12.716,1.892 12.959,1.649 C13.198,1.405 13.49,1.285 13.823,1.285 L13.823,1.285 Z" id="Stroke-45" stroke="#FFFFFF"></path>
                        <path d="M22.4961,1.5856 L22.4961,3.0546 C21.9461,2.8176 21.4751,2.6996 21.0841,2.6996 C20.7911,2.6996 20.5481,2.7566 20.3571,2.8746 C20.1581,2.9966 20.0381,3.1296 19.9911,3.2826 C19.9401,3.4376 19.9161,3.8476 19.9161,4.5116 L19.9161,6.0856 L22.3451,6.0856 L22.3451,7.3826 L19.9121,7.3826 L19.9041,17.7426 L18.4051,17.7426 L18.4051,7.3826 L16.8711,7.3826 L16.8711,6.0856 L18.4051,6.0856 L18.4051,4.2656 C18.4051,3.4286 18.4801,2.8326 18.6371,2.4746 C18.7871,2.1176 19.0481,1.8296 19.4161,1.6106 C19.7831,1.3936 20.2281,1.2846 20.7521,1.2846 C21.2381,1.2846 21.8181,1.3866 22.4961,1.5856" id="Fill-46" fill="#FFFFFF"></path>
                        <path d="M22.4961,1.5856 L22.4961,3.0546 C21.9461,2.8176 21.4751,2.6996 21.0841,2.6996 C20.7911,2.6996 20.5481,2.7566 20.3571,2.8746 C20.1581,2.9966 20.0381,3.1296 19.9911,3.2826 C19.9401,3.4376 19.9161,3.8476 19.9161,4.5116 L19.9161,6.0856 L22.3451,6.0856 L22.3451,7.3826 L19.9121,7.3826 L19.9041,17.7426 L18.4051,17.7426 L18.4051,7.3826 L16.8711,7.3826 L16.8711,6.0856 L18.4051,6.0856 L18.4051,4.2656 C18.4051,3.4286 18.4801,2.8326 18.6371,2.4746 C18.7871,2.1176 19.0481,1.8296 19.4161,1.6106 C19.7831,1.3936 20.2281,1.2846 20.7521,1.2846 C21.2381,1.2846 21.8181,1.3866 22.4961,1.5856 L22.4961,1.5856 Z" id="Stroke-47" stroke="#FFFFFF"></path>
                        <path d="M24.3936,6.0856 L25.8926,6.0856 L25.8926,11.5276 C25.8926,12.8596 25.9636,13.7726 26.1066,14.2726 C26.3236,14.9866 26.7336,15.5516 27.3386,15.9636 C27.9456,16.3786 28.6656,16.5856 29.4976,16.5856 C30.3356,16.5856 31.0436,16.3846 31.6276,15.9816 C32.2126,15.5776 32.6156,15.0466 32.8356,14.3916 C32.9866,13.9386 33.0646,12.9876 33.0646,11.5276 L33.0646,6.0856 L34.5926,6.0856 L34.5926,11.8066 C34.5926,13.4136 34.4066,14.6256 34.0316,15.4396 C33.6576,16.2536 33.0916,16.8936 32.3396,17.3516 C31.5856,17.8126 30.6396,18.0456 29.5066,18.0456 C28.3716,18.0456 27.4196,17.8126 26.6596,17.3516 C25.8976,16.8936 25.3336,16.2476 24.9586,15.4236 C24.5806,14.5976 24.3936,13.3566 24.3936,11.6996 L24.3936,6.0856 Z" id="Fill-48" fill="#FFFFFF"></path>
                        <path d="M24.3936,6.0856 L25.8926,6.0856 L25.8926,11.5276 C25.8926,12.8596 25.9636,13.7726 26.1066,14.2726 C26.3236,14.9866 26.7336,15.5516 27.3386,15.9636 C27.9456,16.3786 28.6656,16.5856 29.4976,16.5856 C30.3356,16.5856 31.0436,16.3846 31.6276,15.9816 C32.2126,15.5776 32.6156,15.0466 32.8356,14.3916 C32.9866,13.9386 33.0646,12.9876 33.0646,11.5276 L33.0646,6.0856 L34.5926,6.0856 L34.5926,11.8066 C34.5926,13.4136 34.4066,14.6256 34.0316,15.4396 C33.6576,16.2536 33.0916,16.8936 32.3396,17.3516 C31.5856,17.8126 30.6396,18.0456 29.5066,18.0456 C28.3716,18.0456 27.4196,17.8126 26.6596,17.3516 C25.8976,16.8936 25.3336,16.2476 24.9586,15.4236 C24.5806,14.5976 24.3936,13.3566 24.3936,11.6996 L24.3936,6.0856 L24.3936,6.0856 Z" id="Stroke-49" stroke="#FFFFFF"></path>
                        <path d="M43.5527,7.233 C42.6987,7.233 41.9157,7.436 41.1837,7.849 C40.4557,8.259 39.8847,8.826 39.4687,9.551 C39.0577,10.276 38.8487,11.06 38.8487,11.905 C38.8487,13.181 39.2787,14.24 40.1367,15.076 C40.9907,15.913 42.1007,16.33 43.4687,16.33 C44.8477,16.33 45.9557,15.916 46.7927,15.087 C47.6327,14.256 48.0527,13.169 48.0527,11.818 C48.0527,10.938 47.8617,10.158 47.4737,9.466 C47.0877,8.777 46.5427,8.234 45.8357,7.831 C45.1277,7.431 44.3697,7.233 43.5527,7.233 L43.5527,7.233 Z M47.9777,6.086 L49.4787,6.086 L49.4787,15.377 C49.4787,17.011 49.3337,18.207 49.0477,18.964 C48.6567,20.036 47.9777,20.86 47.0017,21.44 C46.0307,22.02 44.8647,22.308 43.4997,22.308 C42.4977,22.308 41.6007,22.17 40.8047,21.884 C40.0087,21.601 39.3597,21.222 38.8627,20.744 C38.3587,20.268 37.8977,19.571 37.4777,18.654 L39.1087,18.654 C39.5507,19.426 40.1217,19.999 40.8237,20.368 C41.5217,20.742 42.3927,20.927 43.4277,20.927 C44.4497,20.927 45.3187,20.735 46.0197,20.353 C46.7267,19.974 47.2257,19.494 47.5307,18.92 C47.8267,18.343 47.9777,17.412 47.9777,16.126 L47.9777,15.525 C47.4117,16.24 46.7207,16.79 45.9057,17.171 C45.0917,17.55 44.2267,17.743 43.3127,17.743 C42.2407,17.743 41.2337,17.477 40.2887,16.944 C39.3437,16.415 38.6137,15.697 38.0977,14.799 C37.5837,13.899 37.3277,12.907 37.3277,11.831 C37.3277,10.75 37.5957,9.744 38.1347,8.811 C38.6677,7.881 39.4097,7.142 40.3567,6.6 C41.3037,6.055 42.3047,5.787 43.3537,5.787 C44.2267,5.787 45.0397,5.966 45.7957,6.328 C46.5477,6.685 47.2747,7.281 47.9777,8.111 L47.9777,6.086 Z" id="Fill-50" fill="#FFFFFF"></path>
                        <path d="M43.5527,7.233 C42.6987,7.233 41.9157,7.436 41.1837,7.849 C40.4557,8.259 39.8847,8.826 39.4687,9.551 C39.0577,10.276 38.8487,11.06 38.8487,11.905 C38.8487,13.181 39.2787,14.24 40.1367,15.076 C40.9907,15.913 42.1007,16.33 43.4687,16.33 C44.8477,16.33 45.9557,15.916 46.7927,15.087 C47.6327,14.256 48.0527,13.169 48.0527,11.818 C48.0527,10.938 47.8617,10.158 47.4737,9.466 C47.0877,8.777 46.5427,8.234 45.8357,7.831 C45.1277,7.431 44.3697,7.233 43.5527,7.233 L43.5527,7.233 Z M47.9777,6.086 L49.4787,6.086 L49.4787,15.377 C49.4787,17.011 49.3337,18.207 49.0477,18.964 C48.6567,20.036 47.9777,20.86 47.0017,21.44 C46.0307,22.02 44.8647,22.308 43.4997,22.308 C42.4977,22.308 41.6007,22.17 40.8047,21.884 C40.0087,21.601 39.3597,21.222 38.8627,20.744 C38.3587,20.268 37.8977,19.571 37.4777,18.654 L39.1087,18.654 C39.5507,19.426 40.1217,19.999 40.8237,20.368 C41.5217,20.742 42.3927,20.927 43.4277,20.927 C44.4497,20.927 45.3187,20.735 46.0197,20.353 C46.7267,19.974 47.2257,19.494 47.5307,18.92 C47.8267,18.343 47.9777,17.412 47.9777,16.126 L47.9777,15.525 C47.4117,16.24 46.7207,16.79 45.9057,17.171 C45.0917,17.55 44.2267,17.743 43.3127,17.743 C42.2407,17.743 41.2337,17.477 40.2887,16.944 C39.3437,16.415 38.6137,15.697 38.0977,14.799 C37.5837,13.899 37.3277,12.907 37.3277,11.831 C37.3277,10.75 37.5957,9.744 38.1347,8.811 C38.6677,7.881 39.4097,7.142 40.3567,6.6 C41.3037,6.055 42.3047,5.787 43.3537,5.787 C44.2267,5.787 45.0397,5.966 45.7957,6.328 C46.5477,6.685 47.2747,7.281 47.9777,8.111 L47.9777,6.086 L47.9777,6.086 Z" id="Stroke-51" stroke="#FFFFFF"></path>
                        <path d="M52.469,17.743 L53.969,17.743 L53.969,6.086 L52.469,6.086 L52.469,17.743 Z M53.213,1.285 C53.553,1.285 53.845,1.405 54.087,1.649 C54.331,1.892 54.454,2.185 54.454,2.528 C54.454,2.863 54.331,3.152 54.087,3.396 C53.845,3.637 53.553,3.76 53.213,3.76 C52.88,3.76 52.588,3.637 52.346,3.396 C52.106,3.152 51.989,2.863 51.989,2.528 C51.989,2.185 52.106,1.892 52.346,1.649 C52.588,1.405 52.88,1.285 53.213,1.285 L53.213,1.285 Z" id="Fill-52" fill="#FFFFFF"></path>
                        <path d="M52.469,17.743 L53.969,17.743 L53.969,6.086 L52.469,6.086 L52.469,17.743 Z M53.213,1.285 C53.553,1.285 53.845,1.405 54.087,1.649 C54.331,1.892 54.454,2.185 54.454,2.528 C54.454,2.863 54.331,3.152 54.087,3.396 C53.845,3.637 53.553,3.76 53.213,3.76 C52.88,3.76 52.588,3.637 52.346,3.396 C52.106,3.152 51.989,2.863 51.989,2.528 C51.989,2.185 52.106,1.892 52.346,1.649 C52.588,1.405 52.88,1.285 53.213,1.285 L53.213,1.285 Z" id="Stroke-53" stroke="#FFFFFF"></path>
                        <path d="M62.6006,7.2545 C61.3496,7.2545 60.2826,7.7135 59.3836,8.6345 C58.4866,9.5575 58.0426,10.6715 58.0426,11.9795 C58.0426,12.8215 58.2466,13.6085 58.6546,14.3375 C59.0616,15.0655 59.6136,15.6275 60.3096,16.0255 C61.0036,16.4195 61.7646,16.6175 62.6006,16.6175 C63.4316,16.6175 64.1916,16.4195 64.8906,16.0255 C65.5856,15.6275 66.1356,15.0655 66.5436,14.3375 C66.9546,13.6085 67.1596,12.8215 67.1596,11.9795 C67.1596,10.6715 66.7096,9.5575 65.8086,8.6345 C64.9076,7.7135 63.8356,7.2545 62.6006,7.2545 M62.6036,5.7865 C64.4026,5.7865 65.8876,6.4375 67.0706,7.7345 C68.1446,8.9215 68.6776,10.3245 68.6776,11.9475 C68.6776,13.5745 68.1136,14.9985 66.9776,16.2165 C65.8426,17.4345 64.3876,18.0455 62.6036,18.0455 C60.8136,18.0455 59.3536,17.4345 58.2206,16.2165 C57.0856,14.9985 56.5166,13.5745 56.5166,11.9475 C56.5166,10.3305 57.0566,8.9325 58.1306,7.7445 C59.3086,6.4405 60.8006,5.7865 62.6036,5.7865" id="Fill-54" fill="#FFFFFF"></path>
                        <path d="M62.6006,7.2545 C61.3496,7.2545 60.2826,7.7135 59.3836,8.6345 C58.4866,9.5575 58.0426,10.6715 58.0426,11.9795 C58.0426,12.8215 58.2466,13.6085 58.6546,14.3375 C59.0616,15.0655 59.6136,15.6275 60.3096,16.0255 C61.0036,16.4195 61.7646,16.6175 62.6006,16.6175 C63.4316,16.6175 64.1916,16.4195 64.8906,16.0255 C65.5856,15.6275 66.1356,15.0655 66.5436,14.3375 C66.9546,13.6085 67.1596,12.8215 67.1596,11.9795 C67.1596,10.6715 66.7096,9.5575 65.8086,8.6345 C64.9076,7.7135 63.8356,7.2545 62.6006,7.2545 L62.6006,7.2545 Z M62.6036,5.7865 C64.4026,5.7865 65.8876,6.4375 67.0706,7.7345 C68.1446,8.9215 68.6776,10.3245 68.6776,11.9475 C68.6776,13.5745 68.1136,14.9985 66.9776,16.2165 C65.8426,17.4345 64.3876,18.0455 62.6036,18.0455 C60.8136,18.0455 59.3536,17.4345 58.2206,16.2165 C57.0856,14.9985 56.5166,13.5745 56.5166,11.9475 C56.5166,10.3305 57.0566,8.9325 58.1306,7.7445 C59.3086,6.4405 60.8006,5.7865 62.6036,5.7865 L62.6036,5.7865 Z" id="Stroke-55" stroke="#FFFFFF"></path>
                        <path d="M92.459,4.9078 L91.213,5.8618 C90.529,4.9678 89.703,4.2908 88.742,3.8288 C87.785,3.3688 86.727,3.1398 85.579,3.1398 C84.322,3.1398 83.154,3.4388 82.086,4.0448 C81.013,4.6488 80.18,5.4598 79.593,6.4768 C79.003,7.4938 78.709,8.6398 78.709,9.9098 C78.709,11.8328 79.369,13.4358 80.686,14.7208 C82.004,16.0068 83.666,16.6508 85.676,16.6508 C87.88,16.6508 89.73,15.7868 91.213,14.0588 L92.459,15.0018 C91.668,16.0008 90.69,16.7748 89.513,17.3198 C88.339,17.8658 87.026,18.1398 85.579,18.1398 C82.823,18.1398 80.645,17.2208 79.053,15.3868 C77.716,13.8348 77.049,11.9658 77.049,9.7708 C77.049,7.4668 77.858,5.5228 79.475,3.9458 C81.092,2.3748 83.119,1.5858 85.556,1.5858 C87.026,1.5858 88.356,1.8758 89.543,2.4578 C90.727,3.0408 91.698,3.8588 92.459,4.9078" id="Fill-56" fill="#FFFFFF"></path>
                        <path d="M92.459,4.9078 L91.213,5.8618 C90.529,4.9678 89.703,4.2908 88.742,3.8288 C87.785,3.3688 86.727,3.1398 85.579,3.1398 C84.322,3.1398 83.154,3.4388 82.086,4.0448 C81.013,4.6488 80.18,5.4598 79.593,6.4768 C79.003,7.4938 78.709,8.6398 78.709,9.9098 C78.709,11.8328 79.369,13.4358 80.686,14.7208 C82.004,16.0068 83.666,16.6508 85.676,16.6508 C87.88,16.6508 89.73,15.7868 91.213,14.0588 L92.459,15.0018 C91.668,16.0008 90.69,16.7748 89.513,17.3198 C88.339,17.8658 87.026,18.1398 85.579,18.1398 C82.823,18.1398 80.645,17.2208 79.053,15.3868 C77.716,13.8348 77.049,11.9658 77.049,9.7708 C77.049,7.4668 77.858,5.5228 79.475,3.9458 C81.092,2.3748 83.119,1.5858 85.556,1.5858 C87.026,1.5858 88.356,1.8758 89.543,2.4578 C90.727,3.0408 91.698,3.8588 92.459,4.9078 L92.459,4.9078 Z" id="Stroke-57" stroke="#FFFFFF"></path>
                        <path d="M95.146,17.743 L96.645,17.743 L96.645,6.086 L95.146,6.086 L95.146,17.743 Z M95.89,1.285 C96.232,1.285 96.526,1.405 96.764,1.649 C97.006,1.892 97.127,2.185 97.127,2.528 C97.127,2.863 97.006,3.152 96.764,3.396 C96.526,3.637 96.232,3.76 95.89,3.76 C95.561,3.76 95.268,3.637 95.029,3.396 C94.786,3.152 94.663,2.863 94.663,2.528 C94.663,2.185 94.786,1.892 95.029,1.649 C95.268,1.405 95.561,1.285 95.89,1.285 L95.89,1.285 Z" id="Fill-58" fill="#FFFFFF"></path>
                        <path d="M95.146,17.743 L96.645,17.743 L96.645,6.086 L95.146,6.086 L95.146,17.743 Z M95.89,1.285 C96.232,1.285 96.526,1.405 96.764,1.649 C97.006,1.892 97.127,2.185 97.127,2.528 C97.127,2.863 97.006,3.152 96.764,3.396 C96.526,3.637 96.232,3.76 95.89,3.76 C95.561,3.76 95.268,3.637 95.029,3.396 C94.786,3.152 94.663,2.863 94.663,2.528 C94.663,2.185 94.786,1.892 95.029,1.649 C95.268,1.405 95.561,1.285 95.89,1.285 L95.89,1.285 Z" id="Stroke-59" stroke="#FFFFFF"></path>
                        <polygon id="Fill-60" fill="#FFFFFF" points="101.0703 1.7584 102.5723 1.7584 102.5723 6.0854 104.9473 6.0854 104.9473 7.3824 102.5723 7.3824 102.5723 17.7424 101.0703 17.7424 101.0703 7.3824 99.0263 7.3824 99.0263 6.0854 101.0703 6.0854"></polygon>
                        <polygon id="Stroke-61" stroke="#FFFFFF" points="101.0703 1.7584 102.5723 1.7584 102.5723 6.0854 104.9473 6.0854 104.9473 7.3824 102.5723 7.3824 102.5723 17.7424 101.0703 17.7424 101.0703 7.3824 99.0263 7.3824 99.0263 6.0854 101.0703 6.0854"></polygon>
                        <polygon id="Fill-62" fill="#FFFFFF" points="108.5088 1.7584 110.0078 1.7584 110.0078 6.0854 112.3878 6.0854 112.3878 7.3824 110.0078 7.3824 110.0078 17.7424 108.5088 17.7424 108.5088 7.3824 106.4598 7.3824 106.4598 6.0854 108.5088 6.0854"></polygon>
                        <polygon id="Stroke-63" stroke="#FFFFFF" points="108.5088 1.7584 110.0078 1.7584 110.0078 6.0854 112.3878 6.0854 112.3878 7.3824 110.0078 7.3824 110.0078 17.7424 108.5088 17.7424 108.5088 7.3824 106.4598 7.3824 106.4598 6.0854 108.5088 6.0854"></polygon>
                        <path d="M119.8008,0.6207 L122.1368,3.9217 L120.6578,3.9217 L117.4978,0.6207 L119.8008,0.6207 Z M120.2558,7.2327 C119.4248,7.2327 118.6538,7.4357 117.9458,7.8467 C117.2378,8.2597 116.6778,8.8357 116.2608,9.5777 C115.8408,10.3187 115.6348,11.1007 115.6348,11.9297 C115.6348,12.7527 115.8408,13.5367 116.2678,14.2857 C116.6858,15.0357 117.2498,15.6167 117.9608,16.0357 C118.6678,16.4537 119.4328,16.6607 120.2438,16.6607 C121.0668,16.6607 121.8408,16.4537 122.5798,16.0417 C123.3148,15.6277 123.8798,15.0667 124.2788,14.3587 C124.6728,13.6547 124.8708,12.8597 124.8708,11.9727 C124.8708,10.6267 124.4278,9.4967 123.5398,8.5927 C122.6498,7.6857 121.5568,7.2327 120.2558,7.2327 L120.2558,7.2327 Z M126.2518,6.0857 L126.2518,17.7427 L124.7738,17.7427 L124.7738,15.7417 C124.1458,16.5037 123.4418,17.0797 122.6578,17.4657 C121.8768,17.8487 121.0198,18.0457 120.0908,18.0457 C118.4398,18.0457 117.0338,17.4447 115.8628,16.2477 C114.6948,15.0527 114.1138,13.5977 114.1138,11.8847 C114.1138,10.2057 114.7028,8.7687 115.8808,7.5747 C117.0558,6.3817 118.4788,5.7867 120.1318,5.7867 C121.0918,5.7867 121.9588,5.9897 122.7338,6.3967 C123.5068,6.8027 124.1888,7.4147 124.7738,8.2277 L124.7738,6.0857 L126.2518,6.0857 Z" id="Fill-64" fill="#FFFFFF"></path>
                        <path d="M119.8008,0.6207 L122.1368,3.9217 L120.6578,3.9217 L117.4978,0.6207 L119.8008,0.6207 L119.8008,0.6207 Z M120.2558,7.2327 C119.4248,7.2327 118.6538,7.4357 117.9458,7.8467 C117.2378,8.2597 116.6778,8.8357 116.2608,9.5777 C115.8408,10.3187 115.6348,11.1007 115.6348,11.9297 C115.6348,12.7527 115.8408,13.5367 116.2678,14.2857 C116.6858,15.0357 117.2498,15.6167 117.9608,16.0357 C118.6678,16.4537 119.4328,16.6607 120.2438,16.6607 C121.0668,16.6607 121.8408,16.4537 122.5798,16.0417 C123.3148,15.6277 123.8798,15.0667 124.2788,14.3587 C124.6728,13.6547 124.8708,12.8597 124.8708,11.9727 C124.8708,10.6267 124.4278,9.4967 123.5398,8.5927 C122.6498,7.6857 121.5568,7.2327 120.2558,7.2327 L120.2558,7.2327 Z M126.2518,6.0857 L126.2518,17.7427 L124.7738,17.7427 L124.7738,15.7417 C124.1458,16.5037 123.4418,17.0797 122.6578,17.4657 C121.8768,17.8487 121.0198,18.0457 120.0908,18.0457 C118.4398,18.0457 117.0338,17.4447 115.8628,16.2477 C114.6948,15.0527 114.1138,13.5977 114.1138,11.8847 C114.1138,10.2057 114.7028,8.7687 115.8808,7.5747 C117.0558,6.3817 118.4788,5.7867 120.1318,5.7867 C121.0918,5.7867 121.9588,5.9897 122.7338,6.3967 C123.5068,6.8027 124.1888,7.4147 124.7738,8.2277 L124.7738,6.0857 L126.2518,6.0857 L126.2518,6.0857 Z" id="Stroke-65" stroke="#FFFFFF"></path>
                        <path d="M141.3447,7.233 C140.5087,7.233 139.7387,7.436 139.0317,7.846 C138.3237,8.259 137.7647,8.836 137.3447,9.578 C136.9317,10.319 136.7207,11.101 136.7207,11.929 C136.7207,12.753 136.9317,13.537 137.3517,14.286 C137.7737,15.036 138.3387,15.617 139.0477,16.036 C139.7597,16.454 140.5207,16.661 141.3337,16.661 C142.1547,16.661 142.9317,16.454 143.6677,16.042 C144.4057,15.628 144.9687,15.067 145.3657,14.359 C145.7577,13.655 145.9587,12.86 145.9587,11.972 C145.9587,10.627 145.5157,9.497 144.6247,8.592 C143.7377,7.686 142.6457,7.233 141.3447,7.233 L141.3447,7.233 Z M147.3417,1.586 L147.3417,17.743 L145.8617,17.743 L145.8617,15.742 C145.2337,16.504 144.5277,17.08 143.7437,17.465 C142.9607,17.848 142.1097,18.046 141.1807,18.046 C139.5307,18.046 138.1187,17.445 136.9497,16.248 C135.7827,15.052 135.2027,13.597 135.2027,11.884 C135.2027,10.206 135.7907,8.769 136.9677,7.575 C138.1457,6.381 139.5627,5.787 141.2237,5.787 C142.1777,5.787 143.0447,5.99 143.8177,6.397 C144.5977,6.802 145.2727,7.415 145.8617,8.228 L145.8617,1.586 L147.3417,1.586 Z" id="Fill-66" fill="#FFFFFF"></path>
                        <path d="M141.3447,7.233 C140.5087,7.233 139.7387,7.436 139.0317,7.846 C138.3237,8.259 137.7647,8.836 137.3447,9.578 C136.9317,10.319 136.7207,11.101 136.7207,11.929 C136.7207,12.753 136.9317,13.537 137.3517,14.286 C137.7737,15.036 138.3387,15.617 139.0477,16.036 C139.7597,16.454 140.5207,16.661 141.3337,16.661 C142.1547,16.661 142.9317,16.454 143.6677,16.042 C144.4057,15.628 144.9687,15.067 145.3657,14.359 C145.7577,13.655 145.9587,12.86 145.9587,11.972 C145.9587,10.627 145.5157,9.497 144.6247,8.592 C143.7377,7.686 142.6457,7.233 141.3447,7.233 L141.3447,7.233 Z M147.3417,1.586 L147.3417,17.743 L145.8617,17.743 L145.8617,15.742 C145.2337,16.504 144.5277,17.08 143.7437,17.465 C142.9607,17.848 142.1097,18.046 141.1807,18.046 C139.5307,18.046 138.1187,17.445 136.9497,16.248 C135.7827,15.052 135.2027,13.597 135.2027,11.884 C135.2027,10.206 135.7907,8.769 136.9677,7.575 C138.1457,6.381 139.5627,5.787 141.2237,5.787 C142.1777,5.787 143.0447,5.99 143.8177,6.397 C144.5977,6.802 145.2727,7.415 145.8617,8.228 L145.8617,1.586 L147.3417,1.586 L147.3417,1.586 Z" id="Stroke-67" stroke="#FFFFFF"></path>
                        <path d="M150.514,17.743 L152.013,17.743 L152.013,6.086 L150.514,6.086 L150.514,17.743 Z M151.257,1.285 C151.602,1.285 151.89,1.405 152.133,1.649 C152.375,1.892 152.495,2.185 152.495,2.528 C152.495,2.863 152.375,3.152 152.133,3.396 C151.89,3.637 151.602,3.76 151.257,3.76 C150.923,3.76 150.635,3.637 150.394,3.396 C150.149,3.152 150.03,2.863 150.03,2.528 C150.03,2.185 150.149,1.892 150.394,1.649 C150.635,1.405 150.923,1.285 151.257,1.285 L151.257,1.285 Z" id="Fill-68" fill="#FFFFFF"></path>
                        <path d="M150.514,17.743 L152.013,17.743 L152.013,6.086 L150.514,6.086 L150.514,17.743 Z M151.257,1.285 C151.602,1.285 151.89,1.405 152.133,1.649 C152.375,1.892 152.495,2.185 152.495,2.528 C152.495,2.863 152.375,3.152 152.133,3.396 C151.89,3.637 151.602,3.76 151.257,3.76 C150.923,3.76 150.635,3.637 150.394,3.396 C150.149,3.152 150.03,2.863 150.03,2.528 C150.03,2.185 150.149,1.892 150.394,1.649 C150.635,1.405 150.923,1.285 151.257,1.285 L151.257,1.285 Z" id="Stroke-69" stroke="#FFFFFF"></path>
                        <polygon id="Fill-70" fill="#FFFFFF" points="161.4541 1.9821 169.3491 1.9821 169.3491 3.5241 163.0251 3.5241 163.0251 8.4641 169.3491 8.4641 169.3491 10.0081 163.0251 10.0081 163.0251 17.7431 161.4541 17.7431"></polygon>
                        <polygon id="Stroke-71" stroke="#FFFFFF" points="161.4541 1.9821 169.3491 1.9821 169.3491 3.5241 163.0251 3.5241 163.0251 8.4641 169.3491 8.4641 169.3491 10.0081 163.0251 10.0081 163.0251 17.7431 161.4541 17.7431"></polygon>
                        <path d="M171.619,17.743 L173.119,17.743 L173.119,6.086 L171.619,6.086 L171.619,17.743 Z M172.363,1.285 C172.706,1.285 173,1.405 173.238,1.649 C173.482,1.892 173.604,2.185 173.604,2.528 C173.604,2.863 173.482,3.152 173.238,3.396 C173,3.637 172.706,3.76 172.363,3.76 C172.03,3.76 171.743,3.637 171.5,3.396 C171.262,3.152 171.139,2.863 171.139,2.528 C171.139,2.185 171.262,1.892 171.5,1.649 C171.743,1.405 172.03,1.285 172.363,1.285 L172.363,1.285 Z" id="Fill-72" fill="#FFFFFF"></path>
                        <path d="M171.619,17.743 L173.119,17.743 L173.119,6.086 L171.619,6.086 L171.619,17.743 Z M172.363,1.285 C172.706,1.285 173,1.405 173.238,1.649 C173.482,1.892 173.604,2.185 173.604,2.528 C173.604,2.863 173.482,3.152 173.238,3.396 C173,3.637 172.706,3.76 172.363,3.76 C172.03,3.76 171.743,3.637 171.5,3.396 C171.262,3.152 171.139,2.863 171.139,2.528 C171.139,2.185 171.262,1.892 171.5,1.649 C171.743,1.405 172.03,1.285 172.363,1.285 L172.363,1.285 Z" id="Stroke-73" stroke="#FFFFFF"></path>
                        <path d="M176.0479,6.0856 L177.5479,6.0856 L177.5479,11.5276 C177.5479,12.8596 177.6169,13.7726 177.7619,14.2726 C177.9759,14.9866 178.3849,15.5516 178.9909,15.9636 C179.5939,16.3786 180.3169,16.5856 181.1529,16.5856 C181.9889,16.5856 182.7019,16.3846 183.2809,15.9816 C183.8689,15.5776 184.2689,15.0466 184.4889,14.3916 C184.6409,13.9386 184.7129,12.9876 184.7129,11.5276 L184.7129,6.0856 L186.2469,6.0856 L186.2469,11.8066 C186.2469,13.4136 186.0619,14.6256 185.6839,15.4396 C185.3129,16.2536 184.7469,16.8936 183.9909,17.3516 C183.2379,17.8126 182.2909,18.0456 181.1579,18.0456 C180.0209,18.0456 179.0729,17.8126 178.3139,17.3516 C177.5529,16.8936 176.9819,16.2476 176.6099,15.4236 C176.2349,14.5976 176.0479,13.3566 176.0479,11.6996 L176.0479,6.0856 Z" id="Fill-74" fill="#FFFFFF"></path>
                        <path d="M176.0479,6.0856 L177.5479,6.0856 L177.5479,11.5276 C177.5479,12.8596 177.6169,13.7726 177.7619,14.2726 C177.9759,14.9866 178.3849,15.5516 178.9909,15.9636 C179.5939,16.3786 180.3169,16.5856 181.1529,16.5856 C181.9889,16.5856 182.7019,16.3846 183.2809,15.9816 C183.8689,15.5776 184.2689,15.0466 184.4889,14.3916 C184.6409,13.9386 184.7129,12.9876 184.7129,11.5276 L184.7129,6.0856 L186.2469,6.0856 L186.2469,11.8066 C186.2469,13.4136 186.0619,14.6256 185.6839,15.4396 C185.3129,16.2536 184.7469,16.8936 183.9909,17.3516 C183.2379,17.8126 182.2909,18.0456 181.1579,18.0456 C180.0209,18.0456 179.0729,17.8126 178.3139,17.3516 C177.5529,16.8936 176.9819,16.2476 176.6099,15.4236 C176.2349,14.5976 176.0479,13.3566 176.0479,11.6996 L176.0479,6.0856 L176.0479,6.0856 Z" id="Stroke-75" stroke="#FFFFFF"></path>
                        <path d="M189.5654,6.0856 L191.0684,6.0856 L191.0684,8.0976 C191.5914,7.3566 192.1274,6.8156 192.6794,6.4716 C193.4374,6.0126 194.2334,5.7866 195.0704,5.7866 C195.6354,5.7866 196.1724,5.8956 196.6774,6.1186 C197.1854,6.3386 197.6044,6.6356 197.9234,7.0016 C198.2444,7.3676 198.5254,7.8956 198.7614,8.5826 C199.2564,7.6696 199.8834,6.9716 200.6324,6.4966 C201.3794,6.0236 202.1854,5.7866 203.0474,5.7866 C203.8534,5.7866 204.5614,5.9896 205.1794,6.3976 C205.7964,6.8026 206.2524,7.3706 206.5524,8.0976 C206.8534,8.8306 207.0024,9.9196 207.0024,11.3796 L207.0024,17.7426 L205.4704,17.7426 L205.4704,11.3796 C205.4704,10.1266 205.3794,9.2706 205.2024,8.8006 C205.0214,8.3346 204.7224,7.9576 204.2904,7.6716 C203.8624,7.3856 203.3474,7.2426 202.7474,7.2426 C202.0214,7.2426 201.3584,7.4566 200.7544,7.8876 C200.1534,8.3146 199.7124,8.8856 199.4374,9.6006 C199.1594,10.3136 199.0214,11.5076 199.0214,13.1796 L199.0214,17.7426 L197.5214,17.7426 L197.5214,11.7736 C197.5214,10.3676 197.4314,9.4116 197.2564,8.9106 C197.0824,8.4046 196.7774,8.0006 196.3404,7.6966 C195.9074,7.3936 195.3844,7.2426 194.7874,7.2426 C194.0934,7.2426 193.4454,7.4516 192.8404,7.8686 C192.2384,8.2886 191.7934,8.8486 191.5034,9.5576 C191.2114,10.2656 191.0684,11.3476 191.0684,12.8036 L191.0684,17.7426 L189.5654,17.7426 L189.5654,6.0856 Z" id="Fill-76" fill="#FFFFFF"></path>
                        <path d="M189.5654,6.0856 L191.0684,6.0856 L191.0684,8.0976 C191.5914,7.3566 192.1274,6.8156 192.6794,6.4716 C193.4374,6.0126 194.2334,5.7866 195.0704,5.7866 C195.6354,5.7866 196.1724,5.8956 196.6774,6.1186 C197.1854,6.3386 197.6044,6.6356 197.9234,7.0016 C198.2444,7.3676 198.5254,7.8956 198.7614,8.5826 C199.2564,7.6696 199.8834,6.9716 200.6324,6.4966 C201.3794,6.0236 202.1854,5.7866 203.0474,5.7866 C203.8534,5.7866 204.5614,5.9896 205.1794,6.3976 C205.7964,6.8026 206.2524,7.3706 206.5524,8.0976 C206.8534,8.8306 207.0024,9.9196 207.0024,11.3796 L207.0024,17.7426 L205.4704,17.7426 L205.4704,11.3796 C205.4704,10.1266 205.3794,9.2706 205.2024,8.8006 C205.0214,8.3346 204.7224,7.9576 204.2904,7.6716 C203.8624,7.3856 203.3474,7.2426 202.7474,7.2426 C202.0214,7.2426 201.3584,7.4566 200.7544,7.8876 C200.1534,8.3146 199.7124,8.8856 199.4374,9.6006 C199.1594,10.3136 199.0214,11.5076 199.0214,13.1796 L199.0214,17.7426 L197.5214,17.7426 L197.5214,11.7736 C197.5214,10.3676 197.4314,9.4116 197.2564,8.9106 C197.0824,8.4046 196.7774,8.0006 196.3404,7.6966 C195.9074,7.3936 195.3844,7.2426 194.7874,7.2426 C194.0934,7.2426 193.4454,7.4516 192.8404,7.8686 C192.2384,8.2886 191.7934,8.8486 191.5034,9.5576 C191.2114,10.2656 191.0684,11.3476 191.0684,12.8036 L191.0684,17.7426 L189.5654,17.7426 L189.5654,6.0856 L189.5654,6.0856 Z" id="Stroke-77" stroke="#FFFFFF"></path>
                        <path d="M219.9775,10.734 C219.7795,9.936 219.4865,9.296 219.1055,8.818 C218.7205,8.339 218.2155,7.953 217.5835,7.66 C216.9555,7.368 216.2945,7.222 215.6005,7.222 C214.4555,7.222 213.4745,7.589 212.6535,8.326 C212.0475,8.862 211.5975,9.664 211.2855,10.734 L219.9775,10.734 Z M219.9775,13.875 L221.2385,14.54 C220.8285,15.354 220.3495,16.009 219.8045,16.511 C219.2615,17.011 218.6495,17.39 217.9725,17.652 C217.2925,17.913 216.5245,18.046 215.6655,18.046 C213.7635,18.046 212.2785,17.421 211.2035,16.174 C210.1315,14.927 209.5955,13.516 209.5955,11.948 C209.5955,10.468 210.0515,9.151 210.9585,7.994 C212.1065,6.519 213.6485,5.787 215.5805,5.787 C217.5705,5.787 219.1535,6.541 220.3405,8.047 C221.1855,9.109 221.6145,10.44 221.6275,12.034 L211.1385,12.034 C211.1675,13.386 211.6005,14.497 212.4375,15.364 C213.2745,16.228 214.3085,16.661 215.5395,16.661 C216.1315,16.661 216.7085,16.557 217.2695,16.351 C217.8335,16.144 218.3085,15.873 218.7035,15.529 C219.0965,15.189 219.5215,14.638 219.9775,13.875 L219.9775,13.875 Z" id="Fill-78" fill="#FFFFFF"></path>
                        <path d="M219.9775,10.734 C219.7795,9.936 219.4865,9.296 219.1055,8.818 C218.7205,8.339 218.2155,7.953 217.5835,7.66 C216.9555,7.368 216.2945,7.222 215.6005,7.222 C214.4555,7.222 213.4745,7.589 212.6535,8.326 C212.0475,8.862 211.5975,9.664 211.2855,10.734 L219.9775,10.734 L219.9775,10.734 Z M219.9775,13.875 L221.2385,14.54 C220.8285,15.354 220.3495,16.009 219.8045,16.511 C219.2615,17.011 218.6495,17.39 217.9725,17.652 C217.2925,17.913 216.5245,18.046 215.6655,18.046 C213.7635,18.046 212.2785,17.421 211.2035,16.174 C210.1315,14.927 209.5955,13.516 209.5955,11.948 C209.5955,10.468 210.0515,9.151 210.9585,7.994 C212.1065,6.519 213.6485,5.787 215.5805,5.787 C217.5705,5.787 219.1535,6.541 220.3405,8.047 C221.1855,9.109 221.6145,10.44 221.6275,12.034 L211.1385,12.034 C211.1675,13.386 211.6005,14.497 212.4375,15.364 C213.2745,16.228 214.3085,16.661 215.5395,16.661 C216.1315,16.661 216.7085,16.557 217.2695,16.351 C217.8335,16.144 218.3085,15.873 218.7035,15.529 C219.0965,15.189 219.5215,14.638 219.9775,13.875 L219.9775,13.875 Z" id="Stroke-79" stroke="#FFFFFF"></path>
                    </g>
                </g>
            </g>
        </g>
    </g>
</svg>