<?xml version="1.0" encoding="UTF-8" standalone="no"?>
<svg width="202px" height="421px" viewBox="0 0 202 421" version="1.1" xmlns="http://www.w3.org/2000/svg" xmlns:xlink="http://www.w3.org/1999/xlink">
    <!-- Generator: Sketch 3.8.3 (29802) - http://www.bohemiancoding.com/sketch -->
    <title>ypower</title>
    <desc>Created with Sketch.</desc>
    <defs></defs>
    <g id="Page-1" stroke="none" stroke-width="1" fill="none" fill-rule="evenodd">
        <g id="Ypower-it" transform="translate(-163.000000, -44.000000)">
            <g id="ypower-it" transform="translate(164.000000, 45.000000)">
                <g id="ypower" transform="translate(100.000000, 209.500000) scale(-1, 1) translate(-100.000000, -209.500000) translate(-0.000000, 0.000000)">
                    <path d="M169.497364,195.488503 L184.771877,314.448566 L81.6278863,297.140742 L75.8903345,206.088888 C74.1136711,203.55402 72.8499344,200.599077 72.2767338,197.348295 L42.0620549,25.9923358 C39.9671146,14.1113389 47.8934335,2.78281064 59.771816,0.688331333 C71.6475872,-1.40568756 82.9724741,6.52475162 85.068027,18.4092226 L114.27777,184.065909 C115.839354,185.568347 117.965824,186.492748 120.309204,186.492748 C123.225897,186.492748 125.806561,185.060704 127.380243,182.864462 L156.091469,20.035009 C158.185391,8.15978816 169.507454,0.230096904 181.385836,2.32457621 C193.261607,4.4185951 201.192652,15.7355894 199.097441,27.6181222 L169.497364,195.488503 Z" id="Combined-Shape" stroke="#000000" stroke-width="2" fill="#CE2B37"></path>
                    <path d="M5.45867637,391.794358 L5.45456374,391.790258 L3.4556029,248.735671 L61.1151299,342.234306 L73.4906003,346.519572 L80.8483467,332.4766 L92.9406946,312.615126 L157.565945,319.394602 L181.812987,332.476598 L154.043699,400.790834 C150.316605,411.395232 140.18857,419 128.278888,419 C128.276693,419 128.274499,419 128.272305,418.999999 L32.7520564,419 C17.6797094,419 5.46089843,406.819999 5.45867637,391.794358 Z" id="Combined-Shape" stroke="#000000" stroke-width="2" fill="#009246"></path>
                    <path d="M39.6249502,228.121883 C36.702053,220.410596 29.2284012,214.926937 20.4700353,214.926937 C9.16474695,214.926937 0,224.063599 0,235.334243 C0,239.010126 0.974869217,242.459014 2.68091859,245.437964 L50.451978,345.966725 C53.381035,353.665859 60.8485031,359.138568 69.5981199,359.138568 C80.9034082,359.138568 90.0681551,350.001906 90.0681551,338.731262 C90.0681551,334.823645 88.9664967,331.172546 87.0559232,328.06981 L39.6249502,228.121883 Z" id="Combined-Shape" stroke="#000000" stroke-width="2" fill="#FFFFFF"></path>
                    <path d="M67.7912607,183.110128 C64.6026455,174.671361 56.4495709,168.670376 46.8949899,168.670376 C34.5619481,168.670376 24.5640423,178.668987 24.5640423,191.0029 C24.5640423,195.025564 25.627536,198.799819 27.4886808,202.059802 L79.6025638,312.072408 C82.7978987,320.497876 90.9442275,326.486878 100.489264,326.486878 C112.822306,326.486878 122.820212,316.488266 122.820212,304.154354 C122.820212,299.878094 121.618402,295.882552 119.53414,292.487105 L67.7912607,183.110128 Z" id="Combined-Shape" stroke="#000000" stroke-width="2" fill="#FFFFFF"></path>
                    <path d="M111.402489,312.33747 L159.439207,335.766542 C170.006887,340.920744 182.729461,336.534305 187.877325,325.979619 C193.026321,315.422613 188.639347,302.694162 178.081272,297.544645 L126.301907,272.290162 C126.071738,272.1779 125.840545,272.070165 125.608431,271.966921 C121.915531,269.908725 117.57391,268.928826 113.049739,269.404336 L85.6520512,272.283949 C73.9778462,273.510957 65.501965,283.973961 66.7294598,295.652794 C67.9572245,307.334195 78.4190497,315.804169 90.0972032,314.576745 L111.402489,312.33747 Z" id="Combined-Shape" stroke="#000000" stroke-width="2" fill="#FFFFFF"></path>
                    <text id="Ypower" transform="translate(83.244810, 376.824900) scale(-1, 1) translate(-83.244810, -376.824900) " font-family="YanoneKaffeesatz-Regular, Yanone Kaffeesatz" font-size="59.8614319" font-weight="normal" letter-spacing="0.354444414" fill="#FFFFFF">
                        <tspan x="17.0234892" y="399.812723">Y</tspan>
                        <tspan x="34.9173332" y="399.812723" letter-spacing="0.389888853">power</tspan>
                    </text>
                </g>
            </g>
        </g>
    </g>
</svg>