<svg xmlns="http://www.w3.org/2000/svg" width="512" height="512" viewBox="0 0 512 512">
  <path fill="#555" d="M464,0 L48,0 C21.5,0 0,21.5 0,48 L0,336 C0,362.5 21.5,384 48,384 L464,384 C490.5,384 512,362.5 512,336 L512,48 C512,21.5 490.5,0 464,0 Z M464,336 L48,336 L48,159.7 C71,176.7 103.8,200.7 154.4,237.4 C176.2,253.3 213.8,288 256,288 C297.7,288 334.2,254.5 357.6,237.4 C408.1,200.7 441,176.7 464,159.7 L464,336 Z M464,99.9 C441.6,116.8 405.8,143.1 329.4,198.6 C311.6,211.6 279.7,240 256,240 C232.4,240 200.5,211.7 182.6,198.6 C106.2,143.1 70.4,116.8 48,99.9 L48,48 L464,48 L464,99.9 Z" transform="translate(0 64)"/>
</svg>
