<?xml version="1.0" encoding="iso-8859-1"?><!-- Generator: Adobe Illustrator 16.0.0, SVG Export Plug-In . SVG Version: 6.00 Build 0) --><!DOCTYPE svg PUBLIC "-//W3C//DTD SVG 1.1//EN" "http://www.w3.org/Graphics/SVG/1.1/DTD/svg11.dtd"><svg version="1.1" id="Layer_1" xmlns="http://www.w3.org/2000/svg" xmlns:xlink="http://www.w3.org/1999/xlink" x="0px" y="0px" width="112.285px" height="133.477px" viewBox="0 0 112.285 133.477" style="enable-background:new 0 0 112.285 133.477;" xml:space="preserve"><g><path style="fill-rule:evenodd;clip-rule:evenodd;fill:#1E71B8;" d="M103.357,116.784c-2.448,4.032-4.896,7.056-7.848,9.863	c-3.312,2.952-4.248,5.544-11.88,6.553c-5.4,1.008-10.08-1.009-11.88-1.8c-5.4-2.521-8.209-3.312-11.448-3.312	c-3.168,0-5.832,0.792-11.16,3.24c-1.656,0.863-6.12,2.808-11.592,1.8c-5.616-1.008-8.496-3.168-10.584-4.968	c-4.32-3.816-7.56-7.416-10.512-11.592l0,0l0,0L103.357,116.784L103.357,116.784L103.357,116.784L103.357,116.784z"/><path style="fill-rule:evenodd;clip-rule:evenodd;fill:#6FB353;" d="M4.286,49.608c2.52-5.688,5.832-9.504,9.144-12.168	c8.424-6.912,22.176-7.344,28.512-5.688c5.184,1.296,8.856,4.464,14.688,4.464c6.12,0,9.647-3.096,14.472-4.464	c6.336-1.584,20.16-1.08,29.16,5.832c2.664,2.016,5.111,4.752,6.479,6.264c-3.239,2.376-5.184,4.104-6.768,5.76l0,0l0,0H4.286	L4.286,49.608L4.286,49.608L4.286,49.608z"/><path style="fill-rule:evenodd;clip-rule:evenodd;fill:#FFF22D;" d="M99.974,49.608c-1.512,1.656-2.592,3.24-3.816,5.472	c-1.439,2.592-3.168,6.12-3.6,11.448l0,0l0,0H0.038l0,0l0,0c0.072-0.864,0.144-1.8,0.288-2.736	c0.864-5.688,2.232-10.368,3.96-14.184l0,0l0,0H99.974L99.974,49.608L99.974,49.608L99.974,49.608z"/><path style="fill-rule:evenodd;clip-rule:evenodd;fill:#E0922F;" d="M92.558,66.528c-0.072,1.296-0.072,3.527,0,4.896	c0.216,3.96,1.584,8.352,3.384,11.88l0,0l0,0L1.838,83.088l0,0l0,0c-1.296-5.688-2.016-11.52-1.8-16.56l0,0l0,0H92.558	L92.558,66.528L92.558,66.528L92.558,66.528z"/><path style="fill-rule:evenodd;clip-rule:evenodd;fill:#CC2229;" d="M95.941,83.304c0.792,1.656,1.729,3.097,2.664,4.32	c6.192,7.92,8.856,7.92,13.68,10.368c-0.359,0.863-0.647,1.656-1.008,2.376l0,0l0,0L7.31,100.152l0,0l0,0	C5.294,95.76,3.206,89.568,1.838,83.088l0,0l0,0L95.941,83.304L95.941,83.304L95.941,83.304L95.941,83.304z"/><path style="fill-rule:evenodd;clip-rule:evenodd;fill:#5A308D;" d="M111.277,100.368c-3.023,7.056-5.472,12.239-7.92,16.416l0,0	l0,0l-86.903-0.216l0,0l0,0c-2.88-4.248-5.472-8.929-8.424-14.761c-0.216-0.504-0.504-1.08-0.72-1.655l0,0l0,0L111.277,100.368	L111.277,100.368L111.277,100.368L111.277,100.368z"/><path style="fill-rule:evenodd;clip-rule:evenodd;fill:#6FB353;" d="M81.109,10.224c-0.504,3.6-2.304,8.208-5.184,11.16	c-3.097,3.312-7.92,6.912-10.801,8.712c-1.584,1.008-5.688,1.152-9.071,1.512c-0.432-3.024-0.504-5.616,0.432-8.424	c1.224-3.312,2.809-8.064,5.328-11.376c3.096-4.104,6.624-6.912,8.568-7.92C72.974,2.592,77.294,0.648,81.037,0	C81.182,3.312,81.686,7.056,81.109,10.224L81.109,10.224L81.109,10.224L81.109,10.224L81.109,10.224L81.109,10.224z"/></g></svg>