<?xml version="1.0" encoding="UTF-8" standalone="no"?>
<svg width="120px" height="120px" viewBox="0 0 120 120" version="1.1" xmlns="http://www.w3.org/2000/svg" xmlns:xlink="http://www.w3.org/1999/xlink">
    <!-- Generator: Sketch 3.8.3 (29802) - http://www.bohemiancoding.com/sketch -->
    <title>beacon-blue</title>
    <desc>Created with Sketch.</desc>
    <defs></defs>
    <g id="Page-1" stroke="none" stroke-width="1" fill="none" fill-rule="evenodd">
        <g id="beacon-blue">
            <circle id="Oval-7" stroke="#4990E2" stroke-width="2" cx="60" cy="60" r="53"></circle>
            <g id="Beacon" transform="translate(37.000000, 26.000000)" fill="#4990E2">
                <path d="M23.803035,14.0204231 C24.7492797,14.0204231 25.521986,13.2544423 25.521986,12.3106154 C25.521986,11.3694038 24.7492797,10.6004808 23.803035,10.6004808 C22.8567902,10.6004808 22.0837552,11.3694038 22.0837552,12.3106154 C22.0837552,13.2554231 22.8567902,14.0204231 23.803035,14.0204231 L23.803035,14.0204231 Z M23.803035,11.3847692 C24.3151049,11.3847692 24.7338322,11.8009423 24.7338322,12.3106154 C24.7338322,12.8199615 24.3151049,13.2364615 23.803035,13.2364615 C23.2906364,13.2364615 22.8722378,12.8225769 22.8722378,12.3106154 C22.8722378,11.7983269 23.2906364,11.3847692 23.803035,11.3847692 L23.803035,11.3847692 Z" id="Fill-1"></path>
                <path d="M45.6353566,22.9431346 C45.6300979,22.8728462 45.6199091,22.8015769 45.5942727,22.7388077 L39.8615874,6.04807692 C39.8257622,5.93823077 39.7626573,5.83459615 39.6781888,5.75025 L37.5391958,3.58438462 C37.4685315,3.51442308 37.385049,3.45557692 37.2913776,3.41471154 L34.3103287,2.12107692 C34.2564266,2.09917308 34.1998951,2.08151923 34.1446783,2.07105769 L24.6644825,0.248788462 C24.531042,0.221980769 24.391028,0.233423077 24.2638322,0.274288462 L13.6194825,3.82957692 C13.4613916,3.88319231 13.3355105,3.99696154 13.2405245,4.13230769 L13.0351049,4.20128846 C13.0236014,4.20128846 13.0196573,4.21011538 13.0094685,4.21403846 C12.994021,4.22188462 12.9825175,4.23332692 12.9670699,4.24215385 C12.9042937,4.27909615 12.854007,4.33042308 12.8181818,4.39548077 C12.8116084,4.40823077 12.7978042,4.41084615 12.7912308,4.42359615 L0.026951049,35.8680385 C0.026951049,35.8732692 0.0295804196,35.8798077 0.026951049,35.8834038 C0.00394405594,35.9510769 -0.00755944056,36.0213654 0.00657342657,36.0903462 L2.37629371,48.1021538 C2.37629371,48.1073846 2.38155245,48.11 2.38286713,48.1149038 C2.3854965,48.1201346 2.38286713,48.12275 2.38286713,48.1263462 L4.57313287,56.4056731 C4.57576224,56.4210385 4.59383916,56.4311731 4.60008392,56.4465385 C4.60797203,56.4668077 4.60665734,56.4900192 4.61553147,56.5089808 L6.83406294,60.0835577 C6.88172028,60.1525385 6.9444965,60.2087692 7.01779021,60.2404808 L7.28598601,60.3503269 C7.36420979,60.4526538 7.45295105,60.5494231 7.57357343,60.6020577 L24.8120559,67.9359231 C24.9096713,67.9780962 25.0174755,67.9986923 25.1216643,67.9986923 C25.1742517,67.9986923 25.2228951,67.9934615 25.2718671,67.9833269 L29.9886294,67.0891923 L38.5521608,64.3512115 C38.6073776,64.33225 38.6625944,64.3090385 38.7099231,64.2786346 L45.6738112,60.0181731 C45.8894196,59.8828269 46.0268042,59.6543077 46.0435664,59.4015962 L46.9267063,45.1958077 L45.6442308,22.9405192 L45.6353566,22.9431346 Z M36.5443077,4.98034615 L38.0591538,6.51394231 L43.7477972,23.0696538 L44.7840979,40.0376154 L44.2398182,38.2689615 L40.4817902,26.0554423 L38.3441119,16.9591346 L36.1666643,7.69282692 L36.5452937,4.98165385 L36.5443077,4.98034615 Z M33.7581608,3.59615385 L35.814986,4.48996154 L35.4514755,7.09521154 L31.5126783,4.96628846 L33.159979,3.48238462 L33.7555315,3.59713462 L33.7581608,3.59615385 Z M14.4667972,5.20396154 L24.5681818,1.82978846 L32.193028,3.29603846 L30.667993,4.67630769 L13.9146294,6.56526923 L14.4667972,5.20003846 L14.4667972,5.20396154 Z M13.5770839,7.39401923 L30.7577203,5.45144231 L35.4245245,7.96973077 L39.6742448,26.0629615 L20.1117273,48.5889423 L14.1867692,46.3449423 L11.8361119,11.6848846 L13.5780699,7.39271154 L13.5770839,7.39401923 Z M28.555951,62.9758462 L26.7301818,64.0308269 L8.82778322,56.4900192 L6.08304895,51.3383654 L13.840021,47.0510962 L19.9654685,49.3742115 L28.5546364,62.9709423 L28.555951,62.9758462 Z M4.24972028,47.8749423 L1.92437063,36.0903462 L11.1567483,13.3525192 L13.3973007,46.4011731 L5.64,50.6858269 L4.71709091,49.6422885 L4.24840559,47.8775577 L4.24972028,47.8749423 Z M6.4744965,56.1183077 L6.3989021,55.9930962 L5.16901399,51.33575 L5.22916084,51.4060385 L7.83815385,56.3046538 L6.47712587,56.117 L6.4744965,56.1183077 Z M25.2087622,66.3997115 L8.42351748,59.2548077 L7.01516084,56.984 L8.44290909,57.1808077 L26.5543427,64.8072692 L26.5747203,64.8226346 L27.8752727,65.8952692 L25.2087622,66.3970962 L25.2087622,66.3997115 Z M37.9809301,62.8839808 L29.5958671,65.5670385 L28.878049,65.705 L27.4427413,64.5238269 L29.2619371,63.4727692 L38.4390979,61.0015577 L38.8693287,62.3641731 L37.9796154,62.8826731 L37.9809301,62.8839808 Z M44.159951,59.1054038 L39.6640559,61.8979808 L39.5690699,61.9542115 L39.1220769,60.5458269 L44.8866434,47.4061346 L44.1612657,59.1054038 L44.159951,59.1054038 Z M38.4174056,60.1947115 L29.2888881,62.6554615 L20.7230559,49.0907692 L39.9388252,26.9646154 L44.9868881,43.3784423 L45.024028,45.1356538 L38.4134615,60.1956923 L38.4174056,60.1947115 Z" id="Fill-2"></path>
            </g>
        </g>
    </g>
</svg>