<?xml version="1.0" encoding="UTF-8" standalone="no"?>
<svg width="124px" height="220px" viewBox="0 0 124 220" version="1.1" xmlns="http://www.w3.org/2000/svg" xmlns:xlink="http://www.w3.org/1999/xlink">
    <!-- Generator: Sketch 3.8.3 (29802) - http://www.bohemiancoding.com/sketch -->
    <title>dimension</title>
    <desc>Created with Sketch.</desc>
    <defs></defs>
    <g id="Page-1" stroke="none" stroke-width="1" fill="none" fill-rule="evenodd">
        <g id="Artboard" transform="translate(-140.000000, -40.000000)">
            <path d="M180.799999,90 C167.5,90 163.25,90 157.25,92 C150.18,94.5 144.5,100.18 142,107.25 C140,113.25 140,117.5 140,130.799999 C140,130.799999 140,169.199997 140,169.199997 C140,182.5 140,186.75 142,192.75 C144.504639,199.82 150.18,205.5 157.25,208 C163.25,210 167.5,210 180.799999,210 L219.199997,210 C232.5,210 236.75,210 242.75,208 C249.82,205.5 255.5,199.82 258,192.75 C260,186.75 260,182.5 260,169.199997 L260,130.799999 C260,117.5 260,113.25 258,107.25 C255.5,100.25 249.739998,94.5 242.739998,92 C236.739998,90 232.5,90 219.199997,90 C226.199997,90 180.799999,90 180.799999,90 Z" id="App-icon"></path>
            <g id="Grid" transform="translate(139.000000, 89.000000)" fill-opacity="0.3" fill="#FFFFFF">
                <path d="M61,114 C90.2710932,114 114,90.2710932 114,61 C114,31.7289068 90.2710932,8 61,8 C31.7289068,8 8,31.7289068 8,61 C8,90.2710932 31.7289068,114 61,114 Z M61,112.980769 C89.7081876,112.980769 112.980769,89.7081876 112.980769,61 C112.980769,32.2918124 89.7081876,9.01923077 61,9.01923077 C32.2918124,9.01923077 9.01923077,32.2918124 9.01923077,61 C9.01923077,89.7081876 32.2918124,112.980769 61,112.980769 Z M61,93 C78.6731129,93 93,78.6731129 93,61 C93,43.3268871 78.6731129,29 61,29 C43.3268871,29 29,43.3268871 29,61 C29,78.6731129 43.3268871,93 61,93 Z M61,92 C78.1208281,92 92,78.1208281 92,61 C92,43.8791719 78.1208281,30 61,30 C43.8791719,30 30,43.8791719 30,61 C30,78.1208281 43.8791719,92 61,92 Z M61,84 C73.7025499,84 84,73.7025499 84,61 C84,48.2974501 73.7025499,38 61,38 C48.2974501,38 38,48.2974501 38,61 C38,73.7025499 48.2974501,84 61,84 Z M61,83 C73.1502651,83 83,73.1502651 83,61 C83,48.8497349 73.1502651,39 61,39 C48.8497349,39 39,48.8497349 39,61 C39,73.1502651 48.8497349,83 61,83 Z" id="Circles"></path>
                <path d="M113,8 L93,8 L93,1 L92,1 L92,8 L84,8 L84,1 L83,1 L83,8 L39,8 L39,1 L38,1 L38,8 L30,8 L30,1 L29,1 L29,8 L9,8 L9,1 L8,1 L8,7.29289322 L1.60303038,0.895923599 L0.895923599,1.60303038 L7.29289322,8 L1,8 L1,9 L8,9 L8,29 L1,29 L1,30 L8,30 L8,38 L1,38 L1,39 L8,39 L8,83 L1,83 L1,84 L8,84 L8,92 L1,92 L1,93 L8,93 L8,113 L1,113 L1,114 L7.29289322,114 L0.895923599,120.39697 L1.60303038,121.104076 L8,114.707107 L8,121 L9,121 L9,114 L29,114 L29,121 L30,121 L30,114 L38,114 L38,121 L39,121 L39,114 L83,114 L83,121 L84,121 L84,114 L92,114 L92,121 L93,121 L93,114 L113,114 L113,121 L114,121 L114,114.707107 L120.39697,121.104076 L121.104076,120.39697 L114.707107,114 L121,114 L121,113 L114,113 L114,93 L121,93 L121,92 L114,92 L114,84 L121,84 L121,83 L114,83 L114,39 L121,39 L121,38 L114,38 L114,30 L121,30 L121,29 L114,29 L114,9 L121,9 L121,8 L114.707107,8 L121.104076,1.60303038 L120.39697,0.895923599 L114,7.29289322 L114,1 L113,1 L113,8 Z M113,9.70710678 L93.7071068,29 L113,29 L113,9.70710678 Z M113,30 L93,30 L93,38 L113,38 L113,30 Z M113,39 L93,39 L93,83 L113,83 L113,39 Z M113,84 L93,84 L93,92 L113,92 L113,84 Z M113,93 L93.7071068,93 L113,112.292893 L113,93 Z M92,91.2928932 L84.7071068,84 L92,84 L92,91.2928932 Z M92,83 L84,83 L84,39 L92,39 L92,83 Z M92,38 L84.7071068,38 L92,30.7071068 L92,38 Z M92,93 L84,93 L84,113 L92,113 L92,93 Z M93,93.7071068 L112.292893,113 L93,113 L93,93.7071068 Z M92,9 L84,9 L84,29 L92,29 L92,9 Z M93,9 L112.292893,9 L93,28.2928932 L93,9 Z M83,39.7071068 L61.7071068,61 L83,82.2928932 L83,39.7071068 Z M83,93 L39,93 L39,113 L83,113 L83,93 Z M83,9 L39,9 L39,29 L83,29 L83,9 Z M83,84 L39,84 L39,92 L83,92 L83,84 Z M84,84.7071068 L91.2928932,92 L84,92 L84,84.7071068 Z M83,30 L39,30 L39,38 L83,38 L83,30 Z M84,30 L91.2928932,30 L84,37.2928932 L84,30 Z M38,83 L30,83 L30,39 L38,39 L38,83 Z M39,82.2928932 L60.2928932,61 L39,39.7071068 L39,82.2928932 Z M38,93 L30,93 L30,113 L38,113 L38,93 Z M38,9 L30,9 L30,29 L38,29 L38,9 Z M38,84.7071068 L30.7071068,92 L38,92 L38,84.7071068 Z M38,37.2928932 L30.7071068,30 L38,30 L38,37.2928932 Z M29,92 L9,92 L9,84 L29,84 L29,92 Z M30,91.2928932 L37.2928932,84 L30,84 L30,91.2928932 Z M29,83 L9,83 L9,39 L29,39 L29,83 Z M29,38 L9,38 L9,30 L29,30 L29,38 Z M30,38 L37.2928932,38 L30,30.7071068 L30,38 Z M29,93.7071068 L9.70710678,113 L29,113 L29,93.7071068 Z M29,28.2928932 L9.70710678,9 L29,9 L29,28.2928932 Z M9,112.292893 L28.2928932,93 L9,93 L9,112.292893 Z M9,29 L28.2928932,29 L9,9.70710678 L9,29 Z M39.7071068,83 L61,61.7071068 L82.2928932,83 L39.7071068,83 Z M39.7071068,39 L61,60.2928932 L82.2928932,39 L39.7071068,39 Z" id="Lines"></path>
            </g>
            <path d="M145.410445,60 C145.410445,60 264.000001,84.6190563 264,148.638278 C264.000004,202.188464 180.628964,235.073245 146.438385,238 C173.900023,215.357762 177.135726,207.879257 177.135726,207.879257 C177.135726,207.879257 140,189.289624 140,153.671596 C140,105.814403 176.975042,92.996924 176.975042,92.996924 C176.975042,92.996924 174.029892,81.2898978 145.410445,60 Z M181.225477,78.4928782 C181.225477,78.4928782 256.506652,105.733582 256.506652,150.639026 C255.321215,193.285402 180.379955,220.45235 180.379955,220.45235 C180.379955,220.45235 180.608416,215.136807 183.736998,210.614151 L183.736998,200.500082 C183.736998,200.500082 148.01988,191.066087 148.019883,150.639026 C148.019885,110.211966 183.736997,98.8925737 183.736997,98.8925737 L183.736998,88.9797947 C183.736998,88.9797947 178.808701,82.7334261 181.225477,78.4928782 Z" id="Path-1" fill="#4A90E2"></path>
        </g>
    </g>
</svg>