<?xml version="1.0" encoding="UTF-8"?>
<svg width="556px" height="556px" viewBox="0 0 556 556" version="1.1" xmlns="http://www.w3.org/2000/svg" xmlns:xlink="http://www.w3.org/1999/xlink">
    <!-- Generator: Sketch 43.1 (39012) - http://www.bohemiancoding.com/sketch -->
    <title>dolomate</title>
    <desc>Created with Sketch.</desc>
    <defs>
        <rect id="path-1" x="36" y="0" width="484" height="556" rx="31"></rect>
    </defs>
    <g id="Page-1" stroke="none" stroke-width="1" fill="none" fill-rule="evenodd">
        <g id="dolomate">
            <g id="Border">
                <use fill="#FEC704" fill-rule="evenodd" xlink:href="#path-1"></use>
                <rect stroke="#056BB1" stroke-width="16" x="44" y="8" width="468" height="540" rx="31"></rect>
            </g>
            <ellipse id="Left-eye" fill="#FFFFFF" cx="184.433027" cy="236.670224" rx="76.5319667" ry="75.9096731"></ellipse>
            <path d="M186.344533,205.849963 C171.341511,205.849963 159.136751,217.942639 159.136751,232.806658 C159.136751,247.670676 171.341511,259.763353 186.344533,259.763353 C201.347556,259.763353 213.553319,247.670676 213.553319,232.806658 C213.553319,217.942639 201.346552,205.849963 186.344533,205.849963 L186.344533,205.849963 Z" id="Left-bulb" fill="#056BB1"></path>
            <ellipse id="Right-eye" fill="#FFFFFF" cx="369.978386" cy="236.670224" rx="76.5319667" ry="75.9096731"></ellipse>
            <path d="M369.759676,205.849963 C354.756654,205.849963 342.550891,217.942639 342.550891,232.806658 C342.550891,247.670676 354.757658,259.763353 369.759676,259.763353 C384.762699,259.763353 396.968462,247.670676 396.968462,232.806658 C396.968462,217.942639 384.761695,205.849963 369.759676,205.849963 L369.759676,205.849963 Z" id="Right-bulb" fill="#056BB1"></path>
            <path d="M317.720604,426.895961 L317.720604,540.802759 L232.749555,540.802759 L232.749555,425.325081 C172.300022,409.53924 124.334883,363.20829 106.560764,303.951101 C89.5119549,286.306219 79,262.384821 79,236.056074 C79,197.888697 101.062513,164.765145 133.171574,148.539057 C165.770219,103.87304 218.702723,74.8027585 278.493433,74.8027585 C339.45975,74.8027585 393.304934,105.019683 425.721245,151.185539 C455.156733,168.20107 475,199.859801 475,236.056074 C475,260.094538 466.23987,282.13088 451.74274,299.213448 C434.574053,362.864098 382.845363,412.466879 317.720604,426.895961 Z M184.433027,312.579897 C226.700466,312.579897 260.964994,278.593979 260.964994,236.670224 C260.964994,194.746469 226.700466,160.760551 184.433027,160.760551 C142.165589,160.760551 107.901061,194.746469 107.901061,236.670224 C107.901061,278.593979 142.165589,312.579897 184.433027,312.579897 Z M369.978386,312.579897 C412.245825,312.579897 446.510353,278.593979 446.510353,236.670224 C446.510353,194.746469 412.245825,160.760551 369.978386,160.760551 C327.710948,160.760551 293.44642,194.746469 293.44642,236.670224 C293.44642,278.593979 327.710948,312.579897 369.978386,312.579897 Z" id="head" fill="#056BB1"></path>
        </g>
    </g>
</svg>