<?xml version="1.0" encoding="UTF-8" standalone="no"?>
<svg width="394px" height="346px" viewBox="0 0 394 346" version="1.1" xmlns="http://www.w3.org/2000/svg" xmlns:xlink="http://www.w3.org/1999/xlink">
    <!-- Generator: Sketch 3.8.3 (29802) - http://www.bohemiancoding.com/sketch -->
    <title>github-octocat</title>
    <desc>Created with Sketch.</desc>
    <defs>
        <path d="M15.5445312,82.7692308 C18.0070312,94.3076923 24.009375,101.076923 30.0117187,105.076923 L93.2671875,105.076923 C100.9625,99.8461538 108.811719,90 108.811719,71.5384615 L108.811719,23.8461538 C108.811719,23.8461538 109.735156,12 120.6625,8.15384615 C120.6625,8.15384615 126.972656,3.69230769 120.200781,1.23076923 C120.200781,1.23076923 90.1890625,-1.23076923 90.1890625,23.3846154 L90.1890625,59.6923077 C90.1890625,59.6923077 91.4203125,73.0769231 84.340625,78.6153846 L84.340625,33.6923077 C84.340625,33.6923077 84.8023437,19.3846154 92.1898437,14 C92.1898437,14 97.1148437,5.23076923 86.3414062,7.53846154 C86.3414062,7.53846154 65.7179687,10.4615385 64.7945312,34.6153846 L64.3328125,80.7692308 L59.4078125,80.7692308 L58.9460937,34.6153846 C58.0226562,10.6153846 37.3992187,7.53846154 37.3992187,7.53846154 C26.6257812,5.07692308 31.5507812,14 31.5507812,14 C38.9382812,19.3846154 39.4,33.6923077 39.4,33.6923077 L39.4,79.0769231 C32.3203125,74 33.5515625,59.6923077 33.5515625,59.6923077 L33.5515625,23.3846154 C33.5515625,-1.23076923 3.53984375,1.23076923 3.53984375,1.23076923 C-3.3859375,3.69230769 3.078125,8.15384615 3.078125,8.15384615 C13.8515625,12.1538462 14.9289062,23.8461538 14.9289062,23.8461538 L14.9289062,57.2307692 L15.5445312,82.7692308 L15.5445312,82.7692308 Z" id="path-1"></path>
    </defs>
    <g id="Page-1" stroke="none" stroke-width="1" fill="none" fill-rule="evenodd">
        <g id="github-octocat">
            <path d="M309.197656,307.384615 C309.197656,328.769231 259.639844,346 198.539062,346 C137.438281,346 87.8804687,328.615385 87.8804687,307.384615 C87.8804687,286 137.438281,268.769231 198.539062,268.769231 C259.639844,268.769231 309.197656,286 309.197656,307.384615 L309.197656,307.384615 L309.197656,307.384615 Z" id="Shape" fill="#9EDCF2"></path>
            <g id="Clipped" transform="translate(135.437500, 293.846154)">
                <mask id="mask-2" fill="white">
                    <use xlink:href="#path-1"></use>
                </mask>
                <g id="SVGID_1_"></g>
                <path d="M173.760156,13.5384615 C173.760156,34.9230769 124.202344,52.1538462 63.1015625,52.1538462 C2.00078125,52.1538462 -47.5570313,34.7692308 -47.5570313,13.5384615 C-47.5570313,-7.84615385 2.00078125,-25.0769231 63.1015625,-25.0769231 C124.202344,-25.0769231 173.760156,-7.84615385 173.760156,13.5384615 L173.760156,13.5384615 L173.760156,13.5384615 Z" id="Shape" fill="#7DBCE7" mask="url(#mask-2)"></path>
            </g>
            <path d="M72.1820312,193.692308 L68.95,204.769231 C68.95,204.769231 68.1804687,208.769231 71.8742187,209.538462 C75.8757812,209.384615 75.5679687,205.692308 75.2601562,204.615385 L72.1820312,193.692308 L72.1820312,193.692308 L72.1820312,193.692308 Z" id="Shape" fill="#9EDCF2"></path>
            <path d="M393.692187,147.076923 L394,145.692308 C361.525781,139.230769 328.282031,139.076923 308.120312,140 C311.352344,128.153846 312.429687,114.307692 312.429687,99.0769231 C312.429687,77.0769231 304.11875,59.5384615 290.882812,46.3076923 C293.191406,38.7692308 296.269531,22 287.804687,0.615384615 C287.804687,0.615384615 272.721875,-4.15384615 238.400781,18.7692308 C225.010937,15.3846154 210.697656,13.6923077 196.384375,13.6923077 C180.685937,13.6923077 164.833594,15.6923077 149.904687,19.6923077 C114.50625,-4.46153846 98.9617187,0.461538462 98.9617187,0.461538462 C88.8039062,25.8461538 95.1140625,44.7692308 96.9609375,49.3846154 C84.95625,62.3076923 77.7226562,78.7692308 77.7226562,98.9230769 C77.7226562,114.153846 79.415625,127.846154 83.725,139.692308 C63.409375,138.923077 31.396875,139.230769 0,145.538462 L0.3078125,146.923077 C31.7046875,140.615385 64.025,140.461538 84.1867187,141.230769 C85.1101562,143.692308 86.1875,146.153846 87.2648437,148.461538 C67.2570312,149.076923 33.24375,151.692308 0.615625,160.923077 L1.07734375,162.307692 C34.0132813,153.076923 68.334375,150.615385 88.1882812,150 C100.192969,172.153846 123.586719,186.615385 165.449219,191.076923 C159.446875,195.076923 153.444531,201.846154 150.982031,213.384615 C142.825,217.230769 117.276562,226.769231 101.885937,200.307692 C101.885937,200.307692 93.2671875,184.615385 76.7992187,183.384615 C76.7992187,183.384615 60.7929687,183.076923 75.721875,193.384615 C75.721875,193.384615 86.3414062,198.461538 93.7289062,217.384615 C93.7289062,217.384615 103.425,249.692308 149.750781,239.230769 L149.750781,272.307692 C149.750781,272.307692 148.827344,284.153846 137.9,288 C137.9,288 131.435937,292.461538 138.361719,294.923077 C138.361719,294.923077 168.373437,297.384615 168.373437,272.769231 L168.373437,236.461538 C168.373437,236.461538 167.142187,222 174.221875,217.076923 L174.221875,276.769231 C174.221875,276.769231 173.760156,291.076923 166.372656,296.461538 C166.372656,296.461538 161.447656,305.230769 172.221094,302.923077 C172.221094,302.923077 192.844531,300 193.767969,275.846154 L194.229687,215.384615 L199.154687,215.384615 L199.616406,275.846154 C200.539844,299.846154 221.163281,302.923077 221.163281,302.923077 C231.936719,305.384615 227.011719,296.461538 227.011719,296.461538 C219.624219,291.076923 219.1625,276.769231 219.1625,276.769231 L219.1625,217.538462 C226.242187,223.076923 225.010937,236.461538 225.010937,236.461538 L225.010937,272.769231 C225.010937,297.384615 255.022656,294.923077 255.022656,294.923077 C261.948438,292.461538 255.484375,288 255.484375,288 C244.710938,284 243.633594,272.307692 243.633594,272.307692 L243.633594,224.615385 C243.633594,206 235.784375,196.153846 228.089063,191.076923 C272.721875,186.615385 294.114844,172.307692 303.964844,149.846154 C323.510938,150.307692 358.755469,152.769231 392.307031,162.307692 L392.76875,160.923077 C359.371094,151.538462 324.434375,149.076923 304.580469,148.461538 C305.503906,146.153846 306.273438,143.846154 307.042969,141.384615 C327.666406,140.615385 361.064062,140.615385 393.692187,147.076923 L393.692187,147.076923 L393.692187,147.076923 Z" id="Shape" fill="#010101"></path>
            <path d="M268.720312,98 C278.2625,106.769231 283.957031,117.230769 283.957031,128.461538 C283.957031,181.384615 244.557031,182.769231 195.922656,182.769231 C147.288281,182.769231 107.888281,175.384615 107.888281,128.461538 C107.888281,117.230769 113.428906,106.769231 122.971094,98.1538462 C138.823437,83.6923077 165.603125,91.3846154 195.922656,91.3846154 C226.242187,91.3846154 252.867969,83.5384615 268.720312,98 L268.720312,98 L268.720312,98 Z" id="Shape" fill="#F5CCB3"></path>
            <path d="M166.680469,131.230769 C166.680469,145.846154 158.523437,157.538462 148.365625,157.538462 C138.207812,157.538462 130.050781,145.692308 130.050781,131.230769 C130.050781,116.615385 138.207812,104.923077 148.365625,104.923077 C158.523437,104.769231 166.680469,116.615385 166.680469,131.230769 L166.680469,131.230769 L166.680469,131.230769 Z" id="Shape" fill="#FFFFFF"></path>
            <path d="M160.832031,131.538462 C160.832031,141.230769 155.291406,149.076923 148.673437,149.076923 C141.901562,149.076923 136.514844,141.230769 136.514844,131.538462 C136.514844,121.846154 142.055469,114 148.673437,114 C155.291406,114 160.832031,121.846154 160.832031,131.538462 L160.832031,131.538462 L160.832031,131.538462 Z" id="Shape" fill="#AF5C51"></path>
            <path d="M265.026562,131.230769 C265.026562,145.846154 256.869531,157.538462 246.711719,157.538462 C236.553906,157.538462 228.396875,145.692308 228.396875,131.230769 C228.396875,116.615385 236.553906,104.923077 246.711719,104.923077 C256.715625,104.769231 265.026562,116.615385 265.026562,131.230769 L265.026562,131.230769 L265.026562,131.230769 Z" id="Shape" fill="#FFFFFF"></path>
            <path d="M259.024219,131.538462 C259.024219,141.230769 253.483594,149.076923 246.865625,149.076923 C240.09375,149.076923 234.707031,141.230769 234.707031,131.538462 C234.707031,121.846154 240.247656,114 246.865625,114 C253.6375,114 259.024219,121.846154 259.024219,131.538462 L259.024219,131.538462 L259.024219,131.538462 Z" id="Shape" fill="#AF5C51"></path>
            <path d="M200.847656,154.615385 C200.847656,157.076923 198.846875,159.230769 196.230469,159.230769 C193.767969,159.230769 191.613281,157.230769 191.613281,154.615385 C191.613281,152 193.614062,150 196.230469,150 C198.692969,150 200.847656,152 200.847656,154.615385 L200.847656,154.615385 L200.847656,154.615385 Z" id="Shape" fill="#AF5C51"></path>
            <path d="M185.610937,166.153846 C185.303125,165.384615 185.764844,164.615385 186.534375,164.307692 C187.303906,164 188.073437,164.461538 188.38125,165.230769 C189.6125,168.615385 192.690625,170.769231 196.230469,170.769231 C199.770312,170.769231 202.848437,168.461538 204.079687,165.230769 C204.3875,164.461538 205.157031,164 205.926562,164.307692 C206.696094,164.615385 207.157812,165.384615 206.85,166.153846 C205.310937,170.615385 201.001562,173.692308 196.230469,173.692308 C191.459375,173.692308 187.15,170.615385 185.610937,166.153846 L185.610937,166.153846 L185.610937,166.153846 Z" id="Shape" fill="#AF5C51"></path>
            <path d="M83.8789062,187.076923 C83.8789062,188.307692 82.49375,189.230769 80.646875,189.230769 C78.9539062,189.230769 77.4148437,188.307692 77.4148437,187.076923 C77.4148437,185.846154 78.8,184.923077 80.646875,184.923077 C82.49375,184.923077 83.8789062,185.846154 83.8789062,187.076923 L83.8789062,187.076923 L83.8789062,187.076923 Z" id="Shape" fill="#C4E5D9"></path>
            <path d="M92.8054687,192 C92.8054687,193.230769 91.4203125,194.153846 89.5734375,194.153846 C87.8804687,194.153846 86.3414062,193.230769 86.3414062,192 C86.3414062,190.769231 87.7265625,189.846154 89.5734375,189.846154 C91.4203125,189.846154 92.8054687,190.769231 92.8054687,192 L92.8054687,192 L92.8054687,192 Z" id="Shape" fill="#C4E5D9"></path>
            <path d="M98.1921875,198.461538 C98.1921875,199.692308 96.8070312,200.615385 94.9601562,200.615385 C93.2671875,200.615385 91.728125,199.692308 91.728125,198.461538 C91.728125,197.230769 93.1132812,196.307692 94.9601562,196.307692 C96.8070312,196.153846 98.1921875,197.230769 98.1921875,198.461538 L98.1921875,198.461538 L98.1921875,198.461538 Z" id="Shape" fill="#C4E5D9"></path>
            <path d="M103.117188,205.846154 C103.117188,207.076923 101.732031,208 99.8851563,208 C98.1921875,208 96.653125,207.076923 96.653125,205.846154 C96.653125,204.615385 98.0382813,203.692308 99.8851563,203.692308 C101.732031,203.538462 103.117188,204.615385 103.117188,205.846154 L103.117188,205.846154 L103.117188,205.846154 Z" id="Shape" fill="#C4E5D9"></path>
            <path d="M108.503906,212.615385 C108.503906,213.846154 107.11875,214.769231 105.271875,214.769231 C103.578906,214.769231 102.039844,213.846154 102.039844,212.615385 C102.039844,211.384615 103.425,210.461538 105.271875,210.461538 C107.11875,210.461538 108.503906,211.384615 108.503906,212.615385 L108.503906,212.615385 L108.503906,212.615385 Z" id="Shape" fill="#C4E5D9"></path>
            <path d="M115.891406,218.615385 C115.891406,219.846154 114.50625,220.769231 112.659375,220.769231 C110.966406,220.769231 109.427344,219.846154 109.427344,218.615385 C109.427344,217.384615 110.8125,216.461538 112.659375,216.461538 C114.50625,216.307692 115.891406,217.384615 115.891406,218.615385 L115.891406,218.615385 L115.891406,218.615385 Z" id="Shape" fill="#C4E5D9"></path>
            <path d="M126.203125,222.461538 C126.203125,223.692308 124.817969,224.615385 122.971094,224.615385 C121.278125,224.615385 119.739063,223.692308 119.739063,222.461538 C119.739063,221.230769 121.124219,220.307692 122.971094,220.307692 C124.817969,220.307692 126.203125,221.230769 126.203125,222.461538 L126.203125,222.461538 L126.203125,222.461538 Z" id="Shape" fill="#C4E5D9"></path>
            <path d="M136.514844,222.461538 C136.514844,223.692308 135.129687,224.615385 133.282813,224.615385 C131.589844,224.615385 130.050781,223.692308 130.050781,222.461538 C130.050781,221.230769 131.435938,220.307692 133.282813,220.307692 C135.129687,220.307692 136.514844,221.230769 136.514844,222.461538 L136.514844,222.461538 L136.514844,222.461538 Z" id="Shape" fill="#C4E5D9"></path>
            <path d="M146.980469,220.769231 C146.980469,222 145.595312,222.923077 143.748437,222.923077 C142.055469,222.923077 140.516406,222 140.516406,220.769231 C140.516406,219.538462 141.901563,218.615385 143.748437,218.615385 C145.441406,218.615385 146.980469,219.538462 146.980469,220.769231 L146.980469,220.769231 L146.980469,220.769231 Z" id="Shape" fill="#C4E5D9"></path>
        </g>
    </g>
</svg>