<?xml version="1.0" encoding="UTF-8" standalone="no"?>
<svg width="119px" height="107px" viewBox="0 0 119 107" version="1.1" xmlns="http://www.w3.org/2000/svg" xmlns:xlink="http://www.w3.org/1999/xlink">
    <!-- Generator: Sketch 39 (31667) - http://www.bohemiancoding.com/sketch -->
    <title>swift</title>
    <desc>Created with Sketch.</desc>
    <defs>
        <linearGradient x1="50%" y1="0%" x2="50%" y2="100%" id="linearGradient-1">
            <stop stop-color="#F88A36" offset="0%"></stop>
            <stop stop-color="#FD2020" offset="100%"></stop>
        </linearGradient>
    </defs>
    <g id="Page-1" stroke="none" stroke-width="1" fill="none" fill-rule="evenodd">
        <path d="M89.7604471,99.5969152 C75.7429799,107.722134 56.469338,108.556958 37.0785585,100.217759 C21.3782143,93.5150566 8.35101044,81.7823134 -5.32907052e-15,68.3769084 C4.00850904,71.7282596 8.68500281,74.4105461 13.6954889,76.7552865 C33.7206137,86.1734274 53.7415335,85.5284731 67.8310853,76.7793969 C67.8220748,76.7703555 67.8160677,76.7643279 67.8100606,76.7552865 C47.7675154,61.3366597 30.7315022,41.2255384 18.038591,24.8033145 C15.3651504,22.1216307 13.3608959,18.7696767 11.3566413,15.7531592 C26.7223924,29.8306427 51.1083401,47.5940099 59.7915408,52.6240506 C41.4219609,33.181994 25.052731,9.05045667 25.7195143,9.71952139 C54.7816554,39.2156317 81.840443,55.9754018 81.840443,55.9754018 C82.7354945,56.4817211 83.426306,56.9036538 83.9819588,57.2803794 C84.5676468,55.7855321 85.0812502,54.2334225 85.5137583,52.6240506 C90.190252,35.5297481 84.8469749,16.0876915 73.1542388,0 C100.210023,16.4237308 116.245861,47.2594775 109.56301,73.0697043 C109.388806,73.7658932 109.199583,74.4530408 108.995344,75.1281331 C109.073435,75.2215611 109.151527,75.3180028 109.229619,75.4174584 C122.589313,92.1772285 118.915998,109.940596 117.246036,106.589244 C109.998522,92.3580568 96.5817605,96.7099913 89.7607475,99.5972166 L89.7604471,99.5969152 Z" id="Shape" fill="url(#linearGradient-1)"></path>
    </g>
</svg>