<?xml version="1.0" encoding="UTF-8" standalone="no"?>
<svg width="144px" height="144px" viewBox="0 0 144 144" version="1.1" xmlns="http://www.w3.org/2000/svg" xmlns:xlink="http://www.w3.org/1999/xlink">
    <!-- Generator: Sketch 3.8.3 (29802) - http://www.bohemiancoding.com/sketch -->
    <title>telegram</title>
    <desc>Created with Sketch.</desc>
    <defs>
        <linearGradient x1="64.6551667%" y1="15.8046667%" x2="39.6551667%" y2="74.1379167%" id="linearGradient-1">
            <stop stop-color="#37AEE2" offset="0%"></stop>
            <stop stop-color="#1E96C8" offset="100%"></stop>
        </linearGradient>
    </defs>
    <g id="Page-1" stroke="none" stroke-width="1" fill="none" fill-rule="evenodd">
        <g id="telegram" transform="translate(-43.000000, -54.000000)">
            <path d="M98,175 C94.1,175 94.8,173.5 93.4,169.8 L82,132.2 L152.8,88 L161.1,90.2 L154.2,109 L98,175 L98,175 Z" id="path2993" fill="#3291B5"></path>
            <path d="M98,175 C101,175 102.3,173.6 104,172 C106.6,169.5 140,137 140,137 L119.5,132 L100.5,144 L98,174 L98,175 L98,175 Z" id="path2989" fill="#427CA0"></path>
            <path d="M100,144.4 L148.4,180.1 C153.9,183.1 157.9,181.6 159.3,175 L179,82.2 C181,74.1 175.9,70.5 170.6,72.9 L55,117.5 C47.1,120.7 47.2,125.1 53.6,127 L83.3,136.3 L152,93 C155.2,91 158.2,92.1 155.8,94.3 L100,144.4 L100,144.4 Z" id="path2991" fill="url(#linearGradient-1)"></path>
        </g>
    </g>
</svg>