<svg width="587" height="652" viewBox="0 0 587 652" xmlns="http://www.w3.org/2000/svg" xmlns:xlink="http://www.w3.org/1999/xlink"><title>Watch</title><defs><rect id="a" x=".61" y=".295" width="245.215" height="291.41" rx="38.4"/><ellipse id="c" cx="26.089" cy="26.089" rx="26.089" ry="26.089"/><ellipse id="d" cx="26.089" cy="26.089" rx="26.089" ry="26.089"/><linearGradient x1="50%" y1="0%" x2="50%" y2="100%" id="f"><stop stop-color="#7CFF67" offset="0%"/><stop stop-color="#00E301" offset="100%"/></linearGradient><ellipse id="e" cx="19.306" cy="19.306" rx="19.306" ry="19.306"/><linearGradient x1="50%" y1="0%" x2="50%" y2="100%" id="h"><stop stop-color="#9F9FA1" offset="0%"/><stop stop-color="#656568" offset="100%"/></linearGradient><ellipse id="g" cx="6.261" cy="6.261" rx="6.261" ry="6.261"/><linearGradient x1="50%" y1="0%" x2="50%" y2="100%" id="i"><stop stop-color="#80F86A" offset="0%"/><stop stop-color="#0EEB20" offset="100%"/></linearGradient><ellipse id="j" cx="19.306" cy="19.306" rx="19.306" ry="19.306"/><linearGradient x1="50%" y1="0%" x2="50%" y2="100%" id="k"><stop stop-color="#00B7FE" offset="0%"/><stop stop-color="#4363FF" offset="100%"/></linearGradient><ellipse id="l" cx="22.958" cy="22.958" rx="22.958" ry="22.958"/><ellipse id="m" cx="26.089" cy="26.089" rx="26.089" ry="26.089"/><ellipse id="n" cx="6.261" cy="6.261" rx="6.261" ry="6.261"/><linearGradient x1="50%" y1="100%" x2="50%" y2="0%" id="o"><stop stop-color="#F5515F" offset="0%"/><stop stop-color="#9F031B" offset="100%"/></linearGradient></defs><g transform="translate(138 48)" fill="none" fill-rule="evenodd"><path d="M39.576 105.764c5.168-4.293 10.07-13.173 10.95-19.827l8.24-62.36c.927-7.008 7.257-13.97 14.177-15.416 0 0 31.215-8.16 75.754-8.16 44.382 0 76.707 8.214 76.707 8.214 6.907 1.477 13.257 8.355 14.183 15.363l8.24 62.36c.88 6.657 5.765 15.558 10.907 19.88l13.007 10.93c18.402 15.462 19.943 42.16 10.936 51.695H15.358c-12.54-13.088-7.714-36.15 10.765-51.502l13.453-11.176zM256.86 448.236c-5.168 4.293-10.07 13.173-10.95 19.827l-8.242 62.36c-.926 7.008-7.256 13.97-14.176 15.416 0 0-31.215 8.16-75.754 8.16-44.382 0-76.707-8.214-76.707-8.214-6.906-1.477-13.256-8.355-14.182-15.363l-8.24-62.36c-.88-6.657-5.764-15.558-10.907-19.88l-13.006-10.93c-18.4-15.462-19.942-42.16-10.935-51.695h267.317c12.54 13.088 7.714 36.15-10.765 51.502l-13.453 11.176z" fill="#8E9FAC"/><rect fill="#D8D8D8" y="105.676" width="296.435" height="342.647" rx="57.6"/><g transform="translate(25 131)"><mask id="b" fill="#fff"><use xlink:href="#a"/></mask><use stroke="#131313" stroke-width="12.8" fill="#1A1A1A" xlink:href="#a"/><use xlink:href="#a"/><g mask="url(#b)"><circle fill="#8E9FAC" cx="27.5" cy="27.5" r="27.5" transform="translate(95.516 121.433)"/><use fill="#43A0C8" xlink:href="#c" transform="translate(67.384 69.3)"/><use fill="#F6A623" xlink:href="#d" transform="translate(33.99 123.564)"/><use fill="url(#f)" xlink:href="#e" transform="translate(45.47 27.558)"/><ellipse cx="19.306" cy="19.306" rx="19.306" ry="19.306" transform="translate(19.38 180.96)" fill="#9012FE"/><ellipse cx="19.306" cy="19.306" rx="19.306" ry="19.306" transform="translate(189.478 179.915)" fill="url(#f)"/><ellipse cx="6.261" cy="6.261" rx="6.261" ry="6.261" transform="translate(19.38 42.167)" fill="#50E3C2"/><use fill="url(#h)" xlink:href="#g" transform="translate(84.08 10.86)"/><ellipse cx="6.261" cy="6.261" rx="6.261" ry="6.261" transform="translate(150.867 10.86)" fill="url(#i)"/><ellipse cx="19.306" cy="19.306" rx="19.306" ry="19.306" transform="translate(162.346 27.558)" fill="#BD0FE1"/><use fill="#FFF" xlink:href="#j" transform="translate(19.38 79.735)"/><ellipse cx="22.958" cy="22.958" rx="22.958" ry="22.958" transform="translate(99.733 18.166)" fill="url(#k)"/><use fill="#552977" xlink:href="#l" transform="translate(99.733 235.223)"/><use fill="#FFF" xlink:href="#m" transform="translate(128.953 69.3)"/><ellipse cx="26.089" cy="26.089" rx="26.089" ry="26.089" transform="translate(128.953 177.828)" fill="#21A9E4"/><ellipse cx="19.306" cy="19.306" rx="19.306" ry="19.306" transform="translate(189.478 79.735)" fill="#F6A623"/><ellipse cx="26.089" cy="26.089" rx="26.089" ry="26.089" transform="translate(161.303 123.564)" fill="#D0011B"/><ellipse cx="26.089" cy="26.089" rx="26.089" ry="26.089" transform="translate(67.384 177.828)" fill="#F8E81C"/><use fill="#FFF" xlink:href="#n" transform="translate(219.74 143.39)"/><ellipse cx="6.261" cy="6.261" rx="6.261" ry="6.261" transform="translate(14.163 142.348)" fill="url(#o)"/></g></g><rect fill="#BAB8B8" x="295.155" y="279.882" width="5.122" height="94.788" rx="12.8"/><path d="M287.64 231.35c-.96-3.87-1.79-17.028-1.79-20.318 0-3.32.554-15.334 1.79-19.963.995-3.733 2.856-7.124 2.856-7.124 1.16-2.373 4.257-4.296 6.897-4.296h4.803c4.42 0 8.005 3.577 8.005 7.997v46.77c0 4.418-3.584 7.998-8.004 7.998h-4.803c-2.65 0-5.86-1.864-7.08-4.21 0 0-1.46-1.955-2.674-6.854z" fill="#BBB8B8"/></g></svg>