<?xml version="1.0" encoding="UTF-8"?>
<svg width="400px" height="300px" viewBox="0 0 400 300" version="1.1" xmlns="http://www.w3.org/2000/svg" xmlns:xlink="http://www.w3.org/1999/xlink">
    <!-- Generator: Sketch 53.2 (72643) - https://sketchapp.com -->
    <title>Artboard</title>
    <desc>Created with Sketch.</desc>
    <g id="Artboard" stroke="none" stroke-width="1" fill="none" fill-rule="evenodd">
        <path d="M180.799999,90 C167.5,90 163.25,90 157.25,92 C150.18,94.5 144.5,100.18 142,107.25 C140,113.25 140,117.5 140,130.799999 C140,130.799999 140,169.199997 140,169.199997 C140,182.5 140,186.75 142,192.75 C144.504639,199.82 150.18,205.5 157.25,208 C163.25,210 167.5,210 180.799999,210 L219.199997,210 C232.5,210 236.75,210 242.75,208 C249.82,205.5 255.5,199.82 258,192.75 C260,186.75 260,182.5 260,169.199997 L260,130.799999 C260,117.5 260,113.25 258,107.25 C255.5,100.25 249.739998,94.5 242.739998,92 C236.739998,90 232.5,90 219.199997,90 C226.199997,90 180.799999,90 180.799999,90 Z" id="App-icon"></path>
        <path d="M145.410445,60 C145.410445,60 264.000001,84.6190563 264,148.638278 C264.000004,202.188464 180.628964,235.073245 146.438385,238 C173.900023,215.357762 177.135726,207.879257 177.135726,207.879257 C177.135726,207.879257 140,189.289624 140,153.671596 C140,105.814403 176.975042,92.996924 176.975042,92.996924 C176.975042,92.996924 174.029892,81.2898978 145.410445,60 Z M181.225477,78.4928782 C178.808701,82.7334261 183.736998,88.9797947 183.736998,88.9797947 L183.736997,98.8925737 C183.736997,98.8925737 148.019885,110.211966 148.019883,150.639026 C148.01988,191.066087 183.736998,200.500082 183.736998,200.500082 L183.736998,210.614151 C180.608416,215.136807 180.379955,220.45235 180.379955,220.45235 C180.379955,220.45235 255.321215,193.285402 256.506652,150.639026 C256.506652,105.733582 181.225477,78.4928782 181.225477,78.4928782 Z" id="Path-1" fill="#4A90E2"></path>
    </g>
</svg>