<?xml version="1.0" encoding="UTF-8" standalone="no"?>
<svg width="524px" height="322px" viewBox="0 0 524 322" version="1.1" xmlns="http://www.w3.org/2000/svg" xmlns:xlink="http://www.w3.org/1999/xlink">
    <!-- Generator: Sketch 3.8.3 (29802) - http://www.bohemiancoding.com/sketch -->
    <title>cali</title>
    <desc>Created with Sketch.</desc>
    <defs>
        <circle id="path-1" cx="102" cy="283" r="27"></circle>
        <mask id="mask-2" maskContentUnits="userSpaceOnUse" maskUnits="objectBoundingBox" x="-12" y="-12" width="78" height="78">
            <rect x="63" y="244" width="78" height="78" fill="white"></rect>
            <use xlink:href="#path-1" fill="black"></use>
        </mask>
        <circle id="path-3" cx="434" cy="283" r="27"></circle>
        <mask id="mask-4" maskContentUnits="userSpaceOnUse" maskUnits="objectBoundingBox" x="-12" y="-12" width="78" height="78">
            <rect x="395" y="244" width="78" height="78" fill="white"></rect>
            <use xlink:href="#path-3" fill="black"></use>
        </mask>
    </defs>
    <g id="Page-1" stroke="none" stroke-width="1" fill="none" fill-rule="evenodd">
        <g id="cali">
            <polygon id="Path-11" fill="#000000" points="54.7063749 285.350377 65.0507562 285.350377 148.903868 285.227681 147.418418 234.605903 64.1181282 231.226936 48.6012116 266.845329"></polygon>
            <polygon id="Path-11" fill="#000000" points="385.807919 287.324061 396.4013 288.031962 481.515747 284.46144 476.8424 231.910975 395.516917 234 380 269.618392"></polygon>
            <path d="M480.300959,284.745119 C480.300959,284.745119 492.949317,285.457737 503.93841,283.542086 C514.927504,281.626435 523.533875,277.20863 523.533875,277.20863 L523.5339,262.673905 C523.5339,262.673905 523.518294,248.237657 523.219264,244.851105 C522.920233,241.464553 524.641391,245.083035 519.792676,230.981553 C516.05564,220.113156 513.692225,215.023041 510.183192,209.839081 C506.674159,204.655121 507.017827,205.033698 502.741877,201.451128 C484.09182,185.825329 457.497065,179.234423 457.497065,179.234423 L448.817683,177.545549 L372.041404,121.254534 C372.041404,121.254534 368.444042,117.758044 359.306605,114.600464 C350.169168,111.442884 339.355651,109.959474 339.355651,109.959474 L324.96847,6.0166839 L331.125086,4.04127653 C331.125086,4.04127653 330.223069,1.31212537 327.926295,0.932881257 C325.629521,0.553637146 323.038106,0.932881264 323.038106,0.932881264 L189.049084,35.3962458 C189.049084,35.3962458 102.337715,60.4502369 58.9160029,73.4604207 C56.2826198,74.2494453 54.5740653,75.0906678 51.6763064,77.783907 C48.7785475,80.4771462 50.2246844,80.9692937 50.9520289,81.4243947 C51.6793734,81.8794957 64.0275599,78.3215733 64.0275599,78.3215733 L65.0949503,111.852288 L40.4052194,111.852285 C40.4052194,111.852285 37.6671893,111.714182 36.6388003,112.534227 C35.6104113,113.354273 35.5384056,113.383957 34.3451059,116.22553 C30.4049076,125.608218 21.2653658,149.272459 15.5497894,179.234421 C8.10323537,218.270444 8.41891416,257.772553 8.41891416,257.772553 L4.35776983,262.01347 C4.35776983,262.01347 1.9066731,264.272839 0.946711139,266.253373 C-0.0132508194,268.233906 0.21608987,270.558324 0.21608987,270.558324 C0.21608987,270.558324 0.122015173,275.728411 0.946711138,277.208634 C1.7714071,278.688856 5.24859314,279.591017 5.24859314,279.591017 C5.24859314,279.591017 17.7714378,281.375962 26.0582725,282.45903 C34.3451072,283.542099 54.7744776,284.745119 54.7744776,284.745119 C54.7744776,284.745119 50.0273844,235.397966 100.315371,234.016131 C150.603358,232.634295 147.732737,284.745119 147.732737,284.745119 L388.441737,287.43622 C388.441737,287.43622 385.572871,234.016131 434.178553,234.016131 C482.784236,234.016131 480.300959,284.745119 480.300959,284.745119 Z" id="Path-1" fill="#B6293D"></path>
            <g id="Oval-1">
                <use fill="#D8D8D8" fill-rule="evenodd" xlink:href="#path-1"></use>
                <use stroke="#211F20" mask="url(#mask-2)" stroke-width="24" xlink:href="#path-1"></use>
            </g>
            <path d="M54.1877007,168.902037 C54.8514171,161.237383 56.0592657,149.558314 57.7446192,142.344081 C59.4601406,135.000714 63.3891638,123.871353 64.4743022,121.996486 C65.5594405,120.121618 67.7115415,120.108844 70.8025853,120.089748 C86.0709081,119.995421 135.002755,119.74684 177.630417,120.121618 C228.88797,120.572269 280.02343,121.996486 280.02343,121.996486 C280.02343,121.996486 281.760216,122.024667 282.955345,123.532248 C284.150474,125.039829 283.937499,126.992831 283.937499,126.992831 L282.955345,172.69755 C282.955345,172.69755 282.667793,178.080976 281.543663,180.091852 C280.419533,182.102728 275.716911,182.326296 275.716911,182.326296 L63.4903806,176.792819 C63.4903806,176.792819 57.5077975,176.348747 56.0120594,175.315334 C54.5163212,174.281921 53.7969913,173.413983 54.1877007,168.902037 Z" id="Path-2" fill="#31353E"></path>
            <path d="M301.918453,123.101627 C300.28827,123.103943 300.210211,123.45975 299.804664,124.033481 C299.399117,124.607212 299.552209,126.226295 299.552209,126.226295 L302.595853,179.18659 C302.595853,179.18659 303.065814,181.637243 303.737836,182.32653 C304.409857,183.015818 306.428806,183.118018 306.428806,183.118018 L405.518184,185.246268 C405.518184,185.246268 406.623285,185.306116 407.43507,184.600235 C408.246856,183.894354 408.17634,182.934891 408.17634,182.934891 L408.176342,172.841434 C408.176342,172.841434 408.116228,171.99653 407.860462,171.383045 C407.604697,170.76956 407.794724,170.968236 407.088266,170.231548 C401.145132,164.034108 372.212606,134.456584 354.094875,126.727331 C335.184975,123.342912 309.924267,123.090251 301.918453,123.101627 Z" id="Path-3" fill="#31353E"></path>
            <path d="M368.583163,123.408182 C368.583163,123.408182 388.117044,137.756991 401.906688,150.015184 C415.696332,162.273376 428.445347,176.622185 428.445347,176.622185 L447.334023,176.622187 L374.141701,123.408182 L368.583163,123.408182 Z" id="Path-4" stroke="#9BB1BC" fill="#9BB1BC"></path>
            <path d="M63.9061482,79.4418736 L324.821133,6.53733263 C324.821133,6.53733263 336.113516,80.1726071 339.103609,108.121116 C339.278628,109.757024 339.067834,110.951011 338.325406,111.688624 C337.582977,112.426236 335.985448,113.028841 334.16384,113.028841 C244.553647,113.028841 64.9857341,110.979982 64.9857341,110.979982 L63.9061482,79.4418736 Z" id="Path-5" stroke="#8E8E8E" fill="#8E8E8E"></path>
            <path d="M156.909116,94.4075089 L268.681858,96.3819267 C268.681858,96.3819267 253.075292,60.6224865 210.003056,61.0996958 C166.930821,61.5769052 156.909116,94.4075089 156.909116,94.4075089 Z" id="Path-6" stroke="#626365" fill="#626365"></path>
            <g id="Oval-1">
                <use fill="#D8D8D8" fill-rule="evenodd" xlink:href="#path-3"></use>
                <use stroke="#211F20" mask="url(#mask-4)" stroke-width="24" xlink:href="#path-3"></use>
            </g>
            <path d="M470.199525,207.618401 C470.199525,207.618401 486.223774,208.442714 494.527982,209.509555 C500.489534,210.275436 512.224935,213.043703 512.224935,213.043703 C512.224935,213.043703 514.18886,216.519295 516.530883,222.182719 C518.872905,227.846144 520.711301,233.565239 520.711301,233.565239 C520.711301,233.565239 490.819886,231.122838 484.761924,228.100573 C478.703962,225.078309 470.199525,207.618401 470.199525,207.618401 Z" id="Path-7" fill="#36373C"></path>
            <path d="M521.885965,263.013505 L494.24771,263.013506 C494.24771,263.013506 493.270986,262.947825 492.961657,262.717828 C492.652329,262.487832 492.267287,262.381169 492.412579,261.424751 C492.727186,259.353775 493.337142,255.76327 494.046411,253.78284 C494.635342,252.13842 495.596027,250.180344 496.31613,248.795489 C496.863783,247.74228 497.352044,247.546902 497.818658,247.274658 C498.285273,247.002413 499.286671,247.062341 499.286671,247.062341 L521.324924,247.518829 C521.324924,247.518829 522.070246,247.400471 522.764157,248.188204 C523.458067,248.975937 523.352239,249.820256 523.352239,249.820256 L523.35224,261.333579 C523.35224,261.333579 523.187508,262.228038 522.960755,262.487831 C522.734002,262.747625 521.885965,263.013505 521.885965,263.013505 Z" id="Path-8" fill="#36373C"></path>
            <path d="M492.717373,270.059833 L523.533889,270.059833 L523.533889,277.126875 L497.870033,278.48713 C497.870033,278.48713 495.852544,278.869665 494.006962,276.356398 C492.16138,273.843132 492.717373,270.059833 492.717373,270.059833 Z" id="Path-9" fill="#36373C"></path>
            <path d="M10.8611592,213.262342 C11.6886017,204.848055 12.7036565,196.415001 12.7036565,196.415001 L24.1541101,196.415001 C24.1541101,196.415001 24.7525823,196.336795 25.215576,196.753052 C25.6785696,197.169309 25.5947186,197.557495 25.5947186,197.557495 L24.3491603,229.553958 C24.3491603,229.553958 24.6157152,230.082649 24.1541097,230.542946 C23.6925042,231.003242 22.9712578,230.927954 22.9712578,230.927954 L9.3097284,230.927955 C9.3097284,230.927955 10.0337167,221.676629 10.8611592,213.262342 Z" id="Path-10" fill="#FC1245"></path>
            <path d="M102,297 C109.731986,297 116,290.731986 116,283 C116,275.268014 109.731986,269 102,269 C94.2680135,269 88,275.268014 88,283 C88,290.731986 94.2680135,297 102,297 Z" id="Oval-3" fill="#31353E"></path>
            <path d="M102,291 C106.418278,291 110,287.418278 110,283 C110,278.581722 106.418278,275 102,275 C97.581722,275 94,278.581722 94,283 C94,287.418278 97.581722,291 102,291 Z" id="Oval-3" fill="#52545B"></path>
            <path d="M434,297 C441.731986,297 448,290.731986 448,283 C448,275.268014 441.731986,269 434,269 C426.268014,269 420,275.268014 420,283 C420,290.731986 426.268014,297 434,297 Z" id="Oval-3" fill="#31353E"></path>
            <path d="M434,291 C438.418278,291 442,287.418278 442,283 C442,278.581722 438.418278,275 434,275 C429.581722,275 426,278.581722 426,283 C426,287.418278 429.581722,291 434,291 Z" id="Oval-3" fill="#52545B"></path>
        </g>
    </g>
</svg>