<?xml version="1.0" encoding="UTF-8"?>
<svg width="124px" height="178px" viewBox="0 0 124 178" version="1.1" xmlns="http://www.w3.org/2000/svg" xmlns:xlink="http://www.w3.org/1999/xlink">
    <!-- Generator: Sketch 53.2 (72643) - https://sketchapp.com -->
    <title>dimension</title>
    <desc>Created with Sketch.</desc>
    <g id="dimension" stroke="none" stroke-width="1" fill="none" fill-rule="evenodd">
        <path d="M5.41044485,0 C5.41044485,0 124.000001,24.6190563 124,88.6382784 C124.000004,142.188464 40.6289642,175.073245 6.43838534,178 C33.900023,155.357762 37.1357262,147.879257 37.1357262,147.879257 C37.1357262,147.879257 7.19218905e-09,129.289624 0,93.6715957 C7.19218905e-09,45.8144026 36.9750417,32.996924 36.9750417,32.996924 C36.9750417,32.996924 34.029892,21.2898978 5.41044485,0 Z M41.2254766,18.4928782 C38.8087014,22.7334261 43.7369981,28.9797947 43.7369981,28.9797947 L43.7369969,38.8925737 C43.7369969,38.8925737 8.019885,50.2119657 8.01988257,90.6390262 C8.01988013,131.066087 43.7369981,140.500082 43.7369981,140.500082 L43.7369981,150.614151 C40.6084163,155.136807 40.3799545,160.45235 40.3799545,160.45235 C40.3799545,160.45235 115.321215,133.285402 116.506652,90.6390262 C116.506652,45.7335816 41.2254766,18.4928782 41.2254766,18.4928782 Z" id="Path-1" fill="#4A90E2"></path>
    </g>
</svg>