<?xml version="1.0" encoding="UTF-8" standalone="no"?>
<svg width="120px" height="120px" viewBox="0 0 120 120" version="1.1" xmlns="http://www.w3.org/2000/svg" xmlns:xlink="http://www.w3.org/1999/xlink">
    <!-- Generator: Sketch 3.8.3 (29802) - http://www.bohemiancoding.com/sketch -->
    <title>geofence-green</title>
    <desc>Created with Sketch.</desc>
    <defs>
        <circle id="path-1" cx="53" cy="53" r="53"></circle>
        <circle id="path-3" cx="30" cy="30" r="30"></circle>
        <circle id="path-5" cx="30" cy="30" r="30"></circle>
    </defs>
    <g id="Page-1" stroke="none" stroke-width="1" fill="none" fill-rule="evenodd">
        <g id="geofence-green">
            <g id="external" opacity="0.5" transform="translate(7.000000, 7.000000)">
                <mask id="mask-2" fill="white">
                    <use xlink:href="#path-1"></use>
                </mask>
                <g id="Mask"></g>
                <g id="g3869" mask="url(#mask-2)" fill="#417505">
                    <g transform="translate(-7.000000, -7.000000)">
                        <polygon id="path16" points="110.977449 10.2171531 119.97385 10.2171531 119.97385 0.0212315074 110.977449 0.0212315074"></polygon>
                        <polygon id="path20" points="90.5856058 119.973251 107.978649 119.973251 107.978649 106.778529 90.5856058 106.778529"></polygon>
                        <polygon id="path24" points="0.0218312675 103.779728 8.41847261 103.779728 8.41847261 46.2027589 0.0218312675 46.2027589 0.0218312675 103.779728"></polygon>
                        <polygon id="path26" points="27.0110356 10.2171531 39.6059976 10.2171531 39.6059976 0.0212315074 27.0110356 0.0212315074 27.0110356 10.2171531"></polygon>
                        <polygon id="path28" points="65.3956817 88.7857257 8.41847261 88.7857257 8.41847261 89.9852459 65.3956817 89.9852459"></polygon>
                        <polygon id="path30" points="42.6047981 58.1979608 8.41847261 58.1979608 8.41847261 59.397481 42.6047981 59.397481"></polygon>
                        <polygon id="path32" points="53.4004798 112.77613 0.0218312675 112.77613 0.0218312675 113.97565 53.4004798 113.97565"></polygon>
                        <polygon id="path34" points="27.0110356 34.8073171 0.0218312675 34.8073171 0.0218312675 36.0068373 27.0110356 36.0068373"></polygon>
                        <polygon id="path36" points="119.97385 93.5838065 110.977449 93.5838065 110.977449 94.7833267 119.97385 94.7833267"></polygon>
                        <polygon id="path38" points="119.97385 59.397481 110.977449 59.397481 110.977449 60.5970012 119.97385 60.5970012 119.97385 59.397481"></polygon>
                        <polygon id="path40" points="119.97385 44.4034786 110.977449 44.4034786 110.977449 45.6029988 119.97385 45.6029988"></polygon>
                        <polygon id="path42" points="42.6047981 19.2135546 0.0218312675 19.2135546 0.0218312675 20.4130748 42.6047981 20.4130748"></polygon>
                        <polygon id="path44" points="107.978649 37.8061176 61.1973611 37.8061176 61.1973611 39.0056377 107.978649 39.0056377"></polygon>
                        <polygon id="path46" points="52.2009596 119.973251 53.4004798 119.973251 53.4004798 65.395082 52.2009596 65.395082"></polygon>
                        <polygon id="path48" points="52.2009596 10.2171531 53.4004798 10.2171531 53.4004798 0.0212315074 52.2009596 0.0212315074"></polygon>
                        <polygon id="path50" points="92.9846461 39.0056377 94.1841663 39.0056377 94.1841663 13.2159536 92.9846461 13.2159536"></polygon>
                        <polygon id="path52" points="119.97385 103.779728 0.0218312675 103.779728 0.0218312675 106.778529 119.97385 106.778529"></polygon>
                        <polygon id="path54" points="42.6047981 43.2039584 0.0218312675 43.2039584 0.0218312675 46.2027589 42.6047981 46.2027589"></polygon>
                        <polygon id="path56" points="110.977449 52.2003599 42.184966 52.2003599 42.184966 55.1991603 110.977449 55.1991603"></polygon>
                        <polygon id="path58" points="119.97385 10.2171531 0.0218312675 10.2171531 0.0218312675 13.2159536 119.97385 13.2159536"></polygon>
                        <polygon id="path60" points="119.97385 65.395082 39.6059976 65.395082 39.6059976 68.3938824 119.97385 68.3938824"></polygon>
                        <polygon id="path62" points="8.41847261 119.973251 11.4172731 119.973251 11.4172731 0.0212315074 8.41847261 0.0212315074"></polygon>
                        <polygon id="path64" points="107.978649 119.973251 110.977449 119.973251 110.977449 0.0212315074 107.978649 0.0212315074"></polygon>
                        <polygon id="path66" points="39.6059976 119.973251 42.6047981 119.973251 42.6047981 0.0212315074 39.6059976 0.0212315074"></polygon>
                        <polygon id="path68" points="65.3956817 106.778529 68.3944822 106.778529 68.3944822 52.2003599 65.3956817 52.2003599"></polygon>
                        <polygon id="path70" points="58.1985606 52.2003599 61.1973611 52.2003599 61.1973611 10.2171531 58.1985606 10.2171531"></polygon>
                        <polygon id="path72" points="87.5868053 119.973251 90.5856058 119.973251 90.5856058 65.395082 87.5868053 65.395082"></polygon>
                        <polygon id="path74" points="21.0134346 119.973251 27.0110356 119.973251 27.0110356 0.0212315074 21.0134346 0.0212315074"></polygon>
                        <polygon id="path76" points="77.9906437 119.973251 83.9882447 119.973251 83.9882447 0.0212315074 77.9906437 0.0212315074"></polygon>
                        <polygon id="path78" points="119.97385 75.5910036 0.0218312675 75.5910036 0.0218312675 81.5886046 119.97385 81.5886046"></polygon>
                        <polygon id="path80" points="119.913874 25.8109156 27.0110356 25.8109156 27.0110356 31.8085166 119.913874 31.8085166"></polygon>
                    </g>
                </g>
            </g>
            <g id="internal" transform="translate(30.000000, 30.000000)">
                <g id="g3869">
                    <mask id="mask-4" fill="white">
                        <use xlink:href="#path-3"></use>
                    </mask>
                    <g id="Mask"></g>
                    <g mask="url(#mask-4)" fill="#417505">
                        <g transform="translate(-30.000000, -30.000000)">
                            <polygon id="path16" points="110.977449 10.2171531 119.97385 10.2171531 119.97385 0.0212315074 110.977449 0.0212315074"></polygon>
                            <polygon id="path20" points="90.5856058 119.973251 107.978649 119.973251 107.978649 106.778529 90.5856058 106.778529"></polygon>
                            <polygon id="path24" points="0.0218312675 103.779728 8.41847261 103.779728 8.41847261 46.2027589 0.0218312675 46.2027589 0.0218312675 103.779728"></polygon>
                            <polygon id="path28" points="65.3956817 88.7857257 8.41847261 88.7857257 8.41847261 89.9852459 65.3956817 89.9852459"></polygon>
                            <polygon id="path30" points="42.6047981 58.1979608 8.41847261 58.1979608 8.41847261 59.397481 42.6047981 59.397481"></polygon>
                            <polygon id="path32" points="53.4004798 112.77613 0.0218312675 112.77613 0.0218312675 113.97565 53.4004798 113.97565"></polygon>
                            <polygon id="path34" points="27.0110356 34.8073171 0.0218312675 34.8073171 0.0218312675 36.0068373 27.0110356 36.0068373"></polygon>
                            <polygon id="path36" points="119.97385 93.5838065 110.977449 93.5838065 110.977449 94.7833267 119.97385 94.7833267"></polygon>
                            <polygon id="path38" points="119.97385 59.397481 110.977449 59.397481 110.977449 60.5970012 119.97385 60.5970012 119.97385 59.397481"></polygon>
                            <polygon id="path40" points="119.97385 44.4034786 110.977449 44.4034786 110.977449 45.6029988 119.97385 45.6029988"></polygon>
                            <polygon id="path42" points="42.6047981 19.2135546 0.0218312675 19.2135546 0.0218312675 20.4130748 42.6047981 20.4130748"></polygon>
                            <polygon id="path44" points="107.978649 37.8061176 61.1973611 37.8061176 61.1973611 39.0056377 107.978649 39.0056377"></polygon>
                            <polygon id="path46" points="52.2009596 119.973251 53.4004798 119.973251 53.4004798 65.395082 52.2009596 65.395082"></polygon>
                            <polygon id="path48" points="52.2009596 10.2171531 53.4004798 10.2171531 53.4004798 0.0212315074 52.2009596 0.0212315074"></polygon>
                            <polygon id="path50" points="92.9846461 39.0056377 94.1841663 39.0056377 94.1841663 13.2159536 92.9846461 13.2159536"></polygon>
                            <polygon id="path52" points="119.97385 103.779728 0.0218312675 103.779728 0.0218312675 106.778529 119.97385 106.778529"></polygon>
                            <polygon id="path54" points="42.6047981 43.2039584 0.0218312675 43.2039584 0.0218312675 46.2027589 42.6047981 46.2027589"></polygon>
                            <polygon id="path56" points="110.977449 52.2003599 42.184966 52.2003599 42.184966 55.1991603 110.977449 55.1991603"></polygon>
                            <polygon id="path58" points="119.97385 10.2171531 0.0218312675 10.2171531 0.0218312675 13.2159536 119.97385 13.2159536"></polygon>
                            <polygon id="path60" points="119.97385 65.395082 39.6059976 65.395082 39.6059976 68.3938824 119.97385 68.3938824"></polygon>
                            <polygon id="path62" points="8.41847261 119.973251 11.4172731 119.973251 11.4172731 0.0212315074 8.41847261 0.0212315074"></polygon>
                            <polygon id="path64" points="107.978649 119.973251 110.977449 119.973251 110.977449 0.0212315074 107.978649 0.0212315074"></polygon>
                            <polygon id="path66" points="39.6059976 119.973251 42.6047981 119.973251 42.6047981 0.0212315074 39.6059976 0.0212315074"></polygon>
                            <polygon id="path68" points="65.3956817 106.778529 68.3944822 106.778529 68.3944822 52.2003599 65.3956817 52.2003599"></polygon>
                            <polygon id="path70" points="58.1985606 52.2003599 61.1973611 52.2003599 61.1973611 10.2171531 58.1985606 10.2171531"></polygon>
                            <polygon id="path72" points="87.5868053 119.973251 90.5856058 119.973251 90.5856058 65.395082 87.5868053 65.395082"></polygon>
                            <polygon id="path74" points="21.0134346 119.973251 27.0110356 119.973251 27.0110356 0.0212315074 21.0134346 0.0212315074"></polygon>
                            <polygon id="path76" points="77.9906437 119.973251 83.9882447 119.973251 83.9882447 0.0212315074 77.9906437 0.0212315074"></polygon>
                            <polygon id="path78" points="119.97385 75.5910036 0.0218312675 75.5910036 0.0218312675 81.5886046 119.97385 81.5886046"></polygon>
                            <polygon id="path80" points="119.913874 25.8109156 27.0110356 25.8109156 27.0110356 31.8085166 119.913874 31.8085166"></polygon>
                        </g>
                    </g>
                    <mask id="mask-6" fill="white">
                        <use xlink:href="#path-5"></use>
                    </mask>
                    <use id="Mask" stroke="#417505" stroke-width="2" xlink:href="#path-5"></use>
                </g>
            </g>
            <circle id="Oval-7" stroke="#417505" stroke-width="2" cx="60" cy="60" r="53"></circle>
        </g>
    </g>
</svg>