<?xml version="1.0" encoding="utf-8"?>
<!-- Generator: Adobe Illustrator 15.1.0, SVG Export Plug-In . SVG Version: 6.00 Build 0)  -->
<!DOCTYPE svg PUBLIC "-//W3C//DTD SVG 1.1//EN" "http://www.w3.org/Graphics/SVG/1.1/DTD/svg11.dtd">
<svg version="1.1" id="Layer_1" xmlns="http://www.w3.org/2000/svg" xmlns:xlink="http://www.w3.org/1999/xlink" x="0px" y="0px"
	 width="832px" height="967px" viewBox="334 -9 832 967" enable-background="new 334 -9 832 967"
	 xml:space="preserve">
<g id="_164518608_1_">
</g>
<g>
	<g>
		<path id="it_6_1_" fill="#DFB82D" d="M969.805,800.324c-9.165,4.936-39.475,78.241-32.425,88.109
			c2.818,4.23,16.916,4.23,12.686,7.05c-3.522,2.115-2.818-4.935-4.933,0c0,1.412-1.412,2.819-0.706,4.935
			c1.409,5.639,9.869,8.456,11.981,14.101c0.706,1.406-2.112,0.703-3.522,2.108c-3.523,2.116-7.05,4.231-9.165,7.76
			c-2.111,3.521-2.817,7.753-3.521,11.274c-0.706,4.231,2.113,9.869,0,13.392c-1.409,2.115-3.524-7.044-16.918-6.342
			c-14.803,1.412-8.459,6.342-28.196-2.817c-8.459-3.522-10.575-19.034-19.736-24.672c-12.688-7.753-23.967,0-38.063-5.639
			c-2.115-0.709-4.233-1.411-6.347-2.818c-2.818-2.115-4.229-7.05-7.753-8.461c-2.819-2.116-6.345,0-9.869-1.407
			c-14.101-4.935-23.965-18.33-39.473-22.563c-6.347-1.405-13.396,4.936-19.739,2.115c-1.409-0.703-18.327-19.033-17.621-21.853
			c0-2.818,4.229-4.227,4.229-6.341c0.704-2.115-2.118-2.819-2.118-4.936c0-2.818,1.412-6.347,3.527-9.165s6.344-3.521,9.163-6.347
			c3.524-2.818,7.05-13.391,9.868-9.863c1.41,2.11,3.525,16.21,9.872,15.507c23.963-3.521,0-21.148,30.307-19.736
			c7.756,0,1.409,8.456,5.641,10.57c2.818,1.412,7.05-2.114,10.571-0.702c2.115,0.702,1.412,4.935,2.821,5.638
			c4.229,2.824,9.866,5.644,14.804,5.644c0.706,0,18.327-8.462,18.327-8.462c5.638-0.704,17.622,3.527,26.081,1.406
			c17.619-3.522,16.916-10.572,26.081-15.506c21.146-11.275,5.638,4.229,26.081,2.824c14.097-0.709,4.229-8.462,9.869-14.101
			c2.112-2.116,2.112,6.341,4.228,5.639C958.524,803.847,958.524,792.566,969.805,800.324 M504.572,540.214
			c2.116,9.874,33.131,7.758,28.902,23.265c-0.706,4.23-12.688,2.818-11.277,7.753c1.409,4.935,11.277,3.527,14.8,7.753
			c1.41,1.412-3.522,2.116-3.522,4.231c4.229,25.375,10.572-10.577,11.981,23.26c0.703,11.983-11.981,16.215-15.506,26.083
			c-3.525,9.165,7.047,9.165,8.457,16.919c0,2.818-3.522,5.638-3.522,9.159c-2.114,23.266,0.704,55.689-12.688,78.949
			c-0.706,1.411,0-2.11-1.409-2.818c-9.872-3.527-22.559-13.391-34.541-12.688c-2.115,0,4.935,2.818,4.935,4.936
			c-0.706,2.817-4.23,4.226-4.935,7.753c-4.231,16.215,7.047,13.396-12.69,22.556c-27.49,12.688-10.571-13.391-23.966-19.027
			c-3.524-1.412-7.05,4.226-11.277,4.226c-2.822,0,8.456-0.703,9.162-4.226c0-4.936-7.05-7.76-8.459-11.989
			c-4.228-14.095,5.642-23.254,7.753-35.244c0.706-4.934-2.112-9.159-0.703-14.094c0.703-4.231,8.459-6.348,7.05-10.577
			c-0.703-3.522-8.459,0-10.575-2.819c-2.115-3.521,1.41-7.753,1.41-11.274c0-0.703-2.819-0.703-2.116-1.412
			c1.41-2.115,5.641-1.406,7.05-4.227c2.819-7.05-7.753-41.59-11.98-46.523c-8.459-9.165-14.098,21.145-11.984-14.101
			c0.706-4.934,5.64-8.456,6.344-13.396c0.706-2.819-2.818-5.638-0.704-7.754c0.704-0.703,5.639,14.1,18.325,14.1
			C459.46,579.692,498.228,547.971,504.572,540.214 M794.989,46.786c-1.41,14.101-19.031,11.281-20.441,22.556
			c-1.409,8.463,14.805,7.051,18.328,9.869c4.932,4.231-8.459,9.869-10.574,16.216c-2.818,9.165,8.459-0.703,9.868,2.818
			c1.409,3.522-6.344,12.688-1.409,15.506c7.047,4.231,35.243,21.149,10.572,19.737c1.409-3.522,1.409-6.341-1.41-9.869
			c-13.391-12.688-12.688-7.05-20.439,2.824c0.706-0.708,0.706-1.417,0.706-1.417c0-7.044-13.396-8.457-19.74-5.638
			c-3.521,2.115,0,9.874-2.818,12.692c-2.818,2.819-7.753,0.704-11.98,2.116c-9.871,4.226-19.034,15.506-30.313,17.616
			c-3.521,0.709-7.047-2.819-9.869-0.703c-2.818,0.703,0,4.934-1.409,7.758c-0.705,2.11-2.821,4.935-4.23,7.044
			c0.706-0.704,0.706-1.407,1.409-1.407c3.524,0,0.706,7.753,3.524,9.16c1.41,0.709,2.116-4.226,3.528-2.818
			c1.409,2.818,4.229,8.462,1.409,10.571c-1.409,0.708-2.115,2.115-1.409,3.527c0.706,0.704,2.113-0.708,3.525-0.708
			c4.228,3.527,11.274,5.643,11.98,10.577c4.229,19.736-12.688,11.983-17.625,23.963c-1.41,3.528,7.756,41.596,9.871,45.821
			c4.229,7.05,53.569,42.293,63.44,47.931c9.869,5.643,12.688,2.116,21.851,9.874c9.871,8.457,23.262,64.141,31.015,78.241
			c7.757,14.803,23.97,28.194,36.656,38.062c4.23,2.819,10.574,3.528,14.101,7.051c2.111,1.411,0,5.644,1.405,7.05
			c19.034,19.736,54.983,13.391,77.54,9.869c4.938-0.704,15.509-8.457,21.854-1.412c17.622,19.742-35.246,26.787-8.459,45.111
			c25.378,16.925,60.621,15.513,86.702,28.902c9.165,4.936,12.688,12.692,23.26,16.215c8.462,3.522,31.721,7.05,38.772,12.688
			c2.819,2.114,0,7.05,2.113,9.165c8.459,11.983,31.015,9.869,38.064,34.54c2.818,9.159-3.524,6.342-5.641,12.688
			c-1.41,3.522,0.706,17.622-2.112,19.034c-2.821,2.11-7.757,0-11.986-2.115c-21.848-8.462-12.688-21.148-23.966-35.952
			c-6.345-8.457-26.784,0-37.359-3.521c-14.097-4.936-21.85-21.149-35.246-7.05c-1.409,2.114-19.027,37.358-19.027,38.766
			c0,2.115,3.521,4.231,2.817,7.056c-2.817,13.392-16.918,12.683-4.935,28.193c7.051,8.457,9.163,0.703,16.916,2.819
			c8.459,2.817,14.1,11.279,21.853,14.803c2.819,1.406,7.051,0,8.46,2.818c1.409,2.115-2.818,4.935-2.818,7.754
			c0.702,19.736,9.865,1.412,8.457,26.787c-0.704,14.803-28.9,9.158-41.589,23.968c-9.161,10.571,2.819,21.144,0,33.831
			c-2.114,10.571-9.161,7.754-16.215,13.392c-16.916,14.808-4.932,48.64-40.178,38.776c-7.047-2.121-14.801-20.446-10.572-28.199
			c2.819-4.231,9.869-3.521,13.392-7.05c2.116-2.819,2.116-7.05,2.821-10.572c0.703-3.527,3.521-6.347,2.818-9.868
			c-0.706-4.23-7.753-6.347-7.05-10.577c2.819-12.688,19.737-5.639,24.672-12.688c11.984-14.095-2.113-16.21-7.753-23.963
			c-5.638-8.462-2.819-20.441-7.05-29.606c-2.116-5.643-4.936-10.577-8.46-14.803c-0.703-1.412-3.521-1.412-4.933-2.819
			c-12.688-19.032,0.704-7.753-7.756-28.901C961.344,624.097,955,637.493,933.855,638.9c-0.706,0,0.704-2.109,0-3.521
			c-2.818-2.824-6.347-6.348-10.574-8.462c-4.231-2.116-12.688,0-15.507-4.936c-2.818-4.935,5.638-9.863,4.932-15.506
			c-0.703-5.639-4.932-10.572-7.75-14.804c-16.921-23.266-19.74,9.165-39.478,2.115c-2.115-0.703,13.394-11.983,6.347-16.919
			c-25.378-18.324-0.706,0.709-28.196-2.817c-2.114-0.704,0-4.231-0.706-6.348c-2.818-8.456-17.622-31.013-24.672-33.831
			c-19.031-7.051-4.229,6.342-10.572,4.935c-6.346-1.412-11.982-9.165-19.032-8.462c-6.345,1.412-11.278,9.869-16.916,8.462
			c-6.348-1.412-5.642-10.577-9.869-14.803c-4.935-4.231-17.622-2.819-21.854-5.639l-10.573-14.809
			c-4.936-4.226-12.686-4.934-16.916-9.863c-8.459-12.688,1.409-10.577-8.459-18.331c-4.231-3.521-9.163-6.346-14.098-9.165
			c-1.412-0.704-4.23,1.412-5.64,0.708c-7.753-6.346-7.753-18.324-15.509-24.671c-13.392-11.28-21.851-2.818-35.95-8.462
			c-2.113-0.704,3.524-2.818,4.935-4.226c4.229-5.639-4.229-14.804-6.344-16.919c-1.41-1.411-4.229,0-5.638-1.411
			c-2.116-2.819-2.116-7.051-4.936-9.16c-3.524-2.824-10.575-0.709-13.394-4.936c-2.115-2.818,4.23-8.462,0.704-10.577
			c-4.229-3.521-11.278,0.708-16.916-1.406c-3.525-1.412,2.116-7.76,2.116-11.984c2.112-14.1,0-19.034-7.754-31.018
			c-14.805-21.145-4.23-40.179-21.853-56.388c-1.409-2.115-4.231-2.823-6.344-3.527c-0.706,0-1.409,2.115-2.115,1.412
			c-3.525-1.412-5.638-5.644-9.166-5.644c-2.115,0,2.118,6.347,0,5.644c-5.638-1.412-9.869-5.644-14.8-9.165
			c-2.115-1.412-19.74-19.737-25.377-19.737c-1.41,0,0.703,3.527-0.706,4.23c-1.41,0.703-3.522,0-4.229-1.411
			c-3.524-4.231-18.328-11.275-25.377-11.275c-2.818,0-21.144,10.572-22.554,13.391c-1.412,2.819,0.704,7.051-1.412,9.166
			c-2.115,2.819-7.753,2.115-9.869,4.227c-4.934,4.934-8.459,16.215-14.097,21.148c-9.165,9.166-25.377,8.457-35.95,9.869
			c-3.525-12.688,20.441-28.903,9.869-36.656c-3.525-2.115-8.459,0.708-12.688,1.412c-4.23,0-9.165,2.115-13.394,0.703
			c-7.753-2.115-26.083-15.506-25.377-25.375c0-1.412,3.524-1.412,3.524-2.819c-0.706-2.114-7.753-4.23-5.641-8.462
			c2.819-2.818,6.344-4.934,8.462-8.457c0.704-0.702-1.412-2.114-0.708-3.526c0.708-2.116,7.052,1.412,7.756-0.704
			c0-5.638-0.704-11.275-2.818-15.506c-3.525-5.639-26.787-14.804-25.378-26.083c0-3.522,6.344-3.522,9.868-4.227
			c2.116,0,3.525,4.227,5.639,3.522c3.524-0.703,26.084-19.028,22.559-25.375c-2.116-4.231-9.163-4.936-11.278-9.869
			c-2.112-2.818,0.706-7.753-0.702-10.572c-9.872-16.918-28.197-8.462,4.228-27.489c7.047,12.687,26.081-1.412,35.244-3.528
			c6.344-1.407,11.278,7.05,17.622,7.05c0.706,0,20.442-20.44,20.442-23.968c0.704-3.522-5.64-4.935-4.934-7.753
			c1.409-4.231,7.047-5.639,10.572-8.457c3.524-2.819,6.344-5.639,9.872-8.462c1.408-0.704,2.818-2.116,3.524-1.407
			c1.409,4.23,0.703,8.457,0.703,12.688c0,2.115-2.113,4.935-1.409,7.753c4.935,9.166,16.212,11.275,23.965,14.095
			c0.704,0,2.113,1.412,2.113,2.824c-0.703,2.818-5.638,4.935-4.934,7.753c0.706,2.818,5.643,1.411,7.758,3.521
			c2.819,3.528,4.229,15.506,8.457,11.984c11.98-9.166-2.115-6.341-2.115-13.392c0-15.512,16.918-19.736,19.737-32.425
			c0-1.412-7.753-20.446,4.23-18.331c9.163,1.412-2.117,15.513,16.212,19.737c11.275,3.528,2.113-10.572,21.146-7.044
			c5.638,0.704,2.819,11.979,7.753,14.798c2.819,1.412,8.459-1.407,7.753-4.226c-1.409-2.116-4.228-3.528-4.934-6.348
			c0-2.818,4.23-4.934,3.524-7.753c-1.409-3.527-14.097-11.281-4.229-18.325c12.688-9.166,7.753,11.275,22.556,7.753
			c8.459-2.823-4.935-12.688-4.935-14.1c1.409-2.819,3.524-4.934,4.23-7.753c1.41-2.819,0.704-6.347,1.41-9.166l0,0
			c11.275,5.638,1.409-1.407,12.688,0c5.638,0.704,11.274,15.512,22.556,9.166l9.163-19.034c5.638-4.226,30.312-1.407,36.656-2.116
			c10.574-0.704,19.03-9.862,29.605-9.862c2.819,0-4.935,3.521-5.641,6.341c-3.525,14.803,5.641,4.935,11.277,13.391
			c1.409,2.115-2.115,4.935-0.705,7.753c0.705,1.412,2.82-1.406,4.23,0c13.395,9.874,16.918,11.281,35.246,14.101
			C759.744,43.967,777.366,45.379,794.989,46.786L794.989,46.786z"/>
	</g>
	<g>
		<defs>
			<path id="SVGID_1_" d="M969.805,800.324c-9.165,4.936-39.475,78.241-32.425,88.109c2.818,4.23,16.916,4.23,12.686,7.05
				c-3.522,2.115-2.818-4.935-4.933,0c0,1.412-1.412,2.819-0.706,4.935c1.409,5.639,9.869,8.456,11.981,14.101
				c0.706,1.406-2.112,0.703-3.522,2.108c-3.523,2.116-7.05,4.231-9.165,7.76c-2.111,3.521-2.817,7.753-3.521,11.274
				c-0.706,4.231,2.113,9.869,0,13.392c-1.409,2.115-3.524-7.044-16.918-6.342c-14.803,1.412-8.459,6.342-28.196-2.817
				c-8.459-3.522-10.575-19.034-19.736-24.672c-12.688-7.753-23.967,0-38.063-5.639c-2.115-0.709-4.233-1.411-6.347-2.818
				c-2.818-2.115-4.229-7.05-7.753-8.461c-2.819-2.116-6.345,0-9.869-1.407c-14.101-4.935-23.965-18.33-39.473-22.563
				c-6.347-1.405-13.396,4.936-19.739,2.115c-1.409-0.703-18.327-19.033-17.621-21.853c0-2.818,4.229-4.227,4.229-6.341
				c0.704-2.115-2.118-2.819-2.118-4.936c0-2.818,1.412-6.347,3.527-9.165s6.344-3.521,9.163-6.347
				c3.524-2.818,7.05-13.391,9.868-9.863c1.41,2.11,3.525,16.21,9.872,15.507c23.963-3.521,0-21.148,30.307-19.736
				c7.756,0,1.409,8.456,5.641,10.57c2.818,1.412,7.05-2.114,10.571-0.702c2.115,0.702,1.412,4.935,2.821,5.638
				c4.229,2.824,9.866,5.644,14.804,5.644c0.706,0,18.327-8.462,18.327-8.462c5.638-0.704,17.622,3.527,26.081,1.406
				c17.619-3.522,16.916-10.572,26.081-15.506c21.146-11.275,5.638,4.229,26.081,2.824c14.097-0.709,4.229-8.462,9.869-14.101
				c2.112-2.116,2.112,6.341,4.228,5.639C958.524,803.847,958.524,792.566,969.805,800.324 M504.572,540.214
				c2.116,9.874,33.131,7.758,28.902,23.265c-0.706,4.23-12.688,2.818-11.277,7.753c1.409,4.935,11.277,3.527,14.8,7.753
				c1.41,1.412-3.522,2.116-3.522,4.231c4.229,25.375,10.572-10.577,11.981,23.26c0.703,11.983-11.981,16.215-15.506,26.083
				c-3.525,9.165,7.047,9.165,8.457,16.919c0,2.818-3.522,5.638-3.522,9.159c-2.114,23.266,0.704,55.689-12.688,78.949
				c-0.706,1.411,0-2.11-1.409-2.818c-9.872-3.527-22.559-13.391-34.541-12.688c-2.115,0,4.935,2.818,4.935,4.936
				c-0.706,2.817-4.23,4.226-4.935,7.753c-4.231,16.215,7.047,13.396-12.69,22.556c-27.49,12.688-10.571-13.391-23.966-19.027
				c-3.524-1.412-7.05,4.226-11.277,4.226c-2.822,0,8.456-0.703,9.162-4.226c0-4.936-7.05-7.76-8.459-11.989
				c-4.228-14.095,5.642-23.254,7.753-35.244c0.706-4.934-2.112-9.159-0.703-14.094c0.703-4.231,8.459-6.348,7.05-10.577
				c-0.703-3.522-8.459,0-10.575-2.819c-2.115-3.521,1.41-7.753,1.41-11.274c0-0.703-2.819-0.703-2.116-1.412
				c1.41-2.115,5.641-1.406,7.05-4.227c2.819-7.05-7.753-41.59-11.98-46.523c-8.459-9.165-14.098,21.145-11.984-14.101
				c0.706-4.934,5.64-8.456,6.344-13.396c0.706-2.819-2.818-5.638-0.704-7.754c0.704-0.703,5.639,14.1,18.325,14.1
				C459.46,579.692,498.228,547.971,504.572,540.214 M794.989,46.786c-1.41,14.101-19.031,11.281-20.441,22.556
				c-1.409,8.463,14.805,7.051,18.328,9.869c4.932,4.231-8.459,9.869-10.574,16.216c-2.818,9.165,8.459-0.703,9.868,2.818
				c1.409,3.522-6.344,12.688-1.409,15.506c7.047,4.231,35.243,21.149,10.572,19.737c1.409-3.522,1.409-6.341-1.41-9.869
				c-13.391-12.688-12.688-7.05-20.439,2.824c0.706-0.708,0.706-1.417,0.706-1.417c0-7.044-13.396-8.457-19.74-5.638
				c-3.521,2.115,0,9.874-2.818,12.692c-2.818,2.819-7.753,0.704-11.98,2.116c-9.871,4.226-19.034,15.506-30.313,17.616
				c-3.521,0.709-7.047-2.819-9.869-0.703c-2.818,0.703,0,4.934-1.409,7.758c-0.705,2.11-2.821,4.935-4.23,7.044
				c0.706-0.704,0.706-1.407,1.409-1.407c3.524,0,0.706,7.753,3.524,9.16c1.41,0.709,2.116-4.226,3.528-2.818
				c1.409,2.818,4.229,8.462,1.409,10.571c-1.409,0.708-2.115,2.115-1.409,3.527c0.706,0.704,2.113-0.708,3.525-0.708
				c4.228,3.527,11.274,5.643,11.98,10.577c4.229,19.736-12.688,11.983-17.625,23.963c-1.41,3.528,7.756,41.596,9.871,45.821
				c4.229,7.05,53.569,42.293,63.44,47.931c9.869,5.643,12.688,2.116,21.851,9.874c9.871,8.457,23.262,64.141,31.015,78.241
				c7.757,14.803,23.97,28.194,36.656,38.062c4.23,2.819,10.574,3.528,14.101,7.051c2.111,1.411,0,5.644,1.405,7.05
				c19.034,19.736,54.983,13.391,77.54,9.869c4.938-0.704,15.509-8.457,21.854-1.412c17.622,19.742-35.246,26.787-8.459,45.111
				c25.378,16.925,60.621,15.513,86.702,28.902c9.165,4.936,12.688,12.692,23.26,16.215c8.462,3.522,31.721,7.05,38.772,12.688
				c2.819,2.114,0,7.05,2.113,9.165c8.459,11.983,31.015,9.869,38.064,34.54c2.818,9.159-3.524,6.342-5.641,12.688
				c-1.41,3.522,0.706,17.622-2.112,19.034c-2.821,2.11-7.757,0-11.986-2.115c-21.848-8.462-12.688-21.148-23.966-35.952
				c-6.345-8.457-26.784,0-37.359-3.521c-14.097-4.936-21.85-21.149-35.246-7.05c-1.409,2.114-19.027,37.358-19.027,38.766
				c0,2.115,3.521,4.231,2.817,7.056c-2.817,13.392-16.918,12.683-4.935,28.193c7.051,8.457,9.163,0.703,16.916,2.819
				c8.459,2.817,14.1,11.279,21.853,14.803c2.819,1.406,7.051,0,8.46,2.818c1.409,2.115-2.818,4.935-2.818,7.754
				c0.702,19.736,9.865,1.412,8.457,26.787c-0.704,14.803-28.9,9.158-41.589,23.968c-9.161,10.571,2.819,21.144,0,33.831
				c-2.114,10.571-9.161,7.754-16.215,13.392c-16.916,14.808-4.932,48.64-40.178,38.776c-7.047-2.121-14.801-20.446-10.572-28.199
				c2.819-4.231,9.869-3.521,13.392-7.05c2.116-2.819,2.116-7.05,2.821-10.572c0.703-3.527,3.521-6.347,2.818-9.868
				c-0.706-4.23-7.753-6.347-7.05-10.577c2.819-12.688,19.737-5.639,24.672-12.688c11.984-14.095-2.113-16.21-7.753-23.963
				c-5.638-8.462-2.819-20.441-7.05-29.606c-2.116-5.643-4.936-10.577-8.46-14.803c-0.703-1.412-3.521-1.412-4.933-2.819
				c-12.688-19.032,0.704-7.753-7.756-28.901C961.344,624.097,955,637.493,933.855,638.9c-0.706,0,0.704-2.109,0-3.521
				c-2.818-2.824-6.347-6.348-10.574-8.462c-4.231-2.116-12.688,0-15.507-4.936c-2.818-4.935,5.638-9.863,4.932-15.506
				c-0.703-5.639-4.932-10.572-7.75-14.804c-16.921-23.266-19.74,9.165-39.478,2.115c-2.115-0.703,13.394-11.983,6.347-16.919
				c-25.378-18.324-0.706,0.709-28.196-2.817c-2.114-0.704,0-4.231-0.706-6.348c-2.818-8.456-17.622-31.013-24.672-33.831
				c-19.031-7.051-4.229,6.342-10.572,4.935c-6.346-1.412-11.982-9.165-19.032-8.462c-6.345,1.412-11.278,9.869-16.916,8.462
				c-6.348-1.412-5.642-10.577-9.869-14.803c-4.935-4.231-17.622-2.819-21.854-5.639l-10.573-14.809
				c-4.936-4.226-12.686-4.934-16.916-9.863c-8.459-12.688,1.409-10.577-8.459-18.331c-4.231-3.521-9.163-6.346-14.098-9.165
				c-1.412-0.704-4.23,1.412-5.64,0.708c-7.753-6.346-7.753-18.324-15.509-24.671c-13.392-11.28-21.851-2.818-35.95-8.462
				c-2.113-0.704,3.524-2.818,4.935-4.226c4.229-5.639-4.229-14.804-6.344-16.919c-1.41-1.411-4.229,0-5.638-1.411
				c-2.116-2.819-2.116-7.051-4.936-9.16c-3.524-2.824-10.575-0.709-13.394-4.936c-2.115-2.818,4.23-8.462,0.704-10.577
				c-4.229-3.521-11.278,0.708-16.916-1.406c-3.525-1.412,2.116-7.76,2.116-11.984c2.112-14.1,0-19.034-7.754-31.018
				c-14.805-21.145-4.23-40.179-21.853-56.388c-1.409-2.115-4.231-2.823-6.344-3.527c-0.706,0-1.409,2.115-2.115,1.412
				c-3.525-1.412-5.638-5.644-9.166-5.644c-2.115,0,2.118,6.347,0,5.644c-5.638-1.412-9.869-5.644-14.8-9.165
				c-2.115-1.412-19.74-19.737-25.377-19.737c-1.41,0,0.703,3.527-0.706,4.23c-1.41,0.703-3.522,0-4.229-1.411
				c-3.524-4.231-18.328-11.275-25.377-11.275c-2.818,0-21.144,10.572-22.554,13.391c-1.412,2.819,0.704,7.051-1.412,9.166
				c-2.115,2.819-7.753,2.115-9.869,4.227c-4.934,4.934-8.459,16.215-14.097,21.148c-9.165,9.166-25.377,8.457-35.95,9.869
				c-3.525-12.688,20.441-28.903,9.869-36.656c-3.525-2.115-8.459,0.708-12.688,1.412c-4.23,0-9.165,2.115-13.394,0.703
				c-7.753-2.115-26.083-15.506-25.377-25.375c0-1.412,3.524-1.412,3.524-2.819c-0.706-2.114-7.753-4.23-5.641-8.462
				c2.819-2.818,6.344-4.934,8.462-8.457c0.704-0.702-1.412-2.114-0.708-3.526c0.708-2.116,7.052,1.412,7.756-0.704
				c0-5.638-0.704-11.275-2.818-15.506c-3.525-5.639-26.787-14.804-25.378-26.083c0-3.522,6.344-3.522,9.868-4.227
				c2.116,0,3.525,4.227,5.639,3.522c3.524-0.703,26.084-19.028,22.559-25.375c-2.116-4.231-9.163-4.936-11.278-9.869
				c-2.112-2.818,0.706-7.753-0.702-10.572c-9.872-16.918-28.197-8.462,4.228-27.489c7.047,12.687,26.081-1.412,35.244-3.528
				c6.344-1.407,11.278,7.05,17.622,7.05c0.706,0,20.442-20.44,20.442-23.968c0.704-3.522-5.64-4.935-4.934-7.753
				c1.409-4.231,7.047-5.639,10.572-8.457c3.524-2.819,6.344-5.639,9.872-8.462c1.408-0.704,2.818-2.116,3.524-1.407
				c1.409,4.23,0.703,8.457,0.703,12.688c0,2.115-2.113,4.935-1.409,7.753c4.935,9.166,16.212,11.275,23.965,14.095
				c0.704,0,2.113,1.412,2.113,2.824c-0.703,2.818-5.638,4.935-4.934,7.753c0.706,2.818,5.643,1.411,7.758,3.521
				c2.819,3.528,4.229,15.506,8.457,11.984c11.98-9.166-2.115-6.341-2.115-13.392c0-15.512,16.918-19.736,19.737-32.425
				c0-1.412-7.753-20.446,4.23-18.331c9.163,1.412-2.117,15.513,16.212,19.737c11.275,3.528,2.113-10.572,21.146-7.044
				c5.638,0.704,2.819,11.979,7.753,14.798c2.819,1.412,8.459-1.407,7.753-4.226c-1.409-2.116-4.228-3.528-4.934-6.348
				c0-2.818,4.23-4.934,3.524-7.753c-1.409-3.527-14.097-11.281-4.229-18.325c12.688-9.166,7.753,11.275,22.556,7.753
				c8.459-2.823-4.935-12.688-4.935-14.1c1.409-2.819,3.524-4.934,4.23-7.753c1.41-2.819,0.704-6.347,1.41-9.166l0,0
				c11.275,5.638,1.409-1.407,12.688,0c5.638,0.704,11.274,15.512,22.556,9.166l9.163-19.034c5.638-4.226,30.312-1.407,36.656-2.116
				c10.574-0.704,19.03-9.862,29.605-9.862c2.819,0-4.935,3.521-5.641,6.341c-3.525,14.803,5.641,4.935,11.277,13.391
				c1.409,2.115-2.115,4.935-0.705,7.753c0.705,1.412,2.82-1.406,4.23,0c13.395,9.874,16.918,11.281,35.246,14.101
				C759.744,43.967,777.366,45.379,794.989,46.786L794.989,46.786z"/>
		</defs>
		<clipPath id="SVGID_2_">
			<use xlink:href="#SVGID_1_"  overflow="visible"/>
		</clipPath>
		<g clip-path="url(#SVGID_2_)">
			<rect x="611.778" y="-63.094" fill="#fff" stroke="#fff" stroke-width="2" width="276" height="1075"/>
			<rect x="888.222" y="-63.094" fill="#CE2B37" stroke="#fff" stroke-width="2" width="276" height="1075"/>
			<rect x="335.334" y="-63.094" fill="#009246" stroke="#fff" stroke-width="2" width="276" height="1075"/>
		</g>
	</g>
	<g>
		<path id="it_6_2_" fill="none" stroke="#000000" stroke-width="2" d="M969.805,800.324c-9.165,4.936-39.475,78.241-32.425,88.109
			c2.818,4.23,16.916,4.23,12.686,7.05c-3.522,2.115-2.818-4.935-4.933,0c0,1.412-1.412,2.819-0.706,4.935
			c1.409,5.639,9.869,8.456,11.981,14.101c0.706,1.406-2.112,0.703-3.522,2.108c-3.523,2.116-7.05,4.231-9.165,7.76
			c-2.111,3.521-2.817,7.753-3.521,11.274c-0.706,4.231,2.113,9.869,0,13.392c-1.409,2.115-3.524-7.044-16.918-6.342
			c-14.803,1.412-8.459,6.342-28.196-2.817c-8.459-3.522-10.575-19.034-19.736-24.672c-12.688-7.753-23.967,0-38.063-5.639
			c-2.115-0.709-4.233-1.411-6.347-2.818c-2.818-2.115-4.229-7.05-7.753-8.461c-2.819-2.116-6.345,0-9.869-1.407
			c-14.101-4.935-23.965-18.33-39.473-22.563c-6.347-1.405-13.396,4.936-19.739,2.115c-1.409-0.703-18.327-19.033-17.621-21.853
			c0-2.818,4.229-4.227,4.229-6.341c0.704-2.115-2.118-2.819-2.118-4.936c0-2.818,1.412-6.347,3.527-9.165s6.344-3.521,9.163-6.347
			c3.524-2.818,7.05-13.391,9.868-9.863c1.41,2.11,3.525,16.21,9.872,15.507c23.963-3.521,0-21.148,30.307-19.736
			c7.756,0,1.409,8.456,5.641,10.57c2.818,1.412,7.05-2.114,10.571-0.702c2.115,0.702,1.412,4.935,2.821,5.638
			c4.229,2.824,9.866,5.644,14.804,5.644c0.706,0,18.327-8.462,18.327-8.462c5.638-0.704,17.622,3.527,26.081,1.406
			c17.619-3.522,16.916-10.572,26.081-15.506c21.146-11.275,5.638,4.229,26.081,2.824c14.097-0.709,4.229-8.462,9.869-14.101
			c2.112-2.116,2.112,6.341,4.228,5.639C958.524,803.847,958.524,792.566,969.805,800.324 M504.572,540.214
			c2.116,9.874,33.131,7.758,28.902,23.265c-0.706,4.23-12.688,2.818-11.277,7.753c1.409,4.935,11.277,3.527,14.8,7.753
			c1.41,1.412-3.522,2.116-3.522,4.231c4.229,25.375,10.572-10.577,11.981,23.26c0.703,11.983-11.981,16.215-15.506,26.083
			c-3.525,9.165,7.047,9.165,8.457,16.919c0,2.818-3.522,5.638-3.522,9.159c-2.114,23.266,0.704,55.689-12.688,78.949
			c-0.706,1.411,0-2.11-1.409-2.818c-9.872-3.527-22.559-13.391-34.541-12.688c-2.115,0,4.935,2.818,4.935,4.936
			c-0.706,2.817-4.23,4.226-4.935,7.753c-4.231,16.215,7.047,13.396-12.69,22.556c-27.49,12.688-10.571-13.391-23.966-19.027
			c-3.524-1.412-7.05,4.226-11.277,4.226c-2.822,0,8.456-0.703,9.162-4.226c0-4.936-7.05-7.76-8.459-11.989
			c-4.228-14.095,5.642-23.254,7.753-35.244c0.706-4.934-2.112-9.159-0.703-14.094c0.703-4.231,8.459-6.348,7.05-10.577
			c-0.703-3.522-8.459,0-10.575-2.819c-2.115-3.521,1.41-7.753,1.41-11.274c0-0.703-2.819-0.703-2.116-1.412
			c1.41-2.115,5.641-1.406,7.05-4.227c2.819-7.05-7.753-41.59-11.98-46.523c-8.459-9.165-14.098,21.145-11.984-14.101
			c0.706-4.934,5.64-8.456,6.344-13.396c0.706-2.819-2.818-5.638-0.704-7.754c0.704-0.703,5.639,14.1,18.325,14.1
			C459.46,579.692,498.228,547.971,504.572,540.214 M794.989,46.786c-1.41,14.101-19.031,11.281-20.441,22.556
			c-1.409,8.463,14.805,7.051,18.328,9.869c4.932,4.231-8.459,9.869-10.574,16.216c-2.818,9.165,8.459-0.703,9.868,2.818
			c1.409,3.522-6.344,12.688-1.409,15.506c7.047,4.231,35.243,21.149,10.572,19.737c1.409-3.522,1.409-6.341-1.41-9.869
			c-13.391-12.688-12.688-7.05-20.439,2.824c0.706-0.708,0.706-1.417,0.706-1.417c0-7.044-13.396-8.457-19.74-5.638
			c-3.521,2.115,0,9.874-2.818,12.692c-2.818,2.819-7.753,0.704-11.98,2.116c-9.871,4.226-19.034,15.506-30.313,17.616
			c-3.521,0.709-7.047-2.819-9.869-0.703c-2.818,0.703,0,4.934-1.409,7.758c-0.705,2.11-2.821,4.935-4.23,7.044
			c0.706-0.704,0.706-1.407,1.409-1.407c3.524,0,0.706,7.753,3.524,9.16c1.41,0.709,2.116-4.226,3.528-2.818
			c1.409,2.818,4.229,8.462,1.409,10.571c-1.409,0.708-2.115,2.115-1.409,3.527c0.706,0.704,2.113-0.708,3.525-0.708
			c4.228,3.527,11.274,5.643,11.98,10.577c4.229,19.736-12.688,11.983-17.625,23.963c-1.41,3.528,7.756,41.596,9.871,45.821
			c4.229,7.05,53.569,42.293,63.44,47.931c9.869,5.643,12.688,2.116,21.851,9.874c9.871,8.457,23.262,64.141,31.015,78.241
			c7.757,14.803,23.97,28.194,36.656,38.062c4.23,2.819,10.574,3.528,14.101,7.051c2.111,1.411,0,5.644,1.405,7.05
			c19.034,19.736,54.983,13.391,77.54,9.869c4.938-0.704,15.509-8.457,21.854-1.412c17.622,19.742-35.246,26.787-8.459,45.111
			c25.378,16.925,60.621,15.513,86.702,28.902c9.165,4.936,12.688,12.692,23.26,16.215c8.462,3.522,31.721,7.05,38.772,12.688
			c2.819,2.114,0,7.05,2.113,9.165c8.459,11.983,31.015,9.869,38.064,34.54c2.818,9.159-3.524,6.342-5.641,12.688
			c-1.41,3.522,0.706,17.622-2.112,19.034c-2.821,2.11-7.757,0-11.986-2.115c-21.848-8.462-12.688-21.148-23.966-35.952
			c-6.345-8.457-26.784,0-37.359-3.521c-14.097-4.936-21.85-21.149-35.246-7.05c-1.409,2.114-19.027,37.358-19.027,38.766
			c0,2.115,3.521,4.231,2.817,7.056c-2.817,13.392-16.918,12.683-4.935,28.193c7.051,8.457,9.163,0.703,16.916,2.819
			c8.459,2.817,14.1,11.279,21.853,14.803c2.819,1.406,7.051,0,8.46,2.818c1.409,2.115-2.818,4.935-2.818,7.754
			c0.702,19.736,9.865,1.412,8.457,26.787c-0.704,14.803-28.9,9.158-41.589,23.968c-9.161,10.571,2.819,21.144,0,33.831
			c-2.114,10.571-9.161,7.754-16.215,13.392c-16.916,14.808-4.932,48.64-40.178,38.776c-7.047-2.121-14.801-20.446-10.572-28.199
			c2.819-4.231,9.869-3.521,13.392-7.05c2.116-2.819,2.116-7.05,2.821-10.572c0.703-3.527,3.521-6.347,2.818-9.868
			c-0.706-4.23-7.753-6.347-7.05-10.577c2.819-12.688,19.737-5.639,24.672-12.688c11.984-14.095-2.113-16.21-7.753-23.963
			c-5.638-8.462-2.819-20.441-7.05-29.606c-2.116-5.643-4.936-10.577-8.46-14.803c-0.703-1.412-3.521-1.412-4.933-2.819
			c-12.688-19.032,0.704-7.753-7.756-28.901C961.344,624.097,955,637.493,933.855,638.9c-0.706,0,0.704-2.109,0-3.521
			c-2.818-2.824-6.347-6.348-10.574-8.462c-4.231-2.116-12.688,0-15.507-4.936c-2.818-4.935,5.638-9.863,4.932-15.506
			c-0.703-5.639-4.932-10.572-7.75-14.804c-16.921-23.266-19.74,9.165-39.478,2.115c-2.115-0.703,13.394-11.983,6.347-16.919
			c-25.378-18.324-0.706,0.709-28.196-2.817c-2.114-0.704,0-4.231-0.706-6.348c-2.818-8.456-17.622-31.013-24.672-33.831
			c-19.031-7.051-4.229,6.342-10.572,4.935c-6.346-1.412-11.982-9.165-19.032-8.462c-6.345,1.412-11.278,9.869-16.916,8.462
			c-6.348-1.412-5.642-10.577-9.869-14.803c-4.935-4.231-17.622-2.819-21.854-5.639l-10.573-14.809
			c-4.936-4.226-12.686-4.934-16.916-9.863c-8.459-12.688,1.409-10.577-8.459-18.331c-4.231-3.521-9.163-6.346-14.098-9.165
			c-1.412-0.704-4.23,1.412-5.64,0.708c-7.753-6.346-7.753-18.324-15.509-24.671c-13.392-11.28-21.851-2.818-35.95-8.462
			c-2.113-0.704,3.524-2.818,4.935-4.226c4.229-5.639-4.229-14.804-6.344-16.919c-1.41-1.411-4.229,0-5.638-1.411
			c-2.116-2.819-2.116-7.051-4.936-9.16c-3.524-2.824-10.575-0.709-13.394-4.936c-2.115-2.818,4.23-8.462,0.704-10.577
			c-4.229-3.521-11.278,0.708-16.916-1.406c-3.525-1.412,2.116-7.76,2.116-11.984c2.112-14.1,0-19.034-7.754-31.018
			c-14.805-21.145-4.23-40.179-21.853-56.388c-1.409-2.115-4.231-2.823-6.344-3.527c-0.706,0-1.409,2.115-2.115,1.412
			c-3.525-1.412-5.638-5.644-9.166-5.644c-2.115,0,2.118,6.347,0,5.644c-5.638-1.412-9.869-5.644-14.8-9.165
			c-2.115-1.412-19.74-19.737-25.377-19.737c-1.41,0,0.703,3.527-0.706,4.23c-1.41,0.703-3.522,0-4.229-1.411
			c-3.524-4.231-18.328-11.275-25.377-11.275c-2.818,0-21.144,10.572-22.554,13.391c-1.412,2.819,0.704,7.051-1.412,9.166
			c-2.115,2.819-7.753,2.115-9.869,4.227c-4.934,4.934-8.459,16.215-14.097,21.148c-9.165,9.166-25.377,8.457-35.95,9.869
			c-3.525-12.688,20.441-28.903,9.869-36.656c-3.525-2.115-8.459,0.708-12.688,1.412c-4.23,0-9.165,2.115-13.394,0.703
			c-7.753-2.115-26.083-15.506-25.377-25.375c0-1.412,3.524-1.412,3.524-2.819c-0.706-2.114-7.753-4.23-5.641-8.462
			c2.819-2.818,6.344-4.934,8.462-8.457c0.704-0.702-1.412-2.114-0.708-3.526c0.708-2.116,7.052,1.412,7.756-0.704
			c0-5.638-0.704-11.275-2.818-15.506c-3.525-5.639-26.787-14.804-25.378-26.083c0-3.522,6.344-3.522,9.868-4.227
			c2.116,0,3.525,4.227,5.639,3.522c3.524-0.703,26.084-19.028,22.559-25.375c-2.116-4.231-9.163-4.936-11.278-9.869
			c-2.112-2.818,0.706-7.753-0.702-10.572c-9.872-16.918-28.197-8.462,4.228-27.489c7.047,12.687,26.081-1.412,35.244-3.528
			c6.344-1.407,11.278,7.05,17.622,7.05c0.706,0,20.442-20.44,20.442-23.968c0.704-3.522-5.64-4.935-4.934-7.753
			c1.409-4.231,7.047-5.639,10.572-8.457c3.524-2.819,6.344-5.639,9.872-8.462c1.408-0.704,2.818-2.116,3.524-1.407
			c1.409,4.23,0.703,8.457,0.703,12.688c0,2.115-2.113,4.935-1.409,7.753c4.935,9.166,16.212,11.275,23.965,14.095
			c0.704,0,2.113,1.412,2.113,2.824c-0.703,2.818-5.638,4.935-4.934,7.753c0.706,2.818,5.643,1.411,7.758,3.521
			c2.819,3.528,4.229,15.506,8.457,11.984c11.98-9.166-2.115-6.341-2.115-13.392c0-15.512,16.918-19.736,19.737-32.425
			c0-1.412-7.753-20.446,4.23-18.331c9.163,1.412-2.117,15.513,16.212,19.737c11.275,3.528,2.113-10.572,21.146-7.044
			c5.638,0.704,2.819,11.979,7.753,14.798c2.819,1.412,8.459-1.407,7.753-4.226c-1.409-2.116-4.228-3.528-4.934-6.348
			c0-2.818,4.23-4.934,3.524-7.753c-1.409-3.527-14.097-11.281-4.229-18.325c12.688-9.166,7.753,11.275,22.556,7.753
			c8.459-2.823-4.935-12.688-4.935-14.1c1.409-2.819,3.524-4.934,4.23-7.753c1.41-2.819,0.704-6.347,1.41-9.166l0,0
			c11.275,5.638,1.409-1.407,12.688,0c5.638,0.704,11.274,15.512,22.556,9.166l9.163-19.034c5.638-4.226,30.312-1.407,36.656-2.116
			c10.574-0.704,19.03-9.862,29.605-9.862c2.819,0-4.935,3.521-5.641,6.341c-3.525,14.803,5.641,4.935,11.277,13.391
			c1.409,2.115-2.115,4.935-0.705,7.753c0.705,1.412,2.82-1.406,4.23,0c13.395,9.874,16.918,11.281,35.246,14.101
			C759.744,43.967,777.366,45.379,794.989,46.786L794.989,46.786z"/>
	</g>
</g>
</svg>
