<?xml version="1.0" encoding="UTF-8" standalone="no"?>
<svg width="890px" height="890px" viewBox="0 0 890 890" version="1.1" xmlns="http://www.w3.org/2000/svg" xmlns:xlink="http://www.w3.org/1999/xlink">
    <!-- Generator: Sketch 3.8.3 (29802) - http://www.bohemiancoding.com/sketch -->
    <title>overcast</title>
    <desc>Created with Sketch.</desc>
    <defs></defs>
    <g id="Page-1" stroke="none" stroke-width="1" fill="none" fill-rule="evenodd">
        <g id="overcast" stroke="#FFFFFF" fill="#FC7E0F">
            <path d="M445,889.01 C199.78,889.01 0.99,690.22 0.99,445 C0.99,199.78 199.78,0.99 445,0.99 C690.22,0.99 889.01,199.78 889.01,445 C889.01,690.22 690.22,889.01 445,889.01 L445,889.01 Z M350.696,837.889 C374.647,819.565 397.641,798.401 419.124,774.504 C408.141,761.935 397.584,748.681 387.501,734.772 L346.649,836.902 C347.995,837.239 349.344,837.566 350.696,837.889 L350.696,837.889 Z M444.411,744.209 C458.265,726.339 471.305,707.231 483.376,686.964 L445,591.023 L406.153,688.14 C418.027,707.969 430.826,726.686 444.411,744.209 L444.411,744.209 Z M467.632,772.175 C489.789,797.114 513.578,819.15 538.401,838.11 C540.056,837.718 541.705,837.314 543.352,836.902 L500.44,729.623 C489.99,744.518 479.034,758.717 467.632,772.175 L467.632,772.175 Z M494.689,845.939 C476.714,831.965 459.301,816.583 442.659,799.787 C426.575,816.43 409.792,831.711 392.498,845.59 C409.684,847.821 427.206,848.983 445.001,848.983 C461.825,848.983 478.404,847.937 494.689,845.939 L494.689,845.939 Z M445,41.017 C221.886,41.017 41.017,221.887 41.017,445 C41.017,623.455 156.735,774.867 317.221,828.338 L420.967,517.1 C390.776,507.04 368.999,478.572 368.999,445 C368.999,403.026 403.026,368.999 445,368.999 C486.974,368.999 521.001,403.026 521.001,445 C521.001,478.572 499.224,507.04 469.033,517.1 L572.779,828.338 C733.266,774.867 848.983,623.455 848.983,445 C848.983,221.886 668.114,41.017 445,41.017 L445,41.017 Z M669.866,669.866 L641.581,641.581 C691.89,591.271 723.007,521.77 723.007,445 C723.007,368.23 691.89,298.729 641.581,248.419 L669.866,220.134 C727.414,277.682 763.008,357.184 763.008,445 C763.008,532.815 727.414,612.318 669.866,669.866 L669.866,669.866 Z M554.599,554.599 C582.648,526.55 599.996,487.801 599.996,445 C599.996,402.199 582.647,363.45 554.599,335.401 L582.886,307.114 C618.174,342.402 640,391.152 640,445 C640,498.848 618.174,547.598 582.886,582.886 L554.599,554.599 L554.599,554.599 Z M307.114,582.886 C271.826,547.598 250,498.848 250,445 C250,391.152 271.826,342.402 307.114,307.114 L335.401,335.401 C307.353,363.45 290.004,402.199 290.004,445 C290.004,487.801 307.353,526.55 335.401,554.599 L307.114,582.886 L307.114,582.886 Z M220.134,669.866 C162.586,612.318 126.991,532.816 126.991,445 C126.991,357.185 162.585,277.683 220.134,220.134 L248.419,248.419 C198.11,298.729 166.993,368.231 166.993,445 C166.993,521.77 198.11,591.271 248.419,641.581 L220.134,669.866 L220.134,669.866 Z" id="Shape"></path>
        </g>
    </g>
</svg>