<svg xmlns="http://www.w3.org/2000/svg" width="512" height="512" viewBox="0 0 512 512">
  <path fill="#555" d="M256,0 C114.625,0 0,114.625 0,256 C0,369.125 73.344,465.0625 175.078,498.906 C187.875,501.25 192.547,493.3435 192.547,486.5935 C192.547,480.4995 192.3125,460.3125 192.1875,438.9375 C121,454.406 105.953,408.75 105.953,408.75 C94.297,379.1875 77.531,371.3125 77.531,371.3125 C54.2655,355.4375 79.296,355.75 79.296,355.75 C104.999,357.531 118.531,382.125 118.531,382.125 C141.375,421.25 178.4685,409.9375 193.031,403.375 C195.358,386.875 201.983,375.5625 209.281,369.1875 C152.453,362.719 92.672,340.75 92.672,242.656 C92.672,214.687 102.6565,191.875 119,173.953 C116.3905,167.453 107.578,141.406 121.531,106.172 C121.531,106.172 143,99.297 191.937,132.422 C212.343,126.719 234.234,123.9065 255.9995,123.8125 C277.7495,123.9065 299.6555,126.75 320.0935,132.453 C368.9375,99.297 390.4375,106.203 390.4375,106.203 C404.4375,141.4685 395.625,167.484 393,173.953 C409.406,191.875 419.3125,214.6875 419.3125,242.656 C419.3125,341 359.4375,362.656 302.4065,369 C311.6255,376.9375 319.7815,392.5 319.7815,416.375 C319.7815,450.594 319.4375,478.1875 319.4375,486.625 C319.4375,493.4375 324.0935,501.406 337.0625,498.906 C438.719,465 512,369.0625 512,256 C512,114.625 397.375,0 256,0 Z" transform="translate(0 6)"/>
</svg>
