<svg xmlns="http://www.w3.org/2000/svg" width="512" height="512" viewBox="0 0 512 512">
  <path fill="#555" d="M160.483746,415.415251 C353.057391,415.415251 458.368428,255.876736 458.368428,117.530569 C458.368428,112.999112 458.276131,108.488203 458.072872,103.997672 C478.5152,89.2195371 496.282799,70.7776054 510.296872,49.783893 C491.537809,58.1221298 471.350625,63.7352936 450.173688,66.2663545 C471.788993,53.3048776 488.383615,32.8014181 496.212591,8.35898328 C475.98431,20.3509137 453.583026,29.0667291 429.731361,33.7723344 C410.626397,13.4224749 383.427039,0.694394649 353.309795,0.694394649 C295.49318,0.694394649 248.608364,47.5809231 248.608364,105.375278 C248.608364,113.590908 249.526882,121.582218 251.323163,129.247492 C164.308848,124.869121 87.1509619,83.2085886 35.512594,19.8610033 C26.5212575,35.3329926 21.336701,53.3053913 21.336701,72.4822742 C21.336701,108.805164 39.8200722,140.87109 67.9269886,159.630154 C50.7501592,159.099455 34.6144535,154.384294 20.5113365,146.535968 C20.4959251,146.975226 20.4959251,147.403474 20.4959251,147.872939 C20.4959251,198.57635 56.5842194,240.909674 104.489611,250.502397 C95.6921151,252.900749 86.4360455,254.186742 76.8827077,254.186742 C70.146911,254.186742 63.5844067,253.523779 57.2058114,252.298678 C70.5345926,293.897393 109.184942,324.168751 155.008086,325.014664 C119.174935,353.101032 74.0350288,369.82922 24.975497,369.82922 C16.5352027,369.82922 8.19713712,369.349138 0.00222608696,368.379968 C46.3373699,398.079393 101.355965,415.408624 160.489397,415.408624" transform="translate(0 48)"/>
</svg>
